<svg xmlns="http://www.w3.org/2000/svg" xmlns:xlink="http://www.w3.org/1999/xlink" width="1920" zoomAndPan="magnify" viewBox="0 0 1440 809.999993" height="1080" preserveAspectRatio="xMidYMid meet" version="1.0"><defs><clipPath id="0261825068"><path d="M 0 0 L 1440 0 L 1440 64.851562 L 0 64.851562 Z M 0 0 " clip-rule="nonzero"/></clipPath><clipPath id="f4e0214f50"><path d="M 0 46.277344 L 576 46.277344 L 576 116 L 0 116 Z M 0 46.277344 " clip-rule="nonzero"/></clipPath><clipPath id="72ac589647"><path d="M 0 46.277344 L 576 46.277344 L 576 107 L 0 107 Z M 0 46.277344 " clip-rule="nonzero"/></clipPath><clipPath id="26cc1713e3"><path d="M 573.601562 46.277344 L 1149.601562 46.277344 L 1149.601562 116 L 573.601562 116 Z M 573.601562 46.277344 " clip-rule="nonzero"/></clipPath><clipPath id="00a1d319a0"><path d="M 573.601562 46.277344 L 1149.601562 46.277344 L 1149.601562 107 L 573.601562 107 Z M 573.601562 46.277344 " clip-rule="nonzero"/></clipPath><clipPath id="47287f1e5a"><path d="M 1135.945312 24.351562 L 1440 24.351562 L 1440 94 L 1135.945312 94 Z M 1135.945312 24.351562 " clip-rule="nonzero"/></clipPath><clipPath id="53897f37f5"><path d="M 1135.945312 24.351562 L 1440 24.351562 L 1440 85 L 1135.945312 85 Z M 1135.945312 24.351562 " clip-rule="nonzero"/></clipPath></defs><g clip-path="url(#0261825068)"><path fill="#294122" d="M 0 -16.148438 L 1439.964844 -16.148438 L 1439.964844 64.851562 L 0 64.851562 Z M 0 -16.148438 " fill-opacity="1" fill-rule="nonzero"/></g><g clip-path="url(#f4e0214f50)"><path fill="#294122" d="M 0 -40.652344 L 0 75.925781 C 1.789062 76.785156 3.371094 78.710938 3.507812 82.152344 C 3.441406 82.425781 11.867188 79.828125 12.488281 79.382812 C 10.957031 79.3125 22.859375 77.578125 21.207031 76.148438 C 21.757812 76.21875 29.738281 74.808594 29.960938 73.242188 C 32.351562 77.386719 41.242188 82.1875 39.25 74.496094 C 40.519531 76.921875 47.316406 73.035156 48.054688 74 C 47.554688 71.558594 56.738281 72.65625 57.152344 74.308594 C 55.914062 70.128906 65.839844 75.410156 65.839844 70.578125 C 65.839844 73.242188 75.433594 78.296875 75.433594 76.871094 C 75.433594 73.121094 83.707031 63.542969 83.707031 68.617188 C 83.707031 69.183594 93.152344 76.027344 93.152344 73.105469 C 93.152344 72.210938 100.460938 78.953125 100.460938 68.324219 C 100.460938 64.46875 108.199219 66.398438 108.199219 70.09375 C 108.199219 71.144531 115.011719 78.730469 115.011719 73.964844 C 115.011719 72.96875 125.140625 70.230469 125.140625 76.75 C 125.140625 81.839844 135.324219 80.601562 135.324219 80.914062 C 135.324219 82.597656 144.9375 83.21875 144.9375 84.265625 C 144.9375 82.890625 154.3125 77.902344 154.3125 80.894531 C 154.3125 80.621094 163.046875 80.636719 163.046875 76.339844 C 163.046875 74.410156 172.164062 79.519531 172.164062 75.703125 C 172.164062 74.617188 181.175781 74.652344 181.175781 72.363281 C 181.175781 75.648438 190.292969 77.09375 190.292969 78.28125 C 190.292969 74.53125 199.664062 66.328125 199.664062 72.570312 C 199.664062 75.476562 207.9375 81.53125 207.9375 81.308594 C 207.9375 76.097656 217.105469 86.742188 217.105469 80.257812 C 217.105469 78.472656 225.929688 81.859375 225.929688 81.945312 C 225.929688 77.4375 234.097656 84.628906 234.097656 86.777344 C 234.097656 93.074219 243.695312 83.785156 243.695312 84.902344 C 243.695312 86.074219 252.621094 79.570312 252.621094 86.363281 C 252.621094 89.582031 260.15625 99.351562 260.15625 93.261719 C 260.15625 97.320312 269.03125 94.242188 269.03125 94.863281 C 269.03125 92.761719 279.28125 96.132812 279.28125 91.320312 C 279.28125 93.191406 287.191406 94.65625 287.191406 96.703125 C 287.191406 93.675781 296.632812 100.054688 296.632812 96.132812 C 296.632812 97.871094 305.613281 96.476562 305.613281 97.21875 C 305.613281 96.71875 313.851562 98.078125 313.851562 101.550781 C 313.851562 99.367188 322.484375 102.824219 322.484375 103.339844 C 322.484375 103.496094 330.707031 105.59375 330.707031 107.65625 C 330.707031 104.492188 339.441406 111.511719 339.441406 109.292969 C 339.441406 107.3125 348.25 106.933594 348.25 110.460938 C 348.25 109.929688 357.433594 110.167969 357.433594 107.984375 C 357.433594 109.824219 366.1875 108.070312 366.1875 109.152344 C 366.1875 111.441406 374.804688 110.53125 374.804688 113.214844 C 374.804688 113.988281 383.660156 114.398438 383.660156 114.777344 C 383.660156 119.4375 392.621094 107.226562 392.621094 111.011719 C 392.621094 109.34375 401.515625 113.882812 401.515625 114.949219 C 401.515625 116.6875 410.285156 105.078125 410.285156 110.5625 C 410.285156 113.78125 419.023438 109.757812 419.023438 108.757812 C 419.023438 104.683594 429.945312 112.472656 429.945312 113.625 C 429.945312 116.359375 439.230469 102.429688 439.230469 106.246094 C 439.230469 111.855469 448.914062 104.886719 448.914062 103.890625 C 448.914062 103.015625 457.273438 98.644531 457.273438 98.007812 C 457.273438 100.742188 466.511719 95.773438 466.511719 95.652344 C 466.511719 95.171875 476.453125 90.476562 476.453125 98.714844 C 476.453125 98.007812 485.238281 90.578125 485.238281 90.648438 C 485.238281 92.039062 494.578125 96.941406 494.578125 95.445312 C 494.578125 96.082031 503.730469 96.597656 503.730469 96.960938 C 503.730469 98.007812 513.617188 96.996094 513.617188 96.617188 C 513.617188 96.03125 521.738281 110.167969 521.738281 103.820312 C 521.738281 100.796875 530.75 111.492188 530.75 109.515625 C 530.75 108.964844 541.257812 103.304688 541.738281 103.890625 C 542.769531 102.496094 549.324219 104.253906 550.441406 102.757812 C 552.230469 105.921875 559.867188 101.085938 560.605469 99.746094 C 561.550781 108.757812 568.464844 99.4375 569.757812 95.601562 C 571.40625 99.210938 574.46875 99.867188 575.984375 99.402344 L 575.984375 -40.652344 Z M 0 -40.652344 " fill-opacity="1" fill-rule="nonzero"/></g><g clip-path="url(#72ac589647)"><path fill="#294122" d="M 0 -49.851562 L 0 66.722656 C 1.789062 67.582031 3.371094 69.511719 3.507812 72.949219 C 3.441406 73.226562 11.867188 70.628906 12.488281 70.179688 C 10.957031 70.113281 22.859375 68.375 21.207031 66.949219 C 21.757812 67.015625 29.738281 65.605469 29.960938 64.039062 C 32.351562 68.1875 41.242188 72.984375 39.25 65.296875 C 40.519531 67.722656 47.316406 63.835938 48.054688 64.796875 C 47.554688 62.355469 56.738281 63.457031 57.152344 65.105469 C 55.914062 60.925781 65.839844 66.207031 65.839844 61.375 C 65.839844 64.039062 75.433594 69.097656 75.433594 67.667969 C 75.433594 63.921875 83.707031 54.339844 83.707031 59.414062 C 83.707031 59.980469 93.152344 66.828125 93.152344 63.902344 C 93.152344 63.007812 100.460938 69.75 100.460938 59.121094 C 100.460938 55.269531 108.199219 57.195312 108.199219 60.894531 C 108.199219 61.941406 115.011719 69.527344 115.011719 64.761719 C 115.011719 63.765625 125.140625 61.03125 125.140625 67.550781 C 125.140625 72.640625 135.324219 71.402344 135.324219 71.710938 C 135.324219 73.398438 144.9375 74.015625 144.9375 75.066406 C 144.9375 73.6875 154.3125 68.703125 154.3125 71.695312 C 154.3125 71.417969 163.046875 71.4375 163.046875 67.136719 C 163.046875 65.210938 172.164062 70.316406 172.164062 66.5 C 172.164062 65.417969 181.175781 65.449219 181.175781 63.164062 C 181.175781 66.449219 190.292969 67.894531 190.292969 69.078125 C 190.292969 65.332031 199.664062 57.125 199.664062 63.371094 C 199.664062 66.277344 207.9375 72.332031 207.9375 72.105469 C 207.9375 66.894531 217.105469 77.542969 217.105469 71.058594 C 217.105469 69.269531 225.929688 72.65625 225.929688 72.742188 C 225.929688 68.238281 234.097656 75.425781 234.097656 77.578125 C 234.097656 83.871094 243.695312 74.582031 243.695312 75.703125 C 243.695312 76.871094 252.621094 70.371094 252.621094 77.164062 C 252.621094 80.378906 260.15625 90.148438 260.15625 84.058594 C 260.15625 88.121094 269.03125 85.039062 269.03125 85.660156 C 269.03125 83.5625 279.28125 86.933594 279.28125 82.117188 C 279.28125 83.992188 287.191406 85.453125 287.191406 87.5 C 287.191406 84.472656 296.632812 90.855469 296.632812 86.933594 C 296.632812 88.667969 305.613281 87.277344 305.613281 88.015625 C 305.613281 87.515625 313.851562 88.875 313.851562 92.351562 C 313.851562 90.167969 322.484375 93.625 322.484375 94.140625 C 322.484375 94.292969 330.707031 96.390625 330.707031 98.457031 C 330.707031 95.292969 339.441406 102.308594 339.441406 100.089844 C 339.441406 98.113281 348.25 97.734375 348.25 101.257812 C 348.25 100.726562 357.433594 100.96875 357.433594 98.78125 C 357.433594 100.625 366.1875 98.867188 366.1875 99.953125 C 366.1875 102.238281 374.804688 101.328125 374.804688 104.011719 C 374.804688 104.785156 383.660156 105.199219 383.660156 105.578125 C 383.660156 110.238281 392.621094 98.027344 392.621094 101.808594 C 392.621094 100.140625 401.515625 104.683594 401.515625 105.75 C 401.515625 107.484375 410.285156 95.875 410.285156 101.363281 C 410.285156 104.578125 419.023438 100.554688 419.023438 99.558594 C 419.023438 95.480469 429.945312 103.273438 429.945312 104.425781 C 429.945312 107.160156 439.230469 93.226562 439.230469 97.046875 C 439.230469 102.652344 448.914062 95.6875 448.914062 94.691406 C 448.914062 93.8125 457.273438 89.445312 457.273438 88.808594 C 457.273438 91.542969 466.511719 86.570312 466.511719 86.449219 C 466.511719 85.96875 476.453125 81.273438 476.453125 89.511719 C 476.453125 88.808594 485.238281 81.378906 485.238281 81.445312 C 485.238281 82.839844 494.578125 87.742188 494.578125 86.246094 C 494.578125 86.882812 503.730469 87.398438 503.730469 87.757812 C 503.730469 88.808594 513.617188 87.792969 513.617188 87.414062 C 513.617188 86.828125 521.738281 100.96875 521.738281 94.621094 C 521.738281 91.59375 530.75 102.292969 530.75 100.3125 C 530.75 99.761719 541.257812 94.105469 541.738281 94.691406 C 542.769531 93.296875 549.324219 95.050781 550.441406 93.554688 C 552.230469 96.71875 559.867188 91.886719 560.605469 90.542969 C 561.550781 99.558594 568.464844 90.234375 569.757812 86.398438 C 571.40625 90.011719 574.46875 90.664062 575.984375 90.199219 L 575.984375 -49.851562 Z M 0 -49.851562 " fill-opacity="1" fill-rule="nonzero"/></g><g clip-path="url(#26cc1713e3)"><path fill="#294122" d="M 1149.601562 -40.652344 L 1149.601562 75.925781 C 1147.8125 76.785156 1146.230469 78.710938 1146.09375 82.152344 C 1146.164062 82.425781 1137.734375 79.828125 1137.117188 79.382812 C 1138.644531 79.3125 1126.746094 77.578125 1128.394531 76.148438 C 1127.84375 76.21875 1119.863281 74.808594 1119.640625 73.242188 C 1117.25 77.386719 1108.359375 82.1875 1110.355469 74.496094 C 1109.082031 76.921875 1102.289062 73.035156 1101.546875 74 C 1102.046875 71.558594 1092.863281 72.65625 1092.449219 74.308594 C 1093.6875 70.128906 1083.761719 75.410156 1083.761719 70.578125 C 1083.761719 73.242188 1074.167969 78.296875 1074.167969 76.871094 C 1074.167969 73.121094 1065.894531 63.542969 1065.894531 68.617188 C 1065.894531 69.183594 1056.453125 76.027344 1056.453125 73.105469 C 1056.453125 72.210938 1049.140625 78.953125 1049.140625 68.324219 C 1049.140625 64.46875 1041.402344 66.398438 1041.402344 70.09375 C 1041.402344 71.144531 1034.589844 78.730469 1034.589844 73.964844 C 1034.589844 72.96875 1024.460938 70.230469 1024.460938 76.75 C 1024.460938 81.839844 1014.277344 80.601562 1014.277344 80.914062 C 1014.277344 82.597656 1004.664062 83.21875 1004.664062 84.265625 C 1004.664062 82.890625 995.292969 77.902344 995.292969 80.894531 C 995.292969 80.621094 986.554688 80.636719 986.554688 76.339844 C 986.554688 74.410156 977.4375 79.519531 977.4375 75.703125 C 977.4375 74.617188 968.425781 74.652344 968.425781 72.363281 C 968.425781 75.648438 959.308594 77.09375 959.308594 78.28125 C 959.308594 74.53125 949.9375 66.328125 949.9375 72.570312 C 949.9375 75.476562 941.664062 81.53125 941.664062 81.308594 C 941.664062 76.097656 932.496094 86.742188 932.496094 80.257812 C 932.496094 78.472656 923.675781 81.859375 923.675781 81.945312 C 923.675781 77.4375 915.503906 84.628906 915.503906 86.777344 C 915.503906 93.074219 905.90625 83.785156 905.90625 84.902344 C 905.90625 86.074219 896.980469 79.570312 896.980469 86.363281 C 896.980469 89.582031 889.449219 99.351562 889.449219 93.261719 C 889.449219 97.320312 880.574219 94.242188 880.574219 94.863281 C 880.574219 92.761719 870.320312 96.132812 870.320312 91.320312 C 870.320312 93.191406 862.410156 94.65625 862.410156 96.703125 C 862.410156 93.675781 852.96875 100.054688 852.96875 96.132812 C 852.96875 97.871094 843.988281 96.476562 843.988281 97.21875 C 843.988281 96.71875 835.75 98.078125 835.75 101.550781 C 835.75 99.367188 827.117188 102.824219 827.117188 103.339844 C 827.117188 103.496094 818.898438 105.59375 818.898438 107.65625 C 818.898438 104.492188 810.160156 111.511719 810.160156 109.292969 C 810.160156 107.3125 801.351562 106.933594 801.351562 110.460938 C 801.351562 109.929688 792.167969 110.167969 792.167969 107.984375 C 792.167969 109.824219 783.414062 108.070312 783.414062 109.152344 C 783.414062 111.441406 774.796875 110.53125 774.796875 113.214844 C 774.796875 113.988281 765.941406 114.398438 765.941406 114.777344 C 765.941406 119.4375 756.980469 107.226562 756.980469 111.011719 C 756.980469 109.34375 748.085938 113.882812 748.085938 114.949219 C 748.085938 116.6875 739.316406 105.078125 739.316406 110.5625 C 739.316406 113.78125 730.578125 109.757812 730.578125 108.757812 C 730.578125 104.683594 719.65625 112.472656 719.65625 113.625 C 719.65625 116.359375 710.371094 102.429688 710.371094 106.246094 C 710.371094 111.855469 700.6875 104.886719 700.6875 103.890625 C 700.6875 103.015625 692.328125 98.644531 692.328125 98.007812 C 692.328125 100.742188 683.09375 95.773438 683.09375 95.652344 C 683.09375 95.171875 673.152344 90.476562 673.152344 98.714844 C 673.152344 98.007812 664.363281 90.578125 664.363281 90.648438 C 664.363281 92.039062 655.023438 96.941406 655.023438 95.445312 C 655.023438 96.082031 645.871094 96.597656 645.871094 96.960938 C 645.871094 98.007812 635.984375 96.996094 635.984375 96.617188 C 635.984375 96.03125 627.867188 110.167969 627.867188 103.820312 C 627.867188 100.796875 618.851562 111.492188 618.851562 109.515625 C 618.851562 108.964844 608.34375 103.304688 607.863281 103.890625 C 606.832031 102.496094 600.277344 104.253906 599.160156 102.757812 C 597.371094 105.921875 589.734375 101.085938 588.996094 99.746094 C 588.050781 108.757812 581.136719 99.4375 579.84375 95.601562 C 578.195312 99.210938 575.132812 99.867188 573.621094 99.402344 L 573.621094 -40.652344 Z M 1149.601562 -40.652344 " fill-opacity="1" fill-rule="nonzero"/></g><g clip-path="url(#00a1d319a0)"><path fill="#294122" d="M 1149.601562 -49.851562 L 1149.601562 66.722656 C 1147.8125 67.582031 1146.230469 69.511719 1146.09375 72.949219 C 1146.164062 73.226562 1137.734375 70.628906 1137.117188 70.179688 C 1138.644531 70.113281 1126.746094 68.375 1128.394531 66.949219 C 1127.84375 67.015625 1119.863281 65.605469 1119.640625 64.039062 C 1117.25 68.1875 1108.359375 72.984375 1110.355469 65.296875 C 1109.082031 67.722656 1102.289062 63.835938 1101.546875 64.796875 C 1102.046875 62.355469 1092.863281 63.457031 1092.449219 65.105469 C 1093.6875 60.925781 1083.761719 66.207031 1083.761719 61.375 C 1083.761719 64.039062 1074.167969 69.097656 1074.167969 67.667969 C 1074.167969 63.921875 1065.894531 54.339844 1065.894531 59.414062 C 1065.894531 59.980469 1056.453125 66.828125 1056.453125 63.902344 C 1056.453125 63.007812 1049.140625 69.75 1049.140625 59.121094 C 1049.140625 55.269531 1041.402344 57.195312 1041.402344 60.894531 C 1041.402344 61.941406 1034.589844 69.527344 1034.589844 64.761719 C 1034.589844 63.765625 1024.460938 61.03125 1024.460938 67.550781 C 1024.460938 72.640625 1014.277344 71.402344 1014.277344 71.710938 C 1014.277344 73.398438 1004.664062 74.015625 1004.664062 75.066406 C 1004.664062 73.6875 995.292969 68.703125 995.292969 71.695312 C 995.292969 71.417969 986.554688 71.4375 986.554688 67.136719 C 986.554688 65.210938 977.4375 70.316406 977.4375 66.5 C 977.4375 65.417969 968.425781 65.449219 968.425781 63.164062 C 968.425781 66.449219 959.308594 67.894531 959.308594 69.078125 C 959.308594 65.332031 949.9375 57.125 949.9375 63.371094 C 949.9375 66.277344 941.664062 72.332031 941.664062 72.105469 C 941.664062 66.894531 932.496094 77.542969 932.496094 71.058594 C 932.496094 69.269531 923.675781 72.65625 923.675781 72.742188 C 923.675781 68.238281 915.503906 75.425781 915.503906 77.578125 C 915.503906 83.871094 905.90625 74.582031 905.90625 75.703125 C 905.90625 76.871094 896.980469 70.371094 896.980469 77.164062 C 896.980469 80.378906 889.449219 90.148438 889.449219 84.058594 C 889.449219 88.121094 880.574219 85.039062 880.574219 85.660156 C 880.574219 83.5625 870.320312 86.933594 870.320312 82.117188 C 870.320312 83.992188 862.410156 85.453125 862.410156 87.5 C 862.410156 84.472656 852.96875 90.855469 852.96875 86.933594 C 852.96875 88.667969 843.988281 87.277344 843.988281 88.015625 C 843.988281 87.515625 835.75 88.875 835.75 92.351562 C 835.75 90.167969 827.117188 93.625 827.117188 94.140625 C 827.117188 94.292969 818.898438 96.390625 818.898438 98.457031 C 818.898438 95.292969 810.160156 102.308594 810.160156 100.089844 C 810.160156 98.113281 801.351562 97.734375 801.351562 101.257812 C 801.351562 100.726562 792.167969 100.96875 792.167969 98.78125 C 792.167969 100.625 783.414062 98.867188 783.414062 99.953125 C 783.414062 102.238281 774.796875 101.328125 774.796875 104.011719 C 774.796875 104.785156 765.941406 105.199219 765.941406 105.578125 C 765.941406 110.238281 756.980469 98.027344 756.980469 101.808594 C 756.980469 100.140625 748.085938 104.683594 748.085938 105.75 C 748.085938 107.484375 739.316406 95.875 739.316406 101.363281 C 739.316406 104.578125 730.578125 100.554688 730.578125 99.558594 C 730.578125 95.480469 719.65625 103.273438 719.65625 104.425781 C 719.65625 107.160156 710.371094 93.226562 710.371094 97.046875 C 710.371094 102.652344 700.6875 95.6875 700.6875 94.691406 C 700.6875 93.8125 692.328125 89.445312 692.328125 88.808594 C 692.328125 91.542969 683.09375 86.570312 683.09375 86.449219 C 683.09375 85.96875 673.152344 81.273438 673.152344 89.511719 C 673.152344 88.808594 664.363281 81.378906 664.363281 81.445312 C 664.363281 82.839844 655.023438 87.742188 655.023438 86.246094 C 655.023438 86.882812 645.871094 87.398438 645.871094 87.757812 C 645.871094 88.808594 635.984375 87.792969 635.984375 87.414062 C 635.984375 86.828125 627.867188 100.96875 627.867188 94.621094 C 627.867188 91.59375 618.851562 102.292969 618.851562 100.3125 C 618.851562 99.761719 608.34375 94.105469 607.863281 94.691406 C 606.832031 93.296875 600.277344 95.050781 599.160156 93.554688 C 597.371094 96.71875 589.734375 91.886719 588.996094 90.542969 C 588.050781 99.558594 581.136719 90.234375 579.84375 86.398438 C 578.195312 90.011719 575.132812 90.664062 573.621094 90.199219 L 573.621094 -49.851562 Z M 1149.601562 -49.851562 " fill-opacity="1" fill-rule="nonzero"/></g><g clip-path="url(#47287f1e5a)"><path fill="#294122" d="M 1711.945312 -62.578125 L 1711.945312 54 C 1710.15625 54.859375 1708.574219 56.785156 1708.4375 60.226562 C 1708.503906 60.5 1700.078125 57.902344 1699.457031 57.457031 C 1700.988281 57.386719 1689.085938 55.648438 1690.738281 54.222656 C 1690.1875 54.292969 1682.207031 52.878906 1681.984375 51.316406 C 1679.59375 55.460938 1670.703125 60.257812 1672.695312 52.570312 C 1671.425781 54.996094 1664.628906 51.109375 1663.890625 52.074219 C 1664.390625 49.628906 1655.207031 50.730469 1654.792969 52.382812 C 1656.03125 48.203125 1646.105469 53.484375 1646.105469 48.648438 C 1646.105469 51.316406 1636.507812 56.371094 1636.507812 54.945312 C 1636.507812 51.195312 1628.238281 41.617188 1628.238281 46.6875 C 1628.238281 47.257812 1618.792969 54.101562 1618.792969 51.179688 C 1618.792969 50.285156 1611.484375 57.027344 1611.484375 46.398438 C 1611.484375 42.542969 1603.746094 44.46875 1603.746094 48.167969 C 1603.746094 49.21875 1596.933594 56.800781 1596.933594 52.039062 C 1596.933594 51.039062 1586.804688 48.304688 1586.804688 54.824219 C 1586.804688 59.914062 1576.621094 58.675781 1576.621094 58.988281 C 1576.621094 60.671875 1567.007812 61.292969 1567.007812 62.339844 C 1567.007812 60.964844 1557.632812 55.976562 1557.632812 58.96875 C 1557.632812 58.695312 1548.898438 58.710938 1548.898438 54.410156 C 1548.898438 52.484375 1539.78125 57.59375 1539.78125 53.773438 C 1539.78125 52.691406 1530.769531 52.726562 1530.769531 50.4375 C 1530.769531 53.722656 1521.652344 55.167969 1521.652344 56.355469 C 1521.652344 52.605469 1512.28125 44.402344 1512.28125 50.644531 C 1512.28125 53.550781 1504.007812 59.605469 1504.007812 59.382812 C 1504.007812 54.171875 1494.839844 64.816406 1494.839844 58.332031 C 1494.839844 56.542969 1486.015625 59.933594 1486.015625 60.019531 C 1486.015625 55.511719 1477.847656 62.703125 1477.847656 64.851562 C 1477.847656 71.144531 1468.25 61.859375 1468.25 62.976562 C 1468.25 64.144531 1459.324219 57.644531 1459.324219 64.4375 C 1459.324219 67.65625 1451.789062 77.425781 1451.789062 71.335938 C 1451.789062 75.394531 1442.914062 72.316406 1442.914062 72.933594 C 1442.914062 70.835938 1432.664062 74.207031 1432.664062 69.390625 C 1432.664062 71.265625 1424.753906 72.730469 1424.753906 74.777344 C 1424.753906 71.75 1415.3125 78.128906 1415.3125 74.207031 C 1415.3125 75.945312 1406.332031 74.550781 1406.332031 75.292969 C 1406.332031 74.792969 1398.09375 76.152344 1398.09375 79.625 C 1398.09375 77.441406 1389.460938 80.898438 1389.460938 81.414062 C 1389.460938 81.570312 1381.238281 83.667969 1381.238281 85.730469 C 1381.238281 82.566406 1372.503906 89.582031 1372.503906 87.363281 C 1372.503906 85.386719 1363.695312 85.007812 1363.695312 88.535156 C 1363.695312 88 1354.511719 88.242188 1354.511719 86.058594 C 1354.511719 87.898438 1345.757812 86.144531 1345.757812 87.226562 C 1345.757812 89.515625 1337.140625 88.605469 1337.140625 91.285156 C 1337.140625 92.058594 1328.285156 92.472656 1328.285156 92.851562 C 1328.285156 97.511719 1319.324219 85.300781 1319.324219 89.085938 C 1319.324219 87.417969 1310.429688 91.957031 1310.429688 93.023438 C 1310.429688 94.761719 1301.660156 83.152344 1301.660156 88.636719 C 1301.660156 91.855469 1292.921875 87.828125 1292.921875 86.832031 C 1292.921875 82.753906 1282 90.546875 1282 91.699219 C 1282 94.433594 1272.714844 80.503906 1272.714844 84.320312 C 1272.714844 89.929688 1263.03125 82.960938 1263.03125 81.964844 C 1263.03125 81.085938 1254.671875 76.71875 1254.671875 76.082031 C 1254.671875 78.816406 1245.433594 73.847656 1245.433594 73.726562 C 1245.433594 73.246094 1235.492188 68.550781 1235.492188 76.789062 C 1235.492188 76.082031 1226.707031 68.652344 1226.707031 68.722656 C 1226.707031 70.113281 1217.367188 75.015625 1217.367188 73.519531 C 1217.367188 74.15625 1208.214844 74.671875 1208.214844 75.035156 C 1208.214844 76.082031 1198.328125 75.066406 1198.328125 74.6875 C 1198.328125 74.105469 1190.207031 88.242188 1190.207031 81.894531 C 1190.207031 78.867188 1181.195312 89.566406 1181.195312 87.589844 C 1181.195312 87.039062 1170.6875 81.378906 1170.207031 81.964844 C 1169.175781 80.570312 1162.621094 82.324219 1161.503906 80.828125 C 1159.714844 83.992188 1152.078125 79.160156 1151.339844 77.820312 C 1150.394531 86.832031 1143.476562 77.511719 1142.1875 73.675781 C 1140.539062 77.285156 1137.476562 77.941406 1135.960938 77.476562 L 1135.960938 -62.578125 Z M 1711.945312 -62.578125 " fill-opacity="1" fill-rule="nonzero"/></g><g clip-path="url(#53897f37f5)"><path fill="#294122" d="M 1711.945312 -71.777344 L 1711.945312 44.796875 C 1710.15625 45.65625 1708.574219 47.582031 1708.4375 51.023438 C 1708.503906 51.296875 1700.078125 48.703125 1699.457031 48.253906 C 1700.988281 48.183594 1689.085938 46.449219 1690.738281 45.019531 C 1690.1875 45.089844 1682.207031 43.679688 1681.984375 42.113281 C 1679.59375 46.257812 1670.703125 51.058594 1672.695312 43.371094 C 1671.425781 45.792969 1664.628906 41.90625 1663.890625 42.871094 C 1664.390625 40.429688 1655.207031 41.53125 1654.792969 43.179688 C 1656.03125 39 1646.105469 44.28125 1646.105469 39.449219 C 1646.105469 42.113281 1636.507812 47.171875 1636.507812 45.742188 C 1636.507812 41.992188 1628.238281 32.414062 1628.238281 37.488281 C 1628.238281 38.054688 1618.792969 44.902344 1618.792969 41.976562 C 1618.792969 41.082031 1611.484375 47.824219 1611.484375 37.195312 C 1611.484375 33.34375 1603.746094 35.269531 1603.746094 38.964844 C 1603.746094 40.015625 1596.933594 47.601562 1596.933594 42.835938 C 1596.933594 41.839844 1586.804688 39.105469 1586.804688 45.621094 C 1586.804688 50.714844 1576.621094 49.476562 1576.621094 49.785156 C 1576.621094 51.46875 1567.007812 52.089844 1567.007812 53.140625 C 1567.007812 51.761719 1557.632812 46.773438 1557.632812 49.769531 C 1557.632812 49.492188 1548.898438 49.511719 1548.898438 45.210938 C 1548.898438 43.285156 1539.78125 48.390625 1539.78125 44.574219 C 1539.78125 43.488281 1530.769531 43.523438 1530.769531 41.238281 C 1530.769531 44.523438 1521.652344 45.964844 1521.652344 47.152344 C 1521.652344 43.402344 1512.28125 35.199219 1512.28125 41.445312 C 1512.28125 44.351562 1504.007812 50.402344 1504.007812 50.179688 C 1504.007812 44.96875 1494.839844 55.617188 1494.839844 49.132812 C 1494.839844 47.34375 1486.015625 50.730469 1486.015625 50.816406 C 1486.015625 46.3125 1477.847656 53.5 1477.847656 55.648438 C 1477.847656 61.945312 1468.25 52.65625 1468.25 53.773438 C 1468.25 54.945312 1459.324219 48.445312 1459.324219 55.238281 C 1459.324219 58.453125 1451.789062 68.222656 1451.789062 62.132812 C 1451.789062 66.191406 1442.914062 63.113281 1442.914062 63.734375 C 1442.914062 61.636719 1432.664062 65.007812 1432.664062 60.191406 C 1432.664062 62.066406 1424.753906 63.527344 1424.753906 65.574219 C 1424.753906 62.546875 1415.3125 68.925781 1415.3125 65.007812 C 1415.3125 66.742188 1406.332031 65.351562 1406.332031 66.089844 C 1406.332031 65.589844 1398.09375 66.949219 1398.09375 70.425781 C 1398.09375 68.238281 1389.460938 71.695312 1389.460938 72.210938 C 1389.460938 72.367188 1381.238281 74.464844 1381.238281 76.53125 C 1381.238281 73.363281 1372.503906 80.382812 1372.503906 78.164062 C 1372.503906 76.1875 1363.695312 75.808594 1363.695312 79.332031 C 1363.695312 78.800781 1354.511719 79.039062 1354.511719 76.855469 C 1354.511719 78.695312 1345.757812 76.941406 1345.757812 78.027344 C 1345.757812 80.3125 1337.140625 79.402344 1337.140625 82.085938 C 1337.140625 82.859375 1328.285156 83.273438 1328.285156 83.648438 C 1328.285156 88.3125 1319.324219 76.101562 1319.324219 79.882812 C 1319.324219 78.214844 1310.429688 82.753906 1310.429688 83.820312 C 1310.429688 85.558594 1301.660156 73.949219 1301.660156 79.4375 C 1301.660156 82.652344 1292.921875 78.628906 1292.921875 77.628906 C 1292.921875 73.554688 1282 81.34375 1282 82.496094 C 1282 85.234375 1272.714844 71.300781 1272.714844 75.121094 C 1272.714844 80.726562 1263.03125 73.761719 1263.03125 72.761719 C 1263.03125 71.886719 1254.671875 67.515625 1254.671875 66.882812 C 1254.671875 69.617188 1245.433594 64.644531 1245.433594 64.523438 C 1245.433594 64.042969 1235.492188 59.347656 1235.492188 67.585938 C 1235.492188 66.882812 1226.707031 59.449219 1226.707031 59.519531 C 1226.707031 60.914062 1217.367188 65.816406 1217.367188 64.316406 C 1217.367188 64.953125 1208.214844 65.46875 1208.214844 65.832031 C 1208.214844 66.882812 1198.328125 65.867188 1198.328125 65.488281 C 1198.328125 64.902344 1190.207031 79.039062 1190.207031 72.695312 C 1190.207031 69.667969 1181.195312 80.363281 1181.195312 78.386719 C 1181.195312 77.835938 1170.6875 72.179688 1170.207031 72.761719 C 1169.175781 71.371094 1162.621094 73.125 1161.503906 71.628906 C 1159.714844 74.792969 1152.078125 69.960938 1151.339844 68.617188 C 1150.394531 77.628906 1143.476562 68.308594 1142.1875 64.472656 C 1140.539062 68.085938 1137.476562 68.738281 1135.960938 68.273438 L 1135.960938 -71.777344 Z M 1711.945312 -71.777344 " fill-opacity="1" fill-rule="nonzero"/></g></svg>