<?xml version="1.0" encoding="utf-8"?>
<!-- Generator: Adobe Illustrator 24.0.1, SVG Export Plug-In . SVG Version: 6.00 Build 0)  -->
<svg version="1.1" id="Layer_1" xmlns="http://www.w3.org/2000/svg" xmlns:xlink="http://www.w3.org/1999/xlink" x="0px" y="0px"
	 viewBox="0 0 1920 1080" style="enable-background:new 0 0 1920 1080;" xml:space="preserve">
<style type="text/css">
	.st0{clip-path:url(#SVGID_2_);}
	.st1{fill:#294122;}
	.st2{clip-path:url(#SVGID_4_);}
	.st3{fill:#E1A10B;}
	.st4{clip-path:url(#SVGID_6_);}
	.st5{clip-path:url(#SVGID_8_);}
	.st6{clip-path:url(#SVGID_10_);}
	.st7{clip-path:url(#SVGID_12_);}
	.st8{clip-path:url(#SVGID_14_);}
	.st9{clip-path:url(#SVGID_16_);}
	.st10{clip-path:url(#SVGID_18_);}
	.st11{clip-path:url(#SVGID_20_);}
</style>
<g>
	<defs>
		<rect id="SVGID_1_" width="1920" height="40.4"/>
	</defs>
	<clipPath id="SVGID_2_">
		<use xlink:href="#SVGID_1_"  style="overflow:visible;"/>
	</clipPath>
	<g class="st0">
		<path class="st1" d="M0-28.1h1920v68.5H0V-28.1z"/>
	</g>
</g>
<g>
	<defs>
		<rect id="SVGID_3_" x="958.7" y="37.5" width="961.3" height="117.2"/>
	</defs>
	<clipPath id="SVGID_4_">
		<use xlink:href="#SVGID_3_"  style="overflow:visible;"/>
	</clipPath>
	<g class="st2">
		<path class="st3" d="M1920-107.6V87c-3,1.4-5.6,4.6-5.9,10.4c0.1,0.5-14-3.9-15-4.6c2.6-0.1-17.3-3-14.6-5.4
			c-0.9,0.1-14.2-2.2-14.6-4.8c-4,6.9-18.8,14.9-15.5,2.1c-2.1,4-13.5-2.4-14.7-0.8c0.8-4.1-14.5-2.2-15.2,0.5
			c2.1-7-14.5,1.8-14.5-6.2c0,4.4-16,12.9-16,10.5c0-6.3-13.8-22.2-13.8-13.8c0,0.9-15.8,12.4-15.8,7.5c0-1.5-12.2,9.8-12.2-8
			c0-6.4-12.9-3.2-12.9,3c0,1.8-11.4,14.4-11.4,6.5c0-1.7-16.9-6.2-16.9,4.7c0,8.5-17,6.4-17,6.9c0,2.8-16,3.8-16,5.6
			c0-2.3-15.6-10.6-15.6-5.6c0-0.5-14.6-0.4-14.6-7.6c0-3.2-15.2,5.3-15.2-1.1c0-1.8-15-1.8-15-5.6c0,5.5-15.2,7.9-15.2,9.9
			c0-6.3-15.6-19.9-15.6-9.5c0,4.8-13.8,15-13.8,14.6c0-8.7-15.3,9.1-15.3-1.8c0-3-14.7,2.7-14.7,2.8c0-7.5-13.6,4.5-13.6,8.1
			c0,10.5-16-5-16-3.1c0,2-14.9-8.9-14.9,2.4c0,5.4-12.6,21.7-12.6,11.5c0,6.8-14.8,1.6-14.8,2.7c0-3.5-17.1,2.1-17.1-5.9
			c0,3.1-13.2,5.6-13.2,9c0-5.1-15.8,5.6-15.8-0.9c0,2.9-15,0.6-15,1.8c0-0.8-13.7,1.4-13.7,7.2c0-3.6-14.4,2.1-14.4,3
			c0,0.3-13.7,3.8-13.7,7.2c0-5.3-14.6,6.4-14.6,2.7c0-3.3-14.7-3.9-14.7,2c0-0.9-15.3-0.5-15.3-4.1c0,3.1-14.6,0.1-14.6,2
			c0,3.8-14.4,2.3-14.4,6.8c0,1.3-14.8,2-14.8,2.6c0,7.8-15-12.6-15-6.3c0-2.8-14.8,4.8-14.8,6.6c0,2.9-14.6-16.5-14.6-7.3
			c0,5.4-14.6-1.3-14.6-3c0-6.8-18.2,6.2-18.2,8.1c0,4.6-15.5-18.7-15.5-12.3c0,9.4-16.2-2.3-16.2-3.9c0-1.5-13.9-8.8-13.9-9.8
			c0,4.6-15.4-3.7-15.4-3.9c0-0.8-16.6-8.6-16.6,5.1c0-1.2-14.7-13.6-14.7-13.5c0,2.3-15.6,10.5-15.6,8c0,1.1-15.3,1.9-15.3,2.5
			c0,1.8-16.5,0.1-16.5-0.6c0-1-13.5,22.6-13.5,12c0-5-15,12.8-15,9.5c0-0.9-17.5-10.4-18.3-9.4c-1.7-2.3-12.7,0.6-14.5-1.9
			c-3,5.3-15.7-2.8-17-5c-1.6,15-13.1-0.5-15.3-6.9c-2.8,6-7.9,7.1-10.4,6.3v-233.7H1920z"/>
	</g>
</g>
<g>
	<defs>
		<rect id="SVGID_5_" x="958.7" y="37.5" width="961.3" height="101.2"/>
	</defs>
	<clipPath id="SVGID_6_">
		<use xlink:href="#SVGID_5_"  style="overflow:visible;"/>
	</clipPath>
	<g class="st4">
		<path class="st1" d="M1920-122.9V71.6c-3,1.4-5.6,4.7-5.9,10.4c0.1,0.5-14-3.9-15-4.6c2.6-0.1-17.3-3-14.6-5.4
			c-0.9,0.1-14.2-2.2-14.6-4.8c-4,6.9-18.8,14.9-15.5,2.1c-2.1,4-13.5-2.4-14.7-0.8c0.8-4.1-14.5-2.2-15.2,0.5
			c2.1-7-14.5,1.8-14.5-6.2c0,4.5-16,12.9-16,10.5c0-6.3-13.8-22.2-13.8-13.8c0,0.9-15.8,12.4-15.8,7.5c0-1.5-12.2,9.8-12.2-8
			c0-6.4-12.9-3.2-12.9,3c0,1.8-11.4,14.4-11.4,6.5c0-1.7-16.9-6.2-16.9,4.7c0,8.5-17,6.4-17,6.9c0,2.8-16,3.8-16,5.6
			c0-2.3-15.6-10.6-15.6-5.6c0-0.5-14.6-0.4-14.6-7.6c0-3.2-15.2,5.3-15.2-1.1c0-1.8-15-1.8-15-5.6c0,5.5-15.2,7.9-15.2,9.9
			c0-6.3-15.6-19.9-15.6-9.5c0,4.8-13.8,15-13.8,14.6c0-8.7-15.3,9.1-15.3-1.8c0-3-14.7,2.7-14.7,2.8c0-7.5-13.6,4.5-13.6,8.1
			c0,10.5-16-5-16-3.1c0,2-14.9-8.9-14.9,2.4c0,5.4-12.6,21.7-12.6,11.5c0,6.8-14.8,1.6-14.8,2.7c0-3.5-17.1,2.1-17.1-5.9
			c0,3.1-13.2,5.6-13.2,9c0-5.1-15.8,5.6-15.8-0.9c0,2.9-15,0.6-15,1.8c0-0.8-13.7,1.4-13.7,7.2c0-3.6-14.4,2.1-14.4,3
			c0,0.3-13.7,3.8-13.7,7.2c0-5.3-14.6,6.4-14.6,2.7c0-3.3-14.7-3.9-14.7,1.9c0-0.9-15.3-0.5-15.3-4.1c0,3.1-14.6,0.1-14.6,1.9
			c0,3.8-14.4,2.3-14.4,6.8c0,1.3-14.8,2-14.8,2.6c0,7.8-15-12.6-15-6.3c0-2.8-14.8,4.8-14.8,6.6c0,2.9-14.6-16.5-14.6-7.3
			c0,5.4-14.6-1.3-14.6-3c0-6.8-18.2,6.2-18.2,8.1c0,4.6-15.5-18.7-15.5-12.3c0,9.4-16.2-2.3-16.2-3.9c0-1.5-13.9-8.8-13.9-9.8
			c0,4.6-15.4-3.7-15.4-3.9c0-0.8-16.6-8.6-16.6,5.1c0-1.2-14.7-13.6-14.7-13.5c0,2.3-15.6,10.5-15.6,8c0,1.1-15.3,1.9-15.3,2.5
			c0,1.8-16.5,0.1-16.5-0.6c0-1-13.5,22.6-13.5,12c0-5.1-15,12.8-15,9.5c0-0.9-17.5-10.4-18.3-9.4c-1.7-2.3-12.7,0.6-14.5-1.9
			c-3,5.3-15.7-2.8-17-5c-1.6,15-13.1-0.5-15.3-6.9c-2.8,6-7.9,7.1-10.4,6.3v-233.7H1920z"/>
	</g>
</g>
<g>
	<defs>
		<rect id="SVGID_7_" y="37.5" width="961.3" height="117.2"/>
	</defs>
	<clipPath id="SVGID_8_">
		<use xlink:href="#SVGID_7_"  style="overflow:visible;"/>
	</clipPath>
	<g class="st5">
		<path class="st3" d="M0-107.6V87c3,1.4,5.6,4.6,5.9,10.4c-0.1,0.5,14-3.9,15-4.6c-2.6-0.1,17.3-3,14.6-5.4
			c0.9,0.1,14.2-2.2,14.6-4.8c4,6.9,18.8,14.9,15.5,2.1c2.1,4,13.5-2.4,14.7-0.8c-0.8-4.1,14.5-2.2,15.2,0.5
			c-2.1-7,14.5,1.8,14.5-6.2c0,4.4,16,12.9,16,10.5c0-6.3,13.8-22.2,13.8-13.8c0,0.9,15.8,12.4,15.8,7.5c0-1.5,12.2,9.8,12.2-8
			c0-6.4,12.9-3.2,12.9,3c0,1.8,11.4,14.4,11.4,6.5c0-1.7,16.9-6.2,16.9,4.7c0,8.5,17,6.4,17,6.9c0,2.8,16,3.8,16,5.6
			c0-2.3,15.6-10.6,15.6-5.6c0-0.5,14.6-0.4,14.6-7.6c0-3.2,15.2,5.3,15.2-1.1c0-1.8,15-1.8,15-5.6c0,5.5,15.2,7.9,15.2,9.9
			c0-6.3,15.6-19.9,15.6-9.5c0,4.8,13.8,15,13.8,14.6c0-8.7,15.3,9.1,15.3-1.8c0-3,14.7,2.7,14.7,2.8c0-7.5,13.6,4.5,13.6,8.1
			c0,10.5,16-5,16-3.1c0,2,14.9-8.9,14.9,2.4c0,5.4,12.6,21.7,12.6,11.5c0,6.8,14.8,1.6,14.8,2.7c0-3.5,17.1,2.1,17.1-5.9
			c0,3.1,13.2,5.6,13.2,9c0-5.1,15.8,5.6,15.8-0.9c0,2.9,15,0.6,15,1.8c0-0.8,13.8,1.4,13.8,7.2c0-3.6,14.4,2.1,14.4,3
			c0,0.3,13.7,3.8,13.7,7.2c0-5.3,14.6,6.4,14.6,2.7c0-3.3,14.7-3.9,14.7,2c0-0.9,15.3-0.5,15.3-4.1c0,3.1,14.6,0.1,14.6,2
			c0,3.8,14.4,2.3,14.4,6.8c0,1.3,14.8,2,14.8,2.6c0,7.8,15-12.6,15-6.3c0-2.8,14.8,4.8,14.8,6.6c0,2.9,14.6-16.5,14.6-7.3
			c0,5.4,14.6-1.3,14.6-3c0-6.8,18.2,6.2,18.2,8.1c0,4.6,15.5-18.7,15.5-12.3c0,9.4,16.2-2.3,16.2-3.9c0-1.5,13.9-8.8,13.9-9.8
			c0,4.6,15.4-3.7,15.4-3.9c0-0.8,16.6-8.6,16.6,5.1c0-1.2,14.7-13.6,14.7-13.5c0,2.3,15.6,10.5,15.6,8c0,1.1,15.3,1.9,15.3,2.5
			c0,1.8,16.5,0.1,16.5-0.6c0-1,13.5,22.6,13.5,12c0-5,15,12.8,15,9.5c0-0.9,17.5-10.4,18.3-9.4c1.7-2.3,12.7,0.6,14.5-1.9
			c3,5.3,15.7-2.8,17-5c1.6,15,13.1-0.5,15.3-6.9c2.8,6,7.9,7.1,10.4,6.3v-233.7H0z"/>
	</g>
</g>
<g>
	<defs>
		<rect id="SVGID_9_" y="37.5" width="961.3" height="101.2"/>
	</defs>
	<clipPath id="SVGID_10_">
		<use xlink:href="#SVGID_9_"  style="overflow:visible;"/>
	</clipPath>
	<g class="st6">
		<path class="st1" d="M0-122.9V71.6C3,73,5.6,76.3,5.9,82c-0.1,0.5,14-3.9,15-4.6c-2.6-0.1,17.3-3,14.6-5.4
			c0.9,0.1,14.2-2.2,14.6-4.8C54,74,68.8,82,65.5,69.2c2.1,4,13.5-2.4,14.7-0.8c-0.8-4.1,14.5-2.2,15.2,0.5
			c-2.1-7,14.5,1.8,14.5-6.2c0,4.5,16,12.9,16,10.5c0-6.3,13.8-22.2,13.8-13.8c0,0.9,15.8,12.4,15.8,7.5c0-1.5,12.2,9.8,12.2-8
			c0-6.4,12.9-3.2,12.9,3c0,1.8,11.4,14.4,11.4,6.5c0-1.7,16.9-6.2,16.9,4.7c0,8.5,17,6.4,17,6.9c0,2.8,16,3.8,16,5.6
			c0-2.3,15.6-10.6,15.6-5.6c0-0.5,14.6-0.4,14.6-7.6c0-3.2,15.2,5.3,15.2-1.1c0-1.8,15-1.8,15-5.6c0,5.5,15.2,7.9,15.2,9.9
			c0-6.3,15.6-19.9,15.6-9.5c0,4.8,13.8,15,13.8,14.6c0-8.7,15.3,9.1,15.3-1.8c0-3,14.7,2.7,14.7,2.8c0-7.5,13.6,4.5,13.6,8.1
			c0,10.5,16-5,16-3.1c0,2,14.9-8.9,14.9,2.4c0,5.4,12.6,21.7,12.6,11.5c0,6.8,14.8,1.6,14.8,2.7c0-3.5,17.1,2.1,17.1-5.9
			c0,3.1,13.2,5.6,13.2,9c0-5.1,15.8,5.6,15.8-0.9c0,2.9,15,0.6,15,1.8c0-0.8,13.8,1.4,13.8,7.2c0-3.6,14.4,2.1,14.4,3
			c0,0.3,13.7,3.8,13.7,7.2c0-5.3,14.6,6.4,14.6,2.7c0-3.3,14.7-3.9,14.7,1.9c0-0.9,15.3-0.5,15.3-4.1c0,3.1,14.6,0.1,14.6,1.9
			c0,3.8,14.4,2.3,14.4,6.8c0,1.3,14.8,2,14.8,2.6c0,7.8,15-12.6,15-6.3c0-2.8,14.8,4.8,14.8,6.6c0,2.9,14.6-16.5,14.6-7.3
			c0,5.4,14.6-1.3,14.6-3c0-6.8,18.2,6.2,18.2,8.1c0,4.6,15.5-18.7,15.5-12.3c0,9.4,16.2-2.3,16.2-3.9c0-1.5,13.9-8.8,13.9-9.8
			c0,4.6,15.4-3.7,15.4-3.9c0-0.8,16.6-8.6,16.6,5.1c0-1.2,14.7-13.6,14.7-13.5c0,2.3,15.6,10.5,15.6,8c0,1.1,15.3,1.9,15.3,2.5
			c0,1.8,16.5,0.1,16.5-0.6c0-1,13.5,22.6,13.5,12c0-5.1,15,12.8,15,9.5c0-0.9,17.5-10.4,18.3-9.4c1.7-2.3,12.7,0.6,14.5-1.9
			c3,5.3,15.7-2.8,17-5c1.6,15,13.1-0.5,15.3-6.9c2.8,6,7.9,7.1,10.4,6.3v-233.7H0z"/>
	</g>
</g>
<g>
	<defs>
		<rect id="SVGID_11_" width="1920" height="36.1"/>
	</defs>
	<clipPath id="SVGID_12_">
		<use xlink:href="#SVGID_11_"  style="overflow:visible;"/>
	</clipPath>
	<g class="st7">
		<path class="st1" d="M0-32.3h1920v68.5H0V-32.3z"/>
	</g>
</g>
<g>
	<defs>
		<rect id="SVGID_13_" x="958.7" y="33.2" width="961.3" height="116.1"/>
	</defs>
	<clipPath id="SVGID_14_">
		<use xlink:href="#SVGID_13_"  style="overflow:visible;"/>
	</clipPath>
	<g class="st8">
		<path class="st1" d="M1920-111.9V82.7c-3,1.4-5.6,4.6-5.9,10.4c0.1,0.5-14-3.9-15-4.6c2.6-0.1-17.3-3-14.6-5.4
			c-0.9,0.1-14.2-2.2-14.6-4.8c-4,6.9-18.8,14.9-15.5,2.1c-2.1,4-13.5-2.4-14.7-0.8c0.8-4.1-14.5-2.2-15.2,0.5
			c2.1-7-14.5,1.8-14.5-6.2c0,4.4-16,12.9-16,10.5c0-6.3-13.8-22.2-13.8-13.8c0,0.9-15.8,12.4-15.8,7.5c0-1.5-12.2,9.8-12.2-8
			c0-6.4-12.9-3.2-12.9,3c0,1.8-11.4,14.4-11.4,6.5c0-1.7-16.9-6.2-16.9,4.7c0,8.5-17,6.4-17,6.9c0,2.8-16,3.8-16,5.6
			c0-2.3-15.6-10.6-15.6-5.6c0-0.5-14.6-0.4-14.6-7.6c0-3.2-15.2,5.3-15.2-1.1c0-1.8-15-1.8-15-5.6c0,5.5-15.2,7.9-15.2,9.9
			c0-6.3-15.6-20-15.6-9.5c0,4.8-13.8,15-13.8,14.6c0-8.7-15.3,9.1-15.3-1.8c0-3-14.7,2.7-14.7,2.8c0-7.5-13.6,4.5-13.6,8.1
			c0,10.5-16-5-16-3.1c0,2-14.9-8.9-14.9,2.4c0,5.4-12.6,21.7-12.6,11.5c0,6.8-14.8,1.6-14.8,2.7c0-3.5-17.1,2.1-17.1-5.9
			c0,3.1-13.2,5.6-13.2,9c0-5.1-15.8,5.6-15.8-0.9c0,2.9-15,0.6-15,1.8c0-0.8-13.7,1.4-13.7,7.2c0-3.6-14.4,2.1-14.4,3
			c0,0.3-13.7,3.8-13.7,7.2c0-5.3-14.6,6.4-14.6,2.7c0-3.3-14.7-3.9-14.7,2c0-0.9-15.3-0.5-15.3-4.1c0,3.1-14.6,0.1-14.6,2
			c0,3.8-14.4,2.3-14.4,6.8c0,1.3-14.8,2-14.8,2.6c0,7.8-15-12.6-15-6.3c0-2.8-14.8,4.8-14.8,6.6c0,2.9-14.6-16.5-14.6-7.3
			c0,5.4-14.6-1.3-14.6-3c0-6.8-18.2,6.2-18.2,8.1c0,4.6-15.5-18.7-15.5-12.3c0,9.4-16.2-2.3-16.2-3.9c0-1.5-13.9-8.8-13.9-9.8
			c0,4.6-15.4-3.7-15.4-3.9c0-0.8-16.6-8.6-16.6,5.1c0-1.2-14.7-13.6-14.7-13.5c0,2.3-15.6,10.5-15.6,8c0,1.1-15.3,1.9-15.3,2.5
			c0,1.8-16.5,0.1-16.5-0.6c0-1-13.5,22.6-13.5,12c0-5.1-15,12.8-15,9.5c0-0.9-17.5-10.4-18.3-9.4c-1.7-2.3-12.7,0.6-14.5-1.9
			c-3,5.3-15.7-2.8-17-5c-1.6,15-13.1-0.5-15.3-6.9c-2.8,6-7.9,7.1-10.4,6.3v-233.7H1920z"/>
	</g>
</g>
<g>
	<defs>
		<rect id="SVGID_15_" x="958.7" y="33.2" width="961.3" height="101.5"/>
	</defs>
	<clipPath id="SVGID_16_">
		<use xlink:href="#SVGID_15_"  style="overflow:visible;"/>
	</clipPath>
	<g class="st9">
		<path class="st1" d="M1920-127.2V67.3c-3,1.4-5.6,4.7-5.9,10.4c0.1,0.5-14-3.9-15-4.6c2.6-0.1-17.3-3-14.6-5.4
			c-0.9,0.1-14.2-2.2-14.6-4.9c-4,6.9-18.8,14.9-15.5,2.1c-2.1,4-13.5-2.4-14.7-0.8c0.8-4.1-14.5-2.2-15.2,0.5
			c2.1-7-14.5,1.8-14.5-6.2c0,4.4-16,12.9-16,10.5c0-6.3-13.8-22.2-13.8-13.8c0,0.9-15.8,12.4-15.8,7.5c0-1.5-12.2,9.8-12.2-8
			c0-6.4-12.9-3.2-12.9,3c0,1.8-11.4,14.4-11.4,6.5c0-1.7-16.9-6.2-16.9,4.7c0,8.5-17,6.4-17,6.9c0,2.8-16,3.8-16,5.6
			c0-2.3-15.6-10.6-15.6-5.6c0-0.5-14.6-0.4-14.6-7.6c0-3.2-15.2,5.3-15.2-1.1c0-1.8-15-1.8-15-5.6c0,5.5-15.2,7.9-15.2,9.9
			c0-6.3-15.6-19.9-15.6-9.5c0,4.8-13.8,15-13.8,14.6c0-8.7-15.3,9.1-15.3-1.8c0-3-14.7,2.7-14.7,2.8c0-7.5-13.6,4.5-13.6,8.1
			c0,10.5-16-5-16-3.1c0,2-14.9-8.9-14.9,2.4c0,5.4-12.6,21.7-12.6,11.5c0,6.8-14.8,1.6-14.8,2.7c0-3.5-17.1,2.1-17.1-5.9
			c0,3.1-13.2,5.6-13.2,9c0-5-15.8,5.6-15.8-0.9c0,2.9-15,0.6-15,1.8c0-0.8-13.7,1.4-13.7,7.2c0-3.6-14.4,2.1-14.4,3
			c0,0.3-13.7,3.8-13.7,7.2c0-5.3-14.6,6.4-14.6,2.7c0-3.3-14.7-3.9-14.7,2c0-0.9-15.3-0.5-15.3-4.1c0,3.1-14.6,0.1-14.6,1.9
			c0,3.8-14.4,2.3-14.4,6.8c0,1.3-14.8,2-14.8,2.6c0,7.8-15-12.6-15-6.3c0-2.8-14.8,4.8-14.8,6.6c0,2.9-14.6-16.5-14.6-7.3
			c0,5.4-14.6-1.3-14.6-3c0-6.8-18.2,6.2-18.2,8.1c0,4.6-15.5-18.7-15.5-12.3c0,9.4-16.2-2.3-16.2-3.9c0-1.5-13.9-8.8-13.9-9.8
			c0,4.6-15.4-3.7-15.4-3.9c0-0.8-16.6-8.6-16.6,5.1c0-1.2-14.7-13.6-14.7-13.5c0,2.3-15.6,10.5-15.6,8c0,1.1-15.3,1.9-15.3,2.5
			c0,1.8-16.5,0.1-16.5-0.6c0-1-13.5,22.6-13.5,12c0-5.1-15,12.8-15,9.5c0-0.9-17.5-10.4-18.3-9.4c-1.7-2.3-12.7,0.6-14.5-1.9
			c-3,5.3-15.7-2.8-17-5c-1.6,15-13.1-0.5-15.3-6.9c-2.8,6-7.9,7.1-10.4,6.3v-233.7H1920z"/>
	</g>
</g>
<g>
	<defs>
		<rect id="SVGID_17_" y="33.2" width="961.3" height="116.1"/>
	</defs>
	<clipPath id="SVGID_18_">
		<use xlink:href="#SVGID_17_"  style="overflow:visible;"/>
	</clipPath>
	<g class="st10">
		<path class="st1" d="M0-111.9V82.7c3,1.4,5.6,4.6,5.9,10.4c-0.1,0.5,14-3.9,15-4.6c-2.6-0.1,17.3-3,14.6-5.4
			c0.9,0.1,14.2-2.2,14.6-4.8c4,6.9,18.8,14.9,15.5,2.1c2.1,4,13.5-2.4,14.7-0.8c-0.8-4.1,14.5-2.2,15.2,0.5
			c-2.1-7,14.5,1.8,14.5-6.2c0,4.4,16,12.9,16,10.5c0-6.3,13.8-22.2,13.8-13.8c0,0.9,15.8,12.4,15.8,7.5c0-1.5,12.2,9.8,12.2-8
			c0-6.4,12.9-3.2,12.9,3c0,1.8,11.4,14.4,11.4,6.5c0-1.7,16.9-6.2,16.9,4.7c0,8.5,17,6.4,17,6.9c0,2.8,16,3.8,16,5.6
			c0-2.3,15.6-10.6,15.6-5.6c0-0.5,14.6-0.4,14.6-7.6c0-3.2,15.2,5.3,15.2-1.1c0-1.8,15-1.8,15-5.6c0,5.5,15.2,7.9,15.2,9.9
			c0-6.3,15.6-20,15.6-9.5c0,4.8,13.8,15,13.8,14.6c0-8.7,15.3,9.1,15.3-1.8c0-3,14.7,2.7,14.7,2.8c0-7.5,13.6,4.5,13.6,8.1
			c0,10.5,16-5,16-3.1c0,2,14.9-8.9,14.9,2.4c0,5.4,12.6,21.7,12.6,11.5c0,6.8,14.8,1.6,14.8,2.7c0-3.5,17.1,2.1,17.1-5.9
			c0,3.1,13.2,5.6,13.2,9c0-5.1,15.8,5.6,15.8-0.9c0,2.9,15,0.6,15,1.8c0-0.8,13.8,1.4,13.8,7.2c0-3.6,14.4,2.1,14.4,3
			c0,0.3,13.7,3.8,13.7,7.2c0-5.3,14.6,6.4,14.6,2.7c0-3.3,14.7-3.9,14.7,2c0-0.9,15.3-0.5,15.3-4.1c0,3.1,14.6,0.1,14.6,2
			c0,3.8,14.4,2.3,14.4,6.8c0,1.3,14.8,2,14.8,2.6c0,7.8,15-12.6,15-6.3c0-2.8,14.8,4.8,14.8,6.6c0,2.9,14.6-16.5,14.6-7.3
			c0,5.4,14.6-1.3,14.6-3c0-6.8,18.2,6.2,18.2,8.1c0,4.6,15.5-18.7,15.5-12.3c0,9.4,16.2-2.3,16.2-3.9c0-1.5,13.9-8.8,13.9-9.8
			c0,4.6,15.4-3.7,15.4-3.9c0-0.8,16.6-8.6,16.6,5.1c0-1.2,14.7-13.6,14.7-13.5c0,2.3,15.6,10.5,15.6,8c0,1.1,15.3,1.9,15.3,2.5
			c0,1.8,16.5,0.1,16.5-0.6c0-1,13.5,22.6,13.5,12c0-5.1,15,12.8,15,9.5c0-0.9,17.5-10.4,18.3-9.4c1.7-2.3,12.7,0.6,14.5-1.9
			c3,5.3,15.7-2.8,17-5c1.6,15,13.1-0.5,15.3-6.9c2.8,6,7.9,7.1,10.4,6.3v-233.7H0z"/>
	</g>
</g>
<g>
	<defs>
		<rect id="SVGID_19_" y="33.2" width="961.3" height="101.5"/>
	</defs>
	<clipPath id="SVGID_20_">
		<use xlink:href="#SVGID_19_"  style="overflow:visible;"/>
	</clipPath>
	<g class="st11">
		<path class="st1" d="M0-127.2V67.3c3,1.4,5.6,4.7,5.9,10.4c-0.1,0.5,14-3.9,15-4.6c-2.6-0.1,17.3-3,14.6-5.4
			c0.9,0.1,14.2-2.2,14.6-4.9c4,6.9,18.8,14.9,15.5,2.1c2.1,4,13.5-2.4,14.7-0.8c-0.8-4.1,14.5-2.2,15.2,0.5
			c-2.1-7,14.5,1.8,14.5-6.2c0,4.4,16,12.9,16,10.5c0-6.3,13.8-22.2,13.8-13.8c0,0.9,15.8,12.4,15.8,7.5c0-1.5,12.2,9.8,12.2-8
			c0-6.4,12.9-3.2,12.9,3c0,1.8,11.4,14.4,11.4,6.5c0-1.7,16.9-6.2,16.9,4.7c0,8.5,17,6.4,17,6.9c0,2.8,16,3.8,16,5.6
			c0-2.3,15.6-10.6,15.6-5.6c0-0.5,14.6-0.4,14.6-7.6c0-3.2,15.2,5.3,15.2-1.1c0-1.8,15-1.8,15-5.6c0,5.5,15.2,7.9,15.2,9.9
			c0-6.3,15.6-19.9,15.6-9.5c0,4.8,13.8,15,13.8,14.6c0-8.7,15.3,9.1,15.3-1.8c0-3,14.7,2.7,14.7,2.8c0-7.5,13.6,4.5,13.6,8.1
			c0,10.5,16-5,16-3.1c0,2,14.9-8.9,14.9,2.4c0,5.4,12.6,21.7,12.6,11.5c0,6.8,14.8,1.6,14.8,2.7c0-3.5,17.1,2.1,17.1-5.9
			c0,3.1,13.2,5.6,13.2,9c0-5,15.8,5.6,15.8-0.9c0,2.9,15,0.6,15,1.8c0-0.8,13.8,1.4,13.8,7.2c0-3.6,14.4,2.1,14.4,3
			c0,0.3,13.7,3.8,13.7,7.2c0-5.3,14.6,6.4,14.6,2.7c0-3.3,14.7-3.9,14.7,2c0-0.9,15.3-0.5,15.3-4.1c0,3.1,14.6,0.1,14.6,1.9
			c0,3.8,14.4,2.3,14.4,6.8c0,1.3,14.8,2,14.8,2.6c0,7.8,15-12.6,15-6.3c0-2.8,14.8,4.8,14.8,6.6c0,2.9,14.6-16.5,14.6-7.3
			c0,5.4,14.6-1.3,14.6-3c0-6.8,18.2,6.2,18.2,8.1c0,4.6,15.5-18.7,15.5-12.3c0,9.4,16.2-2.3,16.2-3.9c0-1.5,13.9-8.8,13.9-9.8
			c0,4.6,15.4-3.7,15.4-3.9c0-0.8,16.6-8.6,16.6,5.1c0-1.2,14.7-13.6,14.7-13.5c0,2.3,15.6,10.5,15.6,8c0,1.1,15.3,1.9,15.3,2.5
			c0,1.8,16.5,0.1,16.5-0.6c0-1,13.5,22.6,13.5,12c0-5.1,15,12.8,15,9.5c0-0.9,17.5-10.4,18.3-9.4c1.7-2.3,12.7,0.6,14.5-1.9
			c3,5.3,15.7-2.8,17-5c1.6,15,13.1-0.5,15.3-6.9c2.8,6,7.9,7.1,10.4,6.3v-233.7H0z"/>
	</g>
</g>
</svg>
