<svg xmlns="http://www.w3.org/2000/svg" xmlns:xlink="http://www.w3.org/1999/xlink" width="1920" zoomAndPan="magnify" viewBox="0 0 1440 809.999993" height="1080" preserveAspectRatio="xMidYMid meet" version="1.0"><defs><clipPath id="03bad2d721"><path d="M 0 0 L 1440 0 L 1440 30.316406 L 0 30.316406 Z M 0 0 " clip-rule="nonzero"/></clipPath><clipPath id="0246b4b73d"><path d="M 719.054688 28.105469 L 1440 28.105469 L 1440 116 L 719.054688 116 Z M 719.054688 28.105469 " clip-rule="nonzero"/></clipPath><clipPath id="b926cf814e"><path d="M 719.054688 28.105469 L 1440 28.105469 L 1440 104 L 719.054688 104 Z M 719.054688 28.105469 " clip-rule="nonzero"/></clipPath><clipPath id="f3245125e4"><path d="M 0 28.105469 L 720.945312 28.105469 L 720.945312 116 L 0 116 Z M 0 28.105469 " clip-rule="nonzero"/></clipPath><clipPath id="229f38065c"><path d="M 0 28.105469 L 720.945312 28.105469 L 720.945312 104 L 0 104 Z M 0 28.105469 " clip-rule="nonzero"/></clipPath><clipPath id="5cf9a402a1"><path d="M 0 0 L 1440 0 L 1440 27.109375 L 0 27.109375 Z M 0 0 " clip-rule="nonzero"/></clipPath><clipPath id="28589e9d58"><path d="M 719.054688 24.898438 L 1440 24.898438 L 1440 112 L 719.054688 112 Z M 719.054688 24.898438 " clip-rule="nonzero"/></clipPath><clipPath id="5748c7187f"><path d="M 719.054688 24.898438 L 1440 24.898438 L 1440 101 L 719.054688 101 Z M 719.054688 24.898438 " clip-rule="nonzero"/></clipPath><clipPath id="4fb1227bc8"><path d="M 0 24.898438 L 720.945312 24.898438 L 720.945312 112 L 0 112 Z M 0 24.898438 " clip-rule="nonzero"/></clipPath><clipPath id="bd9130bcf6"><path d="M 0 24.898438 L 720.945312 24.898438 L 720.945312 101 L 0 101 Z M 0 24.898438 " clip-rule="nonzero"/></clipPath></defs><g clip-path="url(#03bad2d721)"><path fill="#294122" d="M 0 -21.050781 L 1439.96875 -21.050781 L 1439.96875 30.316406 L 0 30.316406 Z M 0 -21.050781 " fill-opacity="1" fill-rule="nonzero"/></g><g clip-path="url(#0246b4b73d)"><path fill="#e1a10b" d="M 1440 -80.695312 L 1440 65.21875 C 1437.761719 66.292969 1435.78125 68.703125 1435.609375 73.011719 C 1435.695312 73.355469 1425.144531 70.105469 1424.371094 69.542969 C 1426.285156 69.457031 1411.390625 67.285156 1413.457031 65.496094 C 1412.769531 65.582031 1402.777344 63.816406 1402.5 61.859375 C 1399.507812 67.046875 1388.378906 73.054688 1390.875 63.429688 C 1389.28125 66.464844 1380.777344 61.601562 1379.851562 62.804688 C 1380.476562 59.75 1368.980469 61.128906 1368.464844 63.195312 C 1370.015625 57.960938 1357.59375 64.570312 1357.59375 58.523438 C 1357.59375 61.859375 1345.582031 68.1875 1345.582031 66.402344 C 1345.582031 61.707031 1335.226562 49.71875 1335.226562 56.070312 C 1335.226562 56.777344 1323.410156 65.347656 1323.410156 61.6875 C 1323.410156 60.566406 1314.257812 69.007812 1314.257812 55.703125 C 1314.257812 50.878906 1304.570312 53.292969 1304.570312 57.917969 C 1304.570312 59.234375 1296.046875 68.726562 1296.046875 62.761719 C 1296.046875 61.515625 1283.367188 58.09375 1283.367188 66.25 C 1283.367188 72.621094 1270.625 71.074219 1270.625 71.460938 C 1270.625 73.570312 1258.589844 74.34375 1258.589844 75.65625 C 1258.589844 73.9375 1246.859375 67.691406 1246.859375 71.4375 C 1246.859375 71.09375 1235.921875 71.117188 1235.921875 65.734375 C 1235.921875 63.324219 1224.511719 69.714844 1224.511719 64.9375 C 1224.511719 63.582031 1213.230469 63.625 1213.230469 60.761719 C 1213.230469 64.871094 1201.824219 66.679688 1201.824219 68.167969 C 1201.824219 63.472656 1190.089844 53.207031 1190.089844 61.019531 C 1190.089844 64.65625 1179.734375 72.234375 1179.734375 71.957031 C 1179.734375 65.433594 1168.261719 78.757812 1168.261719 70.640625 C 1168.261719 68.402344 1157.21875 72.644531 1157.21875 72.753906 C 1157.21875 67.113281 1146.992188 76.109375 1146.992188 78.800781 C 1146.992188 86.679688 1134.980469 75.054688 1134.980469 76.453125 C 1134.980469 77.917969 1123.808594 69.78125 1123.808594 78.285156 C 1123.808594 82.308594 1114.378906 94.539062 1114.378906 86.917969 C 1114.378906 91.996094 1103.269531 88.144531 1103.269531 88.917969 C 1103.269531 86.292969 1090.441406 90.511719 1090.441406 84.484375 C 1090.441406 86.832031 1080.539062 88.660156 1080.539062 91.222656 C 1080.539062 87.433594 1068.71875 95.421875 1068.71875 90.511719 C 1068.71875 92.6875 1057.480469 90.941406 1057.480469 91.867188 C 1057.480469 91.242188 1047.171875 92.945312 1047.171875 97.292969 C 1047.171875 94.558594 1036.363281 98.886719 1036.363281 99.53125 C 1036.363281 99.726562 1026.074219 102.351562 1026.074219 104.933594 C 1026.074219 100.972656 1015.136719 109.757812 1015.136719 106.980469 C 1015.136719 104.503906 1004.117188 104.03125 1004.117188 108.445312 C 1004.117188 107.777344 992.621094 108.078125 992.621094 105.34375 C 992.621094 107.648438 981.664062 105.453125 981.664062 106.808594 C 981.664062 109.671875 970.878906 108.53125 970.878906 111.886719 C 970.878906 112.855469 959.792969 113.375 959.792969 113.847656 C 959.792969 119.679688 948.574219 104.398438 948.574219 109.132812 C 948.574219 107.042969 937.445312 112.726562 937.445312 114.0625 C 937.445312 116.238281 926.46875 101.707031 926.46875 108.574219 C 926.46875 112.597656 915.53125 107.5625 915.53125 106.3125 C 915.53125 101.210938 901.863281 110.960938 901.863281 112.40625 C 901.863281 115.828125 890.238281 98.390625 890.238281 103.171875 C 890.238281 110.1875 878.117188 101.46875 878.117188 100.21875 C 878.117188 99.121094 867.65625 93.65625 867.65625 92.859375 C 867.65625 96.28125 856.09375 90.058594 856.09375 89.910156 C 856.09375 89.304688 843.652344 83.429688 843.652344 93.742188 C 843.652344 92.859375 832.652344 83.558594 832.652344 83.644531 C 832.652344 85.386719 820.960938 91.523438 820.960938 89.652344 C 820.960938 90.449219 809.511719 91.09375 809.511719 91.546875 C 809.511719 92.859375 797.132812 91.589844 797.132812 91.113281 C 797.132812 90.382812 786.972656 108.078125 786.972656 100.132812 C 786.972656 96.347656 775.691406 109.734375 775.691406 107.261719 C 775.691406 106.570312 762.539062 99.488281 761.933594 100.21875 C 760.644531 98.476562 752.441406 100.671875 751.042969 98.800781 C 748.804688 102.761719 739.246094 96.710938 738.320312 95.03125 C 737.136719 106.3125 728.480469 94.644531 726.867188 89.84375 C 724.800781 94.367188 720.96875 95.183594 719.074219 94.601562 L 719.074219 -80.695312 Z M 1440 -80.695312 " fill-opacity="1" fill-rule="nonzero"/></g><g clip-path="url(#b926cf814e)"><path fill="#294122" d="M 1440 -92.210938 L 1440 53.699219 C 1437.761719 54.777344 1435.78125 57.1875 1435.609375 61.492188 C 1435.695312 61.835938 1425.144531 58.585938 1424.371094 58.027344 C 1426.285156 57.941406 1411.390625 55.765625 1413.457031 53.980469 C 1412.769531 54.066406 1402.777344 52.300781 1402.5 50.34375 C 1399.507812 55.53125 1388.378906 61.535156 1390.875 51.914062 C 1389.28125 54.949219 1380.777344 50.082031 1379.851562 51.289062 C 1380.476562 48.234375 1368.980469 49.609375 1368.464844 51.675781 C 1370.015625 46.445312 1357.59375 53.054688 1357.59375 47.003906 C 1357.59375 50.34375 1345.582031 56.671875 1345.582031 54.882812 C 1345.582031 50.191406 1335.226562 38.199219 1335.226562 44.550781 C 1335.226562 45.261719 1323.410156 53.828125 1323.410156 50.167969 C 1323.410156 49.050781 1314.257812 57.488281 1314.257812 44.183594 C 1314.257812 39.363281 1304.570312 41.773438 1304.570312 46.402344 C 1304.570312 47.714844 1296.046875 57.210938 1296.046875 51.246094 C 1296.046875 49.996094 1283.367188 46.574219 1283.367188 54.734375 C 1283.367188 61.105469 1270.625 59.554688 1270.625 59.941406 C 1270.625 62.054688 1258.589844 62.828125 1258.589844 64.140625 C 1258.589844 62.417969 1246.859375 56.175781 1246.859375 59.921875 C 1246.859375 59.578125 1235.921875 59.597656 1235.921875 54.21875 C 1235.921875 51.804688 1224.511719 58.199219 1224.511719 53.421875 C 1224.511719 52.0625 1213.230469 52.105469 1213.230469 49.246094 C 1213.230469 53.355469 1201.824219 55.164062 1201.824219 56.648438 C 1201.824219 51.957031 1190.089844 41.6875 1190.089844 49.503906 C 1190.089844 53.140625 1179.734375 60.71875 1179.734375 60.4375 C 1179.734375 53.914062 1168.261719 67.242188 1168.261719 59.125 C 1168.261719 56.886719 1157.21875 61.128906 1157.21875 61.234375 C 1157.21875 55.59375 1146.992188 64.59375 1146.992188 67.285156 C 1146.992188 75.164062 1134.980469 63.539062 1134.980469 64.9375 C 1134.980469 66.402344 1123.808594 58.265625 1123.808594 66.765625 C 1123.808594 70.792969 1114.378906 83.019531 1114.378906 75.398438 C 1114.378906 80.480469 1103.269531 76.625 1103.269531 77.402344 C 1103.269531 74.777344 1090.441406 78.996094 1090.441406 72.96875 C 1090.441406 75.3125 1080.539062 77.144531 1080.539062 79.707031 C 1080.539062 75.917969 1068.71875 83.902344 1068.71875 78.996094 C 1068.71875 81.167969 1057.480469 79.425781 1057.480469 80.351562 C 1057.480469 79.726562 1047.171875 81.425781 1047.171875 85.777344 C 1047.171875 83.042969 1036.363281 87.367188 1036.363281 88.015625 C 1036.363281 88.207031 1026.074219 90.835938 1026.074219 93.417969 C 1026.074219 89.457031 1015.136719 98.238281 1015.136719 95.464844 C 1015.136719 92.988281 1004.117188 92.515625 1004.117188 96.925781 C 1004.117188 96.257812 992.621094 96.5625 992.621094 93.828125 C 992.621094 96.128906 981.664062 93.933594 981.664062 95.289062 C 981.664062 98.152344 970.878906 97.011719 970.878906 100.371094 C 970.878906 101.339844 959.792969 101.855469 959.792969 102.332031 C 959.792969 108.164062 948.574219 92.878906 948.574219 97.617188 C 948.574219 95.527344 937.445312 101.210938 937.445312 102.546875 C 937.445312 104.71875 926.46875 90.1875 926.46875 97.054688 C 926.46875 101.082031 915.53125 96.042969 915.53125 94.796875 C 915.53125 89.695312 901.863281 99.445312 901.863281 100.886719 C 901.863281 104.3125 890.238281 86.875 890.238281 91.652344 C 890.238281 98.671875 878.117188 89.953125 878.117188 88.703125 C 878.117188 87.605469 867.65625 82.136719 867.65625 81.339844 C 867.65625 84.765625 856.09375 78.542969 856.09375 78.390625 C 856.09375 77.789062 843.652344 71.914062 843.652344 82.222656 C 843.652344 81.339844 832.652344 72.042969 832.652344 72.128906 C 832.652344 73.871094 820.960938 80.007812 820.960938 78.132812 C 820.960938 78.929688 809.511719 79.574219 809.511719 80.027344 C 809.511719 81.339844 797.132812 80.070312 797.132812 79.597656 C 797.132812 78.867188 786.972656 96.5625 786.972656 88.617188 C 786.972656 84.828125 775.691406 98.21875 775.691406 95.742188 C 775.691406 95.054688 762.539062 87.972656 761.933594 88.703125 C 760.644531 86.960938 752.441406 89.15625 751.042969 87.28125 C 748.804688 91.242188 739.246094 85.195312 738.320312 83.515625 C 737.136719 94.796875 728.480469 83.128906 726.867188 78.328125 C 724.800781 82.847656 720.96875 83.667969 719.074219 83.085938 L 719.074219 -92.210938 Z M 1440 -92.210938 " fill-opacity="1" fill-rule="nonzero"/></g><g clip-path="url(#f3245125e4)"><path fill="#e1a10b" d="M 0 -80.695312 L 0 65.21875 C 2.238281 66.292969 4.21875 68.703125 4.390625 73.011719 C 4.304688 73.355469 14.855469 70.105469 15.628906 69.542969 C 13.710938 69.457031 28.609375 67.285156 26.542969 65.496094 C 27.230469 65.582031 37.21875 63.816406 37.5 61.859375 C 40.492188 67.046875 51.621094 73.054688 49.125 63.429688 C 50.71875 66.464844 59.222656 61.601562 60.148438 62.804688 C 59.523438 59.75 71.019531 61.128906 71.535156 63.195312 C 69.984375 57.960938 82.40625 64.570312 82.40625 58.523438 C 82.40625 61.859375 94.417969 68.1875 94.417969 66.402344 C 94.417969 61.707031 104.773438 49.71875 104.773438 56.070312 C 104.773438 56.777344 116.589844 65.347656 116.589844 61.6875 C 116.589844 60.566406 125.742188 69.007812 125.742188 55.703125 C 125.742188 50.878906 135.429688 53.292969 135.429688 57.917969 C 135.429688 59.234375 143.953125 68.726562 143.953125 62.761719 C 143.953125 61.515625 156.632812 58.09375 156.632812 66.25 C 156.632812 72.621094 169.375 71.074219 169.375 71.460938 C 169.375 73.570312 181.410156 74.34375 181.410156 75.65625 C 181.410156 73.9375 193.140625 67.691406 193.140625 71.4375 C 193.140625 71.09375 204.078125 71.117188 204.078125 65.734375 C 204.078125 63.324219 215.488281 69.714844 215.488281 64.9375 C 215.488281 63.582031 226.769531 63.625 226.769531 60.761719 C 226.769531 64.871094 238.175781 66.679688 238.175781 68.167969 C 238.175781 63.472656 249.910156 53.207031 249.910156 61.019531 C 249.910156 64.65625 260.265625 72.234375 260.265625 71.957031 C 260.265625 65.433594 271.738281 78.757812 271.738281 70.640625 C 271.738281 68.402344 282.78125 72.644531 282.78125 72.753906 C 282.78125 67.113281 293.007812 76.109375 293.007812 78.800781 C 293.007812 86.679688 305.019531 75.054688 305.019531 76.453125 C 305.019531 77.917969 316.191406 69.78125 316.191406 78.285156 C 316.191406 82.308594 325.621094 94.539062 325.621094 86.917969 C 325.621094 91.996094 336.730469 88.144531 336.730469 88.917969 C 336.730469 86.292969 349.558594 90.511719 349.558594 84.484375 C 349.558594 86.832031 359.460938 88.660156 359.460938 91.222656 C 359.460938 87.433594 371.28125 95.421875 371.28125 90.511719 C 371.28125 92.6875 382.515625 90.941406 382.515625 91.867188 C 382.515625 91.242188 392.828125 92.945312 392.828125 97.292969 C 392.828125 94.558594 403.636719 98.886719 403.636719 99.53125 C 403.636719 99.726562 413.925781 102.351562 413.925781 104.933594 C 413.925781 100.972656 424.863281 109.757812 424.863281 106.980469 C 424.863281 104.503906 435.882812 104.03125 435.882812 108.445312 C 435.882812 107.777344 447.378906 108.078125 447.378906 105.34375 C 447.378906 107.648438 458.335938 105.453125 458.335938 106.808594 C 458.335938 109.671875 469.121094 108.53125 469.121094 111.886719 C 469.121094 112.855469 480.207031 113.375 480.207031 113.847656 C 480.207031 119.679688 491.421875 104.398438 491.421875 109.132812 C 491.421875 107.042969 502.554688 112.726562 502.554688 114.0625 C 502.554688 116.238281 513.53125 101.707031 513.53125 108.574219 C 513.53125 112.597656 524.46875 107.5625 524.46875 106.3125 C 524.46875 101.210938 538.136719 110.960938 538.136719 112.40625 C 538.136719 115.828125 549.761719 98.390625 549.761719 103.171875 C 549.761719 110.1875 561.882812 101.46875 561.882812 100.222656 C 561.882812 99.121094 572.34375 93.65625 572.34375 92.859375 C 572.34375 96.28125 583.90625 90.058594 583.90625 89.910156 C 583.90625 89.304688 596.347656 83.429688 596.347656 93.742188 C 596.347656 92.859375 607.347656 83.558594 607.347656 83.644531 C 607.347656 85.386719 619.039062 91.523438 619.039062 89.652344 C 619.039062 90.449219 630.488281 91.09375 630.488281 91.546875 C 630.488281 92.859375 642.867188 91.589844 642.867188 91.113281 C 642.867188 90.382812 653.027344 108.078125 653.027344 100.132812 C 653.027344 96.347656 664.308594 109.734375 664.308594 107.261719 C 664.308594 106.570312 677.460938 99.488281 678.066406 100.222656 C 679.355469 98.476562 687.558594 100.671875 688.957031 98.800781 C 691.195312 102.761719 700.753906 96.710938 701.679688 95.03125 C 702.863281 106.3125 711.519531 94.644531 713.132812 89.84375 C 715.199219 94.367188 719.03125 95.183594 720.925781 94.601562 L 720.925781 -80.695312 Z M 0 -80.695312 " fill-opacity="1" fill-rule="nonzero"/></g><g clip-path="url(#229f38065c)"><path fill="#294122" d="M 0 -92.210938 L 0 53.699219 C 2.238281 54.777344 4.21875 57.1875 4.390625 61.492188 C 4.304688 61.835938 14.855469 58.585938 15.628906 58.027344 C 13.710938 57.941406 28.609375 55.765625 26.542969 53.980469 C 27.230469 54.066406 37.21875 52.300781 37.5 50.34375 C 40.492188 55.53125 51.621094 61.535156 49.125 51.914062 C 50.71875 54.949219 59.222656 50.082031 60.148438 51.289062 C 59.523438 48.234375 71.019531 49.609375 71.535156 51.675781 C 69.984375 46.445312 82.40625 53.054688 82.40625 47.003906 C 82.40625 50.34375 94.417969 56.671875 94.417969 54.882812 C 94.417969 50.191406 104.773438 38.199219 104.773438 44.550781 C 104.773438 45.261719 116.589844 53.828125 116.589844 50.171875 C 116.589844 49.050781 125.742188 57.488281 125.742188 44.183594 C 125.742188 39.363281 135.429688 41.773438 135.429688 46.402344 C 135.429688 47.714844 143.953125 57.210938 143.953125 51.246094 C 143.953125 49.996094 156.632812 46.574219 156.632812 54.734375 C 156.632812 61.105469 169.375 59.554688 169.375 59.941406 C 169.375 62.054688 181.410156 62.828125 181.410156 64.140625 C 181.410156 62.417969 193.140625 56.175781 193.140625 59.921875 C 193.140625 59.578125 204.078125 59.597656 204.078125 54.21875 C 204.078125 51.804688 215.488281 58.199219 215.488281 53.421875 C 215.488281 52.0625 226.769531 52.105469 226.769531 49.246094 C 226.769531 53.355469 238.175781 55.164062 238.175781 56.648438 C 238.175781 51.957031 249.910156 41.6875 249.910156 49.503906 C 249.910156 53.140625 260.265625 60.71875 260.265625 60.4375 C 260.265625 53.914062 271.738281 67.242188 271.738281 59.125 C 271.738281 56.886719 282.78125 61.128906 282.78125 61.234375 C 282.78125 55.59375 293.007812 64.59375 293.007812 67.285156 C 293.007812 75.164062 305.019531 63.539062 305.019531 64.9375 C 305.019531 66.402344 316.191406 58.265625 316.191406 66.765625 C 316.191406 70.792969 325.621094 83.019531 325.621094 75.398438 C 325.621094 80.480469 336.730469 76.625 336.730469 77.402344 C 336.730469 74.777344 349.558594 78.996094 349.558594 72.96875 C 349.558594 75.3125 359.460938 77.144531 359.460938 79.707031 C 359.460938 75.917969 371.28125 83.902344 371.28125 78.996094 C 371.28125 81.167969 382.515625 79.425781 382.515625 80.351562 C 382.515625 79.726562 392.828125 81.425781 392.828125 85.777344 C 392.828125 83.042969 403.636719 87.367188 403.636719 88.015625 C 403.636719 88.207031 413.925781 90.835938 413.925781 93.417969 C 413.925781 89.457031 424.863281 98.242188 424.863281 95.464844 C 424.863281 92.988281 435.882812 92.515625 435.882812 96.925781 C 435.882812 96.257812 447.378906 96.5625 447.378906 93.828125 C 447.378906 96.128906 458.335938 93.933594 458.335938 95.289062 C 458.335938 98.152344 469.121094 97.011719 469.121094 100.371094 C 469.121094 101.339844 480.207031 101.855469 480.207031 102.332031 C 480.207031 108.164062 491.421875 92.878906 491.421875 97.617188 C 491.421875 95.527344 502.554688 101.210938 502.554688 102.546875 C 502.554688 104.71875 513.53125 90.1875 513.53125 97.054688 C 513.53125 101.082031 524.46875 96.042969 524.46875 94.796875 C 524.46875 89.695312 538.136719 99.445312 538.136719 100.886719 C 538.136719 104.3125 549.761719 86.875 549.761719 91.652344 C 549.761719 98.671875 561.882812 89.953125 561.882812 88.703125 C 561.882812 87.605469 572.34375 82.136719 572.34375 81.339844 C 572.34375 84.765625 583.90625 78.542969 583.90625 78.390625 C 583.90625 77.789062 596.347656 71.914062 596.347656 82.222656 C 596.347656 81.339844 607.347656 72.042969 607.347656 72.128906 C 607.347656 73.871094 619.039062 80.007812 619.039062 78.132812 C 619.039062 78.929688 630.488281 79.574219 630.488281 80.027344 C 630.488281 81.339844 642.867188 80.070312 642.867188 79.597656 C 642.867188 78.867188 653.027344 96.5625 653.027344 88.617188 C 653.027344 84.828125 664.308594 98.21875 664.308594 95.742188 C 664.308594 95.054688 677.460938 87.972656 678.066406 88.703125 C 679.355469 86.960938 687.558594 89.15625 688.957031 87.28125 C 691.195312 91.242188 700.753906 85.195312 701.679688 83.515625 C 702.863281 94.796875 711.519531 83.128906 713.132812 78.328125 C 715.199219 82.847656 719.03125 83.667969 720.925781 83.085938 L 720.925781 -92.210938 Z M 0 -92.210938 " fill-opacity="1" fill-rule="nonzero"/></g><g clip-path="url(#5cf9a402a1)"><path fill="#294122" d="M 0 -24.261719 L 1439.96875 -24.261719 L 1439.96875 27.109375 L 0 27.109375 Z M 0 -24.261719 " fill-opacity="1" fill-rule="nonzero"/></g><g clip-path="url(#28589e9d58)"><path fill="#294122" d="M 1440 -83.902344 L 1440 62.011719 C 1437.761719 63.085938 1435.78125 65.496094 1435.609375 69.804688 C 1435.695312 70.148438 1425.144531 66.898438 1424.371094 66.335938 C 1426.285156 66.25 1411.390625 64.078125 1413.457031 62.289062 C 1412.769531 62.375 1402.777344 60.609375 1402.5 58.652344 C 1399.507812 63.839844 1388.378906 69.847656 1390.875 60.222656 C 1389.28125 63.257812 1380.777344 58.394531 1379.851562 59.597656 C 1380.476562 56.542969 1368.980469 57.917969 1368.464844 59.988281 C 1370.015625 54.753906 1357.59375 61.363281 1357.59375 55.316406 C 1357.59375 58.652344 1345.582031 64.980469 1345.582031 63.195312 C 1345.582031 58.5 1335.226562 46.511719 1335.226562 52.859375 C 1335.226562 53.570312 1323.410156 62.140625 1323.410156 58.480469 C 1323.410156 57.359375 1314.257812 65.796875 1314.257812 52.496094 C 1314.257812 47.671875 1304.570312 50.082031 1304.570312 54.710938 C 1304.570312 56.027344 1296.046875 65.519531 1296.046875 59.554688 C 1296.046875 58.308594 1283.367188 54.882812 1283.367188 63.042969 C 1283.367188 69.414062 1270.625 67.867188 1270.625 68.253906 C 1270.625 70.363281 1258.589844 71.136719 1258.589844 72.449219 C 1258.589844 70.726562 1246.859375 64.484375 1246.859375 68.230469 C 1246.859375 67.886719 1235.921875 67.910156 1235.921875 62.527344 C 1235.921875 60.117188 1224.511719 66.507812 1224.511719 61.730469 C 1224.511719 60.375 1213.230469 60.417969 1213.230469 57.554688 C 1213.230469 61.664062 1201.824219 63.472656 1201.824219 64.960938 C 1201.824219 60.265625 1190.089844 49.996094 1190.089844 57.8125 C 1190.089844 61.449219 1179.734375 69.027344 1179.734375 68.746094 C 1179.734375 62.226562 1168.261719 75.550781 1168.261719 67.433594 C 1168.261719 65.195312 1157.21875 69.4375 1157.21875 69.542969 C 1157.21875 63.90625 1146.992188 72.902344 1146.992188 75.59375 C 1146.992188 83.472656 1134.980469 71.847656 1134.980469 73.246094 C 1134.980469 74.710938 1123.808594 66.574219 1123.808594 75.078125 C 1123.808594 79.101562 1114.378906 91.332031 1114.378906 83.710938 C 1114.378906 88.789062 1103.269531 84.9375 1103.269531 85.710938 C 1103.269531 83.085938 1090.441406 87.304688 1090.441406 81.277344 C 1090.441406 83.625 1080.539062 85.453125 1080.539062 88.015625 C 1080.539062 84.226562 1068.71875 92.210938 1068.71875 87.304688 C 1068.71875 89.480469 1057.480469 87.734375 1057.480469 88.660156 C 1057.480469 88.035156 1047.171875 89.738281 1047.171875 94.085938 C 1047.171875 91.351562 1036.363281 95.679688 1036.363281 96.324219 C 1036.363281 96.519531 1026.074219 99.144531 1026.074219 101.726562 C 1026.074219 97.765625 1015.136719 106.550781 1015.136719 103.773438 C 1015.136719 101.296875 1004.117188 100.824219 1004.117188 105.238281 C 1004.117188 104.570312 992.621094 104.871094 992.621094 102.136719 C 992.621094 104.441406 981.664062 102.246094 981.664062 103.601562 C 981.664062 106.464844 970.878906 105.324219 970.878906 108.679688 C 970.878906 109.648438 959.792969 110.167969 959.792969 110.640625 C 959.792969 116.472656 948.574219 101.191406 948.574219 105.925781 C 948.574219 103.835938 937.445312 109.519531 937.445312 110.855469 C 937.445312 113.03125 926.46875 98.5 926.46875 105.367188 C 926.46875 109.390625 915.53125 104.355469 915.53125 103.105469 C 915.53125 98.003906 901.863281 107.753906 901.863281 109.199219 C 901.863281 112.621094 890.238281 95.183594 890.238281 99.960938 C 890.238281 106.980469 878.117188 98.261719 878.117188 97.011719 C 878.117188 95.914062 867.65625 90.449219 867.65625 89.652344 C 867.65625 93.074219 856.09375 86.851562 856.09375 86.703125 C 856.09375 86.097656 843.652344 80.222656 843.652344 90.535156 C 843.652344 89.652344 832.652344 80.351562 832.652344 80.4375 C 832.652344 82.179688 820.960938 88.316406 820.960938 86.441406 C 820.960938 87.238281 809.511719 87.886719 809.511719 88.335938 C 809.511719 89.652344 797.132812 88.378906 797.132812 87.90625 C 797.132812 87.175781 786.972656 104.871094 786.972656 96.925781 C 786.972656 93.136719 775.691406 106.527344 775.691406 104.050781 C 775.691406 103.363281 762.539062 96.28125 761.933594 97.011719 C 760.644531 95.269531 752.441406 97.464844 751.042969 95.59375 C 748.804688 99.554688 739.246094 93.503906 738.320312 91.824219 C 737.136719 103.105469 728.480469 91.4375 726.867188 86.636719 C 724.800781 91.15625 720.96875 91.976562 719.074219 91.394531 L 719.074219 -83.902344 Z M 1440 -83.902344 " fill-opacity="1" fill-rule="nonzero"/></g><g clip-path="url(#5748c7187f)"><path fill="#294122" d="M 1440 -95.417969 L 1440 50.492188 C 1437.761719 51.570312 1435.78125 53.980469 1435.609375 58.285156 C 1435.695312 58.628906 1425.144531 55.378906 1424.371094 54.820312 C 1426.285156 54.734375 1411.390625 52.558594 1413.457031 50.773438 C 1412.769531 50.859375 1402.777344 49.09375 1402.5 47.132812 C 1399.507812 52.324219 1388.378906 58.328125 1390.875 48.707031 C 1389.28125 51.742188 1380.777344 46.875 1379.851562 48.082031 C 1380.476562 45.023438 1368.980469 46.402344 1368.464844 48.46875 C 1370.015625 43.238281 1357.59375 49.847656 1357.59375 43.796875 C 1357.59375 47.132812 1345.582031 53.464844 1345.582031 51.675781 C 1345.582031 46.984375 1335.226562 34.992188 1335.226562 41.34375 C 1335.226562 42.054688 1323.410156 50.621094 1323.410156 46.960938 C 1323.410156 45.84375 1314.257812 54.28125 1314.257812 40.976562 C 1314.257812 36.15625 1304.570312 38.566406 1304.570312 43.195312 C 1304.570312 44.507812 1296.046875 54 1296.046875 48.039062 C 1296.046875 46.789062 1283.367188 43.367188 1283.367188 51.527344 C 1283.367188 57.898438 1270.625 56.347656 1270.625 56.734375 C 1270.625 58.84375 1258.589844 59.621094 1258.589844 60.933594 C 1258.589844 59.210938 1246.859375 52.96875 1246.859375 56.714844 C 1246.859375 56.371094 1235.921875 56.390625 1235.921875 51.007812 C 1235.921875 48.597656 1224.511719 54.992188 1224.511719 50.214844 C 1224.511719 48.855469 1213.230469 48.898438 1213.230469 46.035156 C 1213.230469 50.148438 1201.824219 51.957031 1201.824219 53.441406 C 1201.824219 48.75 1190.089844 38.480469 1190.089844 46.296875 C 1190.089844 49.933594 1179.734375 57.511719 1179.734375 57.230469 C 1179.734375 50.707031 1168.261719 64.035156 1168.261719 55.917969 C 1168.261719 53.679688 1157.21875 57.917969 1157.21875 58.027344 C 1157.21875 52.386719 1146.992188 61.386719 1146.992188 64.078125 C 1146.992188 71.957031 1134.980469 60.332031 1134.980469 61.730469 C 1134.980469 63.195312 1123.808594 55.058594 1123.808594 63.558594 C 1123.808594 67.585938 1114.378906 79.8125 1114.378906 72.191406 C 1114.378906 77.273438 1103.269531 73.417969 1103.269531 74.195312 C 1103.269531 71.566406 1090.441406 75.789062 1090.441406 69.761719 C 1090.441406 72.105469 1080.539062 73.9375 1080.539062 76.496094 C 1080.539062 72.710938 1068.71875 80.695312 1068.71875 75.789062 C 1068.71875 77.960938 1057.480469 76.21875 1057.480469 77.144531 C 1057.480469 76.519531 1047.171875 78.21875 1047.171875 82.570312 C 1047.171875 79.835938 1036.363281 84.160156 1036.363281 84.808594 C 1036.363281 85 1026.074219 87.628906 1026.074219 90.210938 C 1026.074219 86.25 1015.136719 95.03125 1015.136719 92.253906 C 1015.136719 89.78125 1004.117188 89.304688 1004.117188 93.71875 C 1004.117188 93.050781 992.621094 93.355469 992.621094 90.621094 C 992.621094 92.921875 981.664062 90.726562 981.664062 92.082031 C 981.664062 94.945312 970.878906 93.804688 970.878906 97.164062 C 970.878906 98.132812 959.792969 98.648438 959.792969 99.121094 C 959.792969 104.957031 948.574219 89.671875 948.574219 94.410156 C 948.574219 92.320312 937.445312 98.003906 937.445312 99.339844 C 937.445312 101.511719 926.46875 86.980469 926.46875 93.847656 C 926.46875 97.875 915.53125 92.835938 915.53125 91.589844 C 915.53125 86.488281 901.863281 96.238281 901.863281 97.679688 C 901.863281 101.101562 890.238281 83.667969 890.238281 88.445312 C 890.238281 95.464844 878.117188 86.746094 878.117188 85.496094 C 878.117188 84.398438 867.65625 78.929688 867.65625 78.132812 C 867.65625 81.558594 856.09375 75.335938 856.09375 75.183594 C 856.09375 74.582031 843.652344 68.703125 843.652344 79.015625 C 843.652344 78.132812 832.652344 68.835938 832.652344 68.921875 C 832.652344 70.664062 820.960938 76.800781 820.960938 74.925781 C 820.960938 75.722656 809.511719 76.367188 809.511719 76.820312 C 809.511719 78.132812 797.132812 76.863281 797.132812 76.390625 C 797.132812 75.660156 786.972656 93.355469 786.972656 85.410156 C 786.972656 81.621094 775.691406 95.011719 775.691406 92.535156 C 775.691406 91.847656 762.539062 84.765625 761.933594 85.496094 C 760.644531 83.753906 752.441406 85.949219 751.042969 84.074219 C 748.804688 88.035156 739.246094 81.988281 738.320312 80.308594 C 737.136719 91.589844 728.480469 79.921875 726.867188 75.121094 C 724.800781 79.640625 720.96875 80.457031 719.074219 79.878906 L 719.074219 -95.417969 Z M 1440 -95.417969 " fill-opacity="1" fill-rule="nonzero"/></g><g clip-path="url(#4fb1227bc8)"><path fill="#294122" d="M 0 -83.902344 L 0 62.011719 C 2.238281 63.085938 4.21875 65.496094 4.390625 69.804688 C 4.304688 70.148438 14.855469 66.898438 15.628906 66.335938 C 13.710938 66.25 28.609375 64.078125 26.542969 62.289062 C 27.230469 62.375 37.21875 60.609375 37.5 58.652344 C 40.492188 63.839844 51.621094 69.847656 49.125 60.222656 C 50.71875 63.257812 59.222656 58.394531 60.148438 59.597656 C 59.523438 56.542969 71.019531 57.917969 71.535156 59.988281 C 69.984375 54.753906 82.40625 61.363281 82.40625 55.316406 C 82.40625 58.652344 94.417969 64.980469 94.417969 63.195312 C 94.417969 58.5 104.773438 46.511719 104.773438 52.859375 C 104.773438 53.570312 116.589844 62.140625 116.589844 58.480469 C 116.589844 57.359375 125.742188 65.796875 125.742188 52.496094 C 125.742188 47.671875 135.429688 50.082031 135.429688 54.710938 C 135.429688 56.027344 143.953125 65.519531 143.953125 59.554688 C 143.953125 58.308594 156.632812 54.882812 156.632812 63.042969 C 156.632812 69.414062 169.375 67.867188 169.375 68.253906 C 169.375 70.363281 181.410156 71.136719 181.410156 72.449219 C 181.410156 70.730469 193.140625 64.484375 193.140625 68.230469 C 193.140625 67.886719 204.078125 67.910156 204.078125 62.527344 C 204.078125 60.117188 215.488281 66.507812 215.488281 61.730469 C 215.488281 60.375 226.769531 60.417969 226.769531 57.554688 C 226.769531 61.664062 238.175781 63.472656 238.175781 64.960938 C 238.175781 60.265625 249.910156 49.996094 249.910156 57.8125 C 249.910156 61.449219 260.265625 69.027344 260.265625 68.746094 C 260.265625 62.226562 271.738281 75.550781 271.738281 67.433594 C 271.738281 65.195312 282.78125 69.4375 282.78125 69.542969 C 282.78125 63.90625 293.007812 72.902344 293.007812 75.59375 C 293.007812 83.472656 305.019531 71.847656 305.019531 73.246094 C 305.019531 74.710938 316.191406 66.574219 316.191406 75.078125 C 316.191406 79.101562 325.621094 91.332031 325.621094 83.710938 C 325.621094 88.789062 336.730469 84.9375 336.730469 85.710938 C 336.730469 83.085938 349.558594 87.304688 349.558594 81.277344 C 349.558594 83.625 359.460938 85.453125 359.460938 88.015625 C 359.460938 84.226562 371.28125 92.210938 371.28125 87.304688 C 371.28125 89.480469 382.515625 87.734375 382.515625 88.660156 C 382.515625 88.035156 392.828125 89.738281 392.828125 94.085938 C 392.828125 91.351562 403.636719 95.679688 403.636719 96.324219 C 403.636719 96.519531 413.925781 99.144531 413.925781 101.726562 C 413.925781 97.765625 424.863281 106.550781 424.863281 103.773438 C 424.863281 101.296875 435.882812 100.824219 435.882812 105.238281 C 435.882812 104.570312 447.378906 104.871094 447.378906 102.136719 C 447.378906 104.441406 458.335938 102.246094 458.335938 103.601562 C 458.335938 106.464844 469.121094 105.324219 469.121094 108.679688 C 469.121094 109.648438 480.207031 110.167969 480.207031 110.640625 C 480.207031 116.472656 491.421875 101.191406 491.421875 105.925781 C 491.421875 103.835938 502.554688 109.519531 502.554688 110.855469 C 502.554688 113.03125 513.53125 98.5 513.53125 105.367188 C 513.53125 109.390625 524.46875 104.355469 524.46875 103.105469 C 524.46875 98.003906 538.136719 107.753906 538.136719 109.199219 C 538.136719 112.621094 549.761719 95.183594 549.761719 99.960938 C 549.761719 106.980469 561.882812 98.261719 561.882812 97.011719 C 561.882812 95.914062 572.34375 90.449219 572.34375 89.652344 C 572.34375 93.074219 583.90625 86.851562 583.90625 86.703125 C 583.90625 86.097656 596.347656 80.222656 596.347656 90.535156 C 596.347656 89.652344 607.347656 80.351562 607.347656 80.4375 C 607.347656 82.179688 619.039062 88.316406 619.039062 86.445312 C 619.039062 87.238281 630.488281 87.886719 630.488281 88.335938 C 630.488281 89.652344 642.867188 88.378906 642.867188 87.90625 C 642.867188 87.175781 653.027344 104.871094 653.027344 96.925781 C 653.027344 93.136719 664.308594 106.527344 664.308594 104.050781 C 664.308594 103.363281 677.460938 96.28125 678.066406 97.011719 C 679.355469 95.269531 687.558594 97.464844 688.957031 95.59375 C 691.195312 99.554688 700.753906 93.503906 701.679688 91.824219 C 702.863281 103.105469 711.519531 91.4375 713.132812 86.636719 C 715.199219 91.15625 719.03125 91.976562 720.925781 91.394531 L 720.925781 -83.902344 Z M 0 -83.902344 " fill-opacity="1" fill-rule="nonzero"/></g><g clip-path="url(#bd9130bcf6)"><path fill="#294122" d="M 0 -95.417969 L 0 50.492188 C 2.238281 51.570312 4.21875 53.980469 4.390625 58.285156 C 4.304688 58.628906 14.855469 55.378906 15.628906 54.820312 C 13.710938 54.734375 28.609375 52.558594 26.542969 50.773438 C 27.230469 50.859375 37.21875 49.09375 37.5 47.132812 C 40.492188 52.324219 51.621094 58.328125 49.125 48.707031 C 50.71875 51.742188 59.222656 46.875 60.148438 48.082031 C 59.523438 45.023438 71.019531 46.402344 71.535156 48.46875 C 69.984375 43.238281 82.40625 49.847656 82.40625 43.796875 C 82.40625 47.132812 94.417969 53.464844 94.417969 51.675781 C 94.417969 46.984375 104.773438 34.992188 104.773438 41.34375 C 104.773438 42.054688 116.589844 50.621094 116.589844 46.960938 C 116.589844 45.84375 125.742188 54.28125 125.742188 40.976562 C 125.742188 36.15625 135.429688 38.566406 135.429688 43.195312 C 135.429688 44.507812 143.953125 54 143.953125 48.039062 C 143.953125 46.789062 156.632812 43.367188 156.632812 51.527344 C 156.632812 57.898438 169.375 56.347656 169.375 56.734375 C 169.375 58.84375 181.410156 59.621094 181.410156 60.933594 C 181.410156 59.210938 193.140625 52.96875 193.140625 56.714844 C 193.140625 56.371094 204.078125 56.390625 204.078125 51.007812 C 204.078125 48.597656 215.488281 54.992188 215.488281 50.214844 C 215.488281 48.855469 226.769531 48.898438 226.769531 46.035156 C 226.769531 50.148438 238.175781 51.957031 238.175781 53.441406 C 238.175781 48.75 249.910156 38.480469 249.910156 46.296875 C 249.910156 49.933594 260.265625 57.511719 260.265625 57.230469 C 260.265625 50.707031 271.738281 64.035156 271.738281 55.917969 C 271.738281 53.679688 282.78125 57.917969 282.78125 58.027344 C 282.78125 52.386719 293.007812 61.386719 293.007812 64.078125 C 293.007812 71.957031 305.019531 60.332031 305.019531 61.730469 C 305.019531 63.195312 316.191406 55.058594 316.191406 63.558594 C 316.191406 67.585938 325.621094 79.8125 325.621094 72.191406 C 325.621094 77.273438 336.730469 73.417969 336.730469 74.195312 C 336.730469 71.566406 349.558594 75.789062 349.558594 69.761719 C 349.558594 72.105469 359.460938 73.9375 359.460938 76.496094 C 359.460938 72.710938 371.28125 80.695312 371.28125 75.789062 C 371.28125 77.960938 382.515625 76.21875 382.515625 77.144531 C 382.515625 76.519531 392.828125 78.21875 392.828125 82.570312 C 392.828125 79.835938 403.636719 84.160156 403.636719 84.808594 C 403.636719 85 413.925781 87.628906 413.925781 90.210938 C 413.925781 86.25 424.863281 95.03125 424.863281 92.253906 C 424.863281 89.78125 435.882812 89.304688 435.882812 93.71875 C 435.882812 93.050781 447.378906 93.355469 447.378906 90.621094 C 447.378906 92.921875 458.335938 90.726562 458.335938 92.082031 C 458.335938 94.945312 469.121094 93.804688 469.121094 97.164062 C 469.121094 98.132812 480.207031 98.648438 480.207031 99.121094 C 480.207031 104.957031 491.421875 89.671875 491.421875 94.410156 C 491.421875 92.320312 502.554688 98.003906 502.554688 99.339844 C 502.554688 101.511719 513.53125 86.980469 513.53125 93.847656 C 513.53125 97.875 524.46875 92.835938 524.46875 91.589844 C 524.46875 86.488281 538.136719 96.238281 538.136719 97.679688 C 538.136719 101.101562 549.761719 83.667969 549.761719 88.445312 C 549.761719 95.464844 561.882812 86.746094 561.882812 85.496094 C 561.882812 84.398438 572.34375 78.929688 572.34375 78.132812 C 572.34375 81.558594 583.90625 75.335938 583.90625 75.183594 C 583.90625 74.582031 596.347656 68.703125 596.347656 79.015625 C 596.347656 78.132812 607.347656 68.835938 607.347656 68.921875 C 607.347656 70.664062 619.039062 76.800781 619.039062 74.925781 C 619.039062 75.722656 630.488281 76.367188 630.488281 76.820312 C 630.488281 78.132812 642.867188 76.863281 642.867188 76.390625 C 642.867188 75.660156 653.027344 93.355469 653.027344 85.410156 C 653.027344 81.621094 664.308594 95.011719 664.308594 92.535156 C 664.308594 91.847656 677.460938 84.765625 678.066406 85.496094 C 679.355469 83.753906 687.558594 85.949219 688.957031 84.074219 C 691.195312 88.035156 700.753906 81.988281 701.679688 80.308594 C 702.863281 91.589844 711.519531 79.921875 713.132812 75.121094 C 715.199219 79.640625 719.03125 80.457031 720.925781 79.878906 L 720.925781 -95.417969 Z M 0 -95.417969 " fill-opacity="1" fill-rule="nonzero"/></g></svg>