<svg xmlns="http://www.w3.org/2000/svg" xmlns:xlink="http://www.w3.org/1999/xlink" width="1920" zoomAndPan="magnify" viewBox="0 0 1440 809.999993" height="1080" preserveAspectRatio="xMidYMid meet" version="1.0"><defs><clipPath id="9fe4a9b535"><path d="M 0 788.824219 L 1440 788.824219 L 1440 810 L 0 810 Z M 0 788.824219 " clip-rule="nonzero"/></clipPath><clipPath id="60326e6aa3"><path d="M 0 703 L 720.945312 703 L 720.945312 791.035156 L 0 791.035156 Z M 0 703 " clip-rule="nonzero"/></clipPath><clipPath id="42f4bb18e0"><path d="M 0 715 L 720.945312 715 L 720.945312 791.035156 L 0 791.035156 Z M 0 715 " clip-rule="nonzero"/></clipPath><clipPath id="d6ddcabbe0"><path d="M 719.054688 703 L 1440 703 L 1440 791.035156 L 719.054688 791.035156 Z M 719.054688 703 " clip-rule="nonzero"/></clipPath><clipPath id="f6e1cffa0f"><path d="M 719.054688 715 L 1440 715 L 1440 791.035156 L 719.054688 791.035156 Z M 719.054688 715 " clip-rule="nonzero"/></clipPath><clipPath id="8bbaf79d54"><path d="M 0 792.035156 L 1440 792.035156 L 1440 810 L 0 810 Z M 0 792.035156 " clip-rule="nonzero"/></clipPath><clipPath id="ccc56a0064"><path d="M 0 707 L 720.945312 707 L 720.945312 794.242188 L 0 794.242188 Z M 0 707 " clip-rule="nonzero"/></clipPath><clipPath id="bfac1f738f"><path d="M 0 718 L 720.945312 718 L 720.945312 794.242188 L 0 794.242188 Z M 0 718 " clip-rule="nonzero"/></clipPath><clipPath id="d8bbed53a9"><path d="M 719.054688 707 L 1440 707 L 1440 794.242188 L 719.054688 794.242188 Z M 719.054688 707 " clip-rule="nonzero"/></clipPath><clipPath id="e47adc3dad"><path d="M 719.054688 718 L 1440 718 L 1440 794.242188 L 719.054688 794.242188 Z M 719.054688 718 " clip-rule="nonzero"/></clipPath></defs><g clip-path="url(#9fe4a9b535)"><path fill="#294122" d="M 1440 840.195312 L 0.03125 840.195312 L 0.03125 788.824219 L 1440 788.824219 Z M 1440 840.195312 " fill-opacity="1" fill-rule="nonzero"/></g><g clip-path="url(#60326e6aa3)"><path fill="#e1a10b" d="M 0 899.835938 L 0 753.925781 C 2.238281 752.851562 4.21875 750.4375 4.390625 746.132812 C 4.304688 745.789062 14.855469 749.039062 15.628906 749.597656 C 13.714844 749.683594 28.609375 751.859375 26.542969 753.644531 C 27.230469 753.558594 37.21875 755.324219 37.5 757.285156 C 40.492188 752.097656 51.621094 746.089844 49.125 755.710938 C 50.71875 752.675781 59.222656 757.542969 60.148438 756.335938 C 59.523438 759.394531 71.019531 758.015625 71.535156 755.949219 C 69.984375 761.179688 82.40625 754.570312 82.40625 760.621094 C 82.40625 757.285156 94.417969 750.957031 94.417969 752.742188 C 94.417969 757.433594 104.773438 769.425781 104.773438 763.074219 C 104.773438 762.363281 116.589844 753.796875 116.589844 757.457031 C 116.589844 758.574219 125.742188 750.136719 125.742188 763.441406 C 125.742188 768.261719 135.429688 765.851562 135.429688 761.222656 C 135.429688 759.910156 143.953125 750.417969 143.953125 756.378906 C 143.953125 757.628906 156.632812 761.050781 156.632812 752.894531 C 156.632812 746.519531 169.375 748.070312 169.375 747.683594 C 169.375 745.574219 181.410156 744.796875 181.410156 743.484375 C 181.410156 745.207031 193.140625 751.449219 193.140625 747.703125 C 193.140625 748.050781 204.078125 748.027344 204.078125 753.410156 C 204.078125 755.820312 215.488281 749.425781 215.488281 754.207031 C 215.488281 755.5625 226.769531 755.519531 226.769531 758.382812 C 226.769531 754.269531 238.175781 752.460938 238.175781 750.976562 C 238.175781 755.667969 249.910156 765.9375 249.910156 758.125 C 249.910156 754.484375 260.265625 746.90625 260.265625 747.1875 C 260.265625 753.710938 271.738281 740.386719 271.738281 748.5 C 271.738281 750.738281 282.78125 746.5 282.78125 746.390625 C 282.78125 752.03125 293.007812 743.035156 293.007812 740.34375 C 293.007812 732.464844 305.019531 744.089844 305.019531 742.6875 C 305.019531 741.226562 316.191406 749.363281 316.191406 740.859375 C 316.191406 736.832031 325.621094 724.605469 325.621094 732.226562 C 325.621094 727.144531 336.730469 731 336.730469 730.222656 C 336.730469 732.851562 349.558594 728.632812 349.558594 734.660156 C 349.558594 732.3125 359.460938 730.484375 359.460938 727.921875 C 359.460938 731.710938 371.28125 723.722656 371.28125 728.632812 C 371.28125 726.457031 382.519531 728.199219 382.519531 727.273438 C 382.519531 727.898438 392.828125 726.199219 392.828125 721.851562 C 392.828125 724.585938 403.636719 720.257812 403.636719 719.613281 C 403.636719 719.417969 413.925781 716.792969 413.925781 714.207031 C 413.925781 718.167969 424.863281 709.386719 424.863281 712.164062 C 424.863281 714.640625 435.882812 715.113281 435.882812 710.699219 C 435.882812 711.367188 447.378906 711.066406 447.378906 713.800781 C 447.378906 711.496094 458.335938 713.691406 458.335938 712.335938 C 458.335938 709.472656 469.121094 710.613281 469.121094 707.253906 C 469.121094 706.285156 480.207031 705.769531 480.207031 705.296875 C 480.207031 699.460938 491.425781 714.746094 491.425781 710.011719 C 491.425781 712.097656 502.554688 706.414062 502.554688 705.082031 C 502.554688 702.90625 513.53125 717.4375 513.53125 710.570312 C 513.53125 706.542969 524.46875 711.582031 524.46875 712.832031 C 524.46875 717.933594 538.136719 708.179688 538.136719 706.738281 C 538.136719 703.316406 549.761719 720.753906 549.761719 715.972656 C 549.761719 708.957031 561.882812 717.675781 561.882812 718.921875 C 561.882812 720.019531 572.34375 725.488281 572.34375 726.285156 C 572.34375 722.863281 583.90625 729.082031 583.90625 729.234375 C 583.90625 729.835938 596.347656 735.714844 596.347656 725.402344 C 596.347656 726.285156 607.347656 735.585938 607.347656 735.5 C 607.347656 733.753906 619.039062 727.621094 619.039062 729.492188 C 619.039062 728.695312 630.488281 728.050781 630.488281 727.597656 C 630.488281 726.285156 642.867188 727.554688 642.867188 728.027344 C 642.867188 728.761719 653.027344 711.066406 653.027344 719.007812 C 653.027344 722.796875 664.308594 709.40625 664.308594 711.882812 C 664.308594 712.570312 677.460938 719.65625 678.066406 718.921875 C 679.355469 720.667969 687.558594 718.46875 688.957031 720.34375 C 691.195312 716.382812 700.753906 722.433594 701.679688 724.109375 C 702.863281 712.832031 711.519531 724.5 713.132812 729.300781 C 715.199219 724.777344 719.03125 723.960938 720.925781 724.542969 L 720.925781 899.835938 Z M 0 899.835938 " fill-opacity="1" fill-rule="nonzero"/></g><g clip-path="url(#42f4bb18e0)"><path fill="#294122" d="M 0 911.355469 L 0 765.441406 C 2.238281 764.367188 4.21875 761.957031 4.390625 757.648438 C 4.304688 757.304688 14.855469 760.554688 15.628906 761.117188 C 13.714844 761.203125 28.609375 763.375 26.542969 765.164062 C 27.230469 765.078125 37.21875 766.84375 37.5 768.800781 C 40.492188 763.613281 51.621094 757.605469 49.125 767.230469 C 50.71875 764.195312 59.222656 769.058594 60.148438 767.855469 C 59.523438 770.910156 71.019531 769.535156 71.535156 767.464844 C 69.984375 772.699219 82.40625 766.089844 82.40625 772.136719 C 82.40625 768.800781 94.417969 762.472656 94.417969 764.257812 C 94.417969 768.953125 104.773438 780.941406 104.773438 774.59375 C 104.773438 773.882812 116.589844 765.3125 116.589844 768.972656 C 116.589844 770.09375 125.742188 761.652344 125.742188 774.957031 C 125.742188 779.78125 135.429688 777.371094 135.429688 772.742188 C 135.429688 771.425781 143.953125 761.933594 143.953125 767.898438 C 143.953125 769.144531 156.632812 772.570312 156.632812 764.410156 C 156.632812 758.039062 169.375 759.585938 169.375 759.199219 C 169.375 757.089844 181.410156 756.316406 181.410156 755.003906 C 181.410156 756.722656 193.140625 762.96875 193.140625 759.222656 C 193.140625 759.566406 204.078125 759.542969 204.078125 764.925781 C 204.078125 767.335938 215.488281 760.945312 215.488281 765.722656 C 215.488281 767.078125 226.769531 767.035156 226.769531 769.898438 C 226.769531 765.789062 238.175781 763.980469 238.175781 762.492188 C 238.175781 767.1875 249.910156 777.457031 249.910156 769.640625 C 249.910156 766.003906 260.265625 758.425781 260.265625 758.703125 C 260.265625 765.226562 271.738281 751.902344 271.738281 760.019531 C 271.738281 762.257812 282.78125 758.015625 282.78125 757.910156 C 282.78125 763.546875 293.007812 754.550781 293.007812 751.859375 C 293.007812 743.980469 305.019531 755.605469 305.019531 754.207031 C 305.019531 752.742188 316.191406 760.878906 316.191406 752.375 C 316.191406 748.351562 325.621094 736.121094 325.621094 743.742188 C 325.621094 738.664062 336.730469 742.515625 336.730469 741.742188 C 336.730469 744.367188 349.558594 740.148438 349.558594 746.175781 C 349.558594 743.828125 359.460938 742 359.460938 739.4375 C 359.460938 743.226562 371.28125 735.242188 371.28125 740.148438 C 371.28125 737.972656 382.519531 739.71875 382.519531 738.792969 C 382.519531 739.417969 392.828125 737.714844 392.828125 733.367188 C 392.828125 736.101562 403.636719 731.773438 403.636719 731.128906 C 403.636719 730.933594 413.925781 728.308594 413.925781 725.726562 C 413.925781 729.6875 424.863281 720.902344 424.863281 723.679688 C 424.863281 726.15625 435.882812 726.628906 435.882812 722.214844 C 435.882812 722.882812 447.378906 722.582031 447.378906 725.316406 C 447.378906 723.011719 458.335938 725.207031 458.335938 723.851562 C 458.335938 720.988281 469.121094 722.128906 469.121094 718.773438 C 469.121094 717.804688 480.207031 717.285156 480.207031 716.8125 C 480.207031 710.980469 491.425781 726.261719 491.425781 721.527344 C 491.425781 723.617188 502.554688 717.933594 502.554688 716.597656 C 502.554688 714.421875 513.53125 728.953125 513.53125 722.085938 C 513.53125 718.0625 524.46875 723.097656 524.46875 724.347656 C 524.46875 729.449219 538.136719 719.699219 538.136719 718.253906 C 538.136719 714.832031 549.761719 732.269531 549.761719 727.492188 C 549.761719 720.472656 561.882812 729.191406 561.882812 730.441406 C 561.882812 731.539062 572.34375 737.003906 572.34375 737.800781 C 572.34375 734.378906 583.90625 740.601562 583.90625 740.75 C 583.90625 741.355469 596.347656 747.230469 596.347656 736.917969 C 596.347656 737.800781 607.347656 747.101562 607.347656 747.015625 C 607.347656 745.273438 619.039062 739.136719 619.039062 741.007812 C 619.039062 740.214844 630.488281 739.566406 630.488281 739.117188 C 630.488281 737.800781 642.867188 739.070312 642.867188 739.546875 C 642.867188 740.277344 653.027344 722.582031 653.027344 730.527344 C 653.027344 734.316406 664.308594 720.925781 664.308594 723.402344 C 664.308594 724.089844 677.460938 731.171875 678.066406 730.441406 C 679.355469 732.183594 687.558594 729.988281 688.957031 731.859375 C 691.195312 727.898438 700.753906 733.949219 701.679688 735.628906 C 702.863281 724.347656 711.519531 736.015625 713.132812 740.816406 C 715.199219 736.296875 719.03125 735.476562 720.925781 736.058594 L 720.925781 911.355469 Z M 0 911.355469 " fill-opacity="1" fill-rule="nonzero"/></g><g clip-path="url(#d6ddcabbe0)"><path fill="#e1a10b" d="M 1440 899.835938 L 1440 753.925781 C 1437.761719 752.851562 1435.78125 750.4375 1435.609375 746.132812 C 1435.695312 745.789062 1425.144531 749.039062 1424.371094 749.597656 C 1426.285156 749.683594 1411.390625 751.859375 1413.457031 753.644531 C 1412.769531 753.558594 1402.78125 755.324219 1402.5 757.285156 C 1399.507812 752.097656 1388.378906 746.089844 1390.875 755.710938 C 1389.28125 752.675781 1380.777344 757.542969 1379.851562 756.335938 C 1380.476562 759.394531 1368.980469 758.015625 1368.464844 755.949219 C 1370.015625 761.179688 1357.59375 754.570312 1357.59375 760.621094 C 1357.59375 757.285156 1345.582031 750.957031 1345.582031 752.742188 C 1345.582031 757.433594 1335.226562 769.425781 1335.226562 763.074219 C 1335.226562 762.363281 1323.410156 753.796875 1323.410156 757.457031 C 1323.410156 758.574219 1314.257812 750.136719 1314.257812 763.441406 C 1314.257812 768.261719 1304.570312 765.851562 1304.570312 761.222656 C 1304.570312 759.910156 1296.046875 750.417969 1296.046875 756.378906 C 1296.046875 757.628906 1283.367188 761.050781 1283.367188 752.894531 C 1283.367188 746.519531 1270.625 748.070312 1270.625 747.683594 C 1270.625 745.574219 1258.589844 744.796875 1258.589844 743.484375 C 1258.589844 745.207031 1246.859375 751.449219 1246.859375 747.703125 C 1246.859375 748.050781 1235.921875 748.027344 1235.921875 753.410156 C 1235.921875 755.820312 1224.511719 749.425781 1224.511719 754.207031 C 1224.511719 755.5625 1213.230469 755.519531 1213.230469 758.382812 C 1213.230469 754.269531 1201.824219 752.460938 1201.824219 750.976562 C 1201.824219 755.667969 1190.089844 765.9375 1190.089844 758.125 C 1190.089844 754.484375 1179.734375 746.90625 1179.734375 747.1875 C 1179.734375 753.710938 1168.261719 740.386719 1168.261719 748.5 C 1168.261719 750.738281 1157.21875 746.5 1157.21875 746.390625 C 1157.21875 752.03125 1146.992188 743.035156 1146.992188 740.34375 C 1146.992188 732.464844 1134.980469 744.089844 1134.980469 742.6875 C 1134.980469 741.226562 1123.808594 749.363281 1123.808594 740.859375 C 1123.808594 736.832031 1114.378906 724.605469 1114.378906 732.226562 C 1114.378906 727.144531 1103.269531 731 1103.269531 730.222656 C 1103.269531 732.851562 1090.441406 728.632812 1090.441406 734.660156 C 1090.441406 732.3125 1080.539062 730.484375 1080.539062 727.921875 C 1080.539062 731.710938 1068.71875 723.722656 1068.71875 728.632812 C 1068.71875 726.457031 1057.480469 728.199219 1057.480469 727.273438 C 1057.480469 727.898438 1047.171875 726.199219 1047.171875 721.851562 C 1047.171875 724.585938 1036.363281 720.257812 1036.363281 719.613281 C 1036.363281 719.417969 1026.074219 716.792969 1026.074219 714.207031 C 1026.074219 718.167969 1015.136719 709.386719 1015.136719 712.164062 C 1015.136719 714.640625 1004.117188 715.113281 1004.117188 710.699219 C 1004.117188 711.367188 992.621094 711.066406 992.621094 713.800781 C 992.621094 711.496094 981.664062 713.691406 981.664062 712.335938 C 981.664062 709.472656 970.878906 710.613281 970.878906 707.253906 C 970.878906 706.285156 959.792969 705.769531 959.792969 705.296875 C 959.792969 699.460938 948.574219 714.746094 948.574219 710.011719 C 948.574219 712.097656 937.445312 706.414062 937.445312 705.082031 C 937.445312 702.90625 926.46875 717.4375 926.46875 710.570312 C 926.46875 706.542969 915.53125 711.582031 915.53125 712.832031 C 915.53125 717.933594 901.863281 708.179688 901.863281 706.738281 C 901.863281 703.316406 890.238281 720.753906 890.238281 715.972656 C 890.238281 708.957031 878.117188 717.675781 878.117188 718.921875 C 878.117188 720.019531 867.65625 725.488281 867.65625 726.285156 C 867.65625 722.863281 856.09375 729.082031 856.09375 729.234375 C 856.09375 729.835938 843.652344 735.714844 843.652344 725.402344 C 843.652344 726.285156 832.652344 735.585938 832.652344 735.5 C 832.652344 733.753906 820.960938 727.621094 820.960938 729.492188 C 820.960938 728.695312 809.511719 728.050781 809.511719 727.597656 C 809.511719 726.285156 797.132812 727.554688 797.132812 728.027344 C 797.132812 728.761719 786.972656 711.066406 786.972656 719.007812 C 786.972656 722.796875 775.691406 709.40625 775.691406 711.882812 C 775.691406 712.570312 762.539062 719.65625 761.933594 718.921875 C 760.644531 720.667969 752.441406 718.46875 751.042969 720.34375 C 748.804688 716.382812 739.246094 722.433594 738.320312 724.109375 C 737.136719 712.832031 728.480469 724.5 726.867188 729.300781 C 724.800781 724.777344 720.96875 723.960938 719.074219 724.542969 L 719.074219 899.835938 Z M 1440 899.835938 " fill-opacity="1" fill-rule="nonzero"/></g><g clip-path="url(#f6e1cffa0f)"><path fill="#294122" d="M 1440 911.355469 L 1440 765.441406 C 1437.761719 764.367188 1435.78125 761.957031 1435.609375 757.648438 C 1435.695312 757.304688 1425.144531 760.554688 1424.371094 761.117188 C 1426.285156 761.203125 1411.390625 763.375 1413.457031 765.164062 C 1412.769531 765.078125 1402.78125 766.84375 1402.5 768.800781 C 1399.507812 763.613281 1388.378906 757.605469 1390.875 767.230469 C 1389.28125 764.195312 1380.777344 769.058594 1379.851562 767.855469 C 1380.476562 770.910156 1368.980469 769.535156 1368.464844 767.464844 C 1370.015625 772.699219 1357.59375 766.089844 1357.59375 772.136719 C 1357.59375 768.800781 1345.582031 762.472656 1345.582031 764.257812 C 1345.582031 768.953125 1335.226562 780.941406 1335.226562 774.59375 C 1335.226562 773.882812 1323.410156 765.3125 1323.410156 768.972656 C 1323.410156 770.09375 1314.257812 761.652344 1314.257812 774.957031 C 1314.257812 779.78125 1304.570312 777.371094 1304.570312 772.742188 C 1304.570312 771.425781 1296.046875 761.933594 1296.046875 767.898438 C 1296.046875 769.144531 1283.367188 772.570312 1283.367188 764.410156 C 1283.367188 758.039062 1270.625 759.585938 1270.625 759.199219 C 1270.625 757.089844 1258.589844 756.316406 1258.589844 755.003906 C 1258.589844 756.722656 1246.859375 762.96875 1246.859375 759.222656 C 1246.859375 759.566406 1235.921875 759.542969 1235.921875 764.925781 C 1235.921875 767.335938 1224.511719 760.945312 1224.511719 765.722656 C 1224.511719 767.078125 1213.230469 767.035156 1213.230469 769.898438 C 1213.230469 765.789062 1201.824219 763.980469 1201.824219 762.492188 C 1201.824219 767.1875 1190.089844 777.457031 1190.089844 769.640625 C 1190.089844 766.003906 1179.734375 758.425781 1179.734375 758.703125 C 1179.734375 765.226562 1168.261719 751.902344 1168.261719 760.019531 C 1168.261719 762.257812 1157.21875 758.015625 1157.21875 757.910156 C 1157.21875 763.546875 1146.992188 754.550781 1146.992188 751.859375 C 1146.992188 743.980469 1134.980469 755.605469 1134.980469 754.207031 C 1134.980469 752.742188 1123.808594 760.878906 1123.808594 752.375 C 1123.808594 748.351562 1114.378906 736.121094 1114.378906 743.742188 C 1114.378906 738.664062 1103.269531 742.515625 1103.269531 741.742188 C 1103.269531 744.367188 1090.441406 740.148438 1090.441406 746.175781 C 1090.441406 743.828125 1080.539062 742 1080.539062 739.4375 C 1080.539062 743.226562 1068.71875 735.242188 1068.71875 740.148438 C 1068.71875 737.972656 1057.480469 739.71875 1057.480469 738.792969 C 1057.480469 739.417969 1047.171875 737.714844 1047.171875 733.367188 C 1047.171875 736.101562 1036.363281 731.773438 1036.363281 731.128906 C 1036.363281 730.933594 1026.074219 728.308594 1026.074219 725.726562 C 1026.074219 729.6875 1015.136719 720.902344 1015.136719 723.679688 C 1015.136719 726.15625 1004.117188 726.628906 1004.117188 722.214844 C 1004.117188 722.882812 992.621094 722.582031 992.621094 725.316406 C 992.621094 723.011719 981.664062 725.207031 981.664062 723.851562 C 981.664062 720.988281 970.878906 722.128906 970.878906 718.773438 C 970.878906 717.804688 959.792969 717.285156 959.792969 716.8125 C 959.792969 710.980469 948.574219 726.261719 948.574219 721.527344 C 948.574219 723.617188 937.445312 717.933594 937.445312 716.597656 C 937.445312 714.421875 926.46875 728.953125 926.46875 722.085938 C 926.46875 718.0625 915.53125 723.097656 915.53125 724.347656 C 915.53125 729.449219 901.863281 719.699219 901.863281 718.253906 C 901.863281 714.832031 890.238281 732.269531 890.238281 727.492188 C 890.238281 720.472656 878.117188 729.191406 878.117188 730.441406 C 878.117188 731.539062 867.65625 737.003906 867.65625 737.800781 C 867.65625 734.378906 856.09375 740.601562 856.09375 740.75 C 856.09375 741.355469 843.652344 747.230469 843.652344 736.917969 C 843.652344 737.800781 832.652344 747.101562 832.652344 747.015625 C 832.652344 745.273438 820.960938 739.136719 820.960938 741.007812 C 820.960938 740.214844 809.511719 739.566406 809.511719 739.117188 C 809.511719 737.800781 797.132812 739.070312 797.132812 739.546875 C 797.132812 740.277344 786.972656 722.582031 786.972656 730.527344 C 786.972656 734.316406 775.691406 720.925781 775.691406 723.402344 C 775.691406 724.089844 762.539062 731.171875 761.933594 730.441406 C 760.644531 732.183594 752.441406 729.988281 751.042969 731.859375 C 748.804688 727.898438 739.246094 733.949219 738.320312 735.628906 C 737.136719 724.347656 728.480469 736.015625 726.867188 740.816406 C 724.800781 736.296875 720.96875 735.476562 719.074219 736.058594 L 719.074219 911.355469 Z M 1440 911.355469 " fill-opacity="1" fill-rule="nonzero"/></g><g clip-path="url(#8bbaf79d54)"><path fill="#294122" d="M 1440 843.402344 L 0.03125 843.402344 L 0.03125 792.035156 L 1440 792.035156 Z M 1440 843.402344 " fill-opacity="1" fill-rule="nonzero"/></g><g clip-path="url(#ccc56a0064)"><path fill="#294122" d="M 0 903.046875 L 0 757.132812 C 2.238281 756.058594 4.21875 753.644531 4.390625 749.339844 C 4.304688 748.996094 14.855469 752.246094 15.628906 752.804688 C 13.714844 752.890625 28.609375 755.066406 26.542969 756.855469 C 27.230469 756.765625 37.21875 758.53125 37.5 760.492188 C 40.492188 755.304688 51.621094 749.296875 49.125 758.921875 C 50.71875 755.886719 59.222656 760.75 60.148438 759.542969 C 59.523438 762.601562 71.019531 761.222656 71.535156 759.15625 C 69.984375 764.386719 82.40625 757.777344 82.40625 763.828125 C 82.40625 760.492188 94.417969 754.164062 94.417969 755.949219 C 94.417969 760.640625 104.773438 772.632812 104.773438 766.28125 C 104.773438 765.570312 116.589844 757.003906 116.589844 760.664062 C 116.589844 761.785156 125.742188 753.34375 125.742188 766.648438 C 125.742188 771.46875 135.429688 769.058594 135.429688 764.429688 C 135.429688 763.117188 143.953125 753.625 143.953125 759.585938 C 143.953125 760.835938 156.632812 764.257812 156.632812 756.101562 C 156.632812 749.726562 169.375 751.277344 169.375 750.890625 C 169.375 748.78125 181.410156 748.007812 181.410156 746.691406 C 181.410156 748.414062 193.140625 754.65625 193.140625 750.910156 C 193.140625 751.257812 204.078125 751.234375 204.078125 756.617188 C 204.078125 759.027344 215.488281 752.632812 215.488281 757.414062 C 215.488281 758.769531 226.769531 758.726562 226.769531 761.589844 C 226.769531 757.476562 238.175781 755.667969 238.175781 754.183594 C 238.175781 758.878906 249.910156 769.144531 249.910156 761.332031 C 249.910156 757.691406 260.265625 750.117188 260.265625 750.394531 C 260.265625 756.917969 271.738281 743.59375 271.738281 751.707031 C 271.738281 753.949219 282.78125 749.707031 282.78125 749.597656 C 282.78125 755.238281 293.007812 746.242188 293.007812 743.550781 C 293.007812 735.671875 305.019531 747.296875 305.019531 745.894531 C 305.019531 744.433594 316.191406 752.570312 316.191406 744.066406 C 316.191406 740.039062 325.621094 727.8125 325.621094 735.433594 C 325.621094 730.355469 336.730469 734.207031 336.730469 733.433594 C 336.730469 736.058594 349.558594 731.839844 349.558594 737.867188 C 349.558594 735.519531 359.460938 733.691406 359.460938 731.128906 C 359.460938 734.917969 371.28125 726.929688 371.28125 731.839844 C 371.28125 729.664062 382.519531 731.410156 382.519531 730.484375 C 382.519531 731.105469 392.828125 729.40625 392.828125 725.058594 C 392.828125 727.792969 403.636719 723.464844 403.636719 722.820312 C 403.636719 722.625 413.925781 720 413.925781 717.414062 C 413.925781 721.375 424.863281 712.59375 424.863281 715.371094 C 424.863281 717.847656 435.882812 718.320312 435.882812 713.90625 C 435.882812 714.574219 447.378906 714.273438 447.378906 717.007812 C 447.378906 714.703125 458.335938 716.898438 458.335938 715.542969 C 458.335938 712.679688 469.121094 713.820312 469.121094 710.460938 C 469.121094 709.492188 480.207031 708.976562 480.207031 708.503906 C 480.207031 702.667969 491.425781 717.953125 491.425781 713.21875 C 491.425781 715.304688 502.554688 709.621094 502.554688 708.289062 C 502.554688 706.113281 513.53125 720.644531 513.53125 713.777344 C 513.53125 709.753906 524.46875 714.789062 524.46875 716.039062 C 524.46875 721.140625 538.136719 711.386719 538.136719 709.945312 C 538.136719 706.523438 549.761719 723.960938 549.761719 719.179688 C 549.761719 712.164062 561.882812 720.882812 561.882812 722.128906 C 561.882812 723.226562 572.34375 728.695312 572.34375 729.492188 C 572.34375 726.070312 583.90625 732.289062 583.90625 732.441406 C 583.90625 733.042969 596.347656 738.921875 596.347656 728.609375 C 596.347656 729.492188 607.347656 738.792969 607.347656 738.707031 C 607.347656 736.960938 619.039062 730.828125 619.039062 732.699219 C 619.039062 731.902344 630.488281 731.257812 630.488281 730.804688 C 630.488281 729.492188 642.867188 730.761719 642.867188 731.234375 C 642.867188 731.96875 653.027344 714.273438 653.027344 722.214844 C 653.027344 726.003906 664.308594 712.613281 664.308594 715.089844 C 664.308594 715.78125 677.460938 722.863281 678.066406 722.128906 C 679.355469 723.875 687.558594 721.679688 688.957031 723.550781 C 691.195312 719.589844 700.753906 725.640625 701.679688 727.316406 C 702.863281 716.039062 711.519531 727.707031 713.132812 732.507812 C 715.199219 727.984375 719.03125 727.167969 720.925781 727.75 L 720.925781 903.046875 Z M 0 903.046875 " fill-opacity="1" fill-rule="nonzero"/></g><g clip-path="url(#bfac1f738f)"><path fill="#294122" d="M 0 914.5625 L 0 768.652344 C 2.238281 767.574219 4.21875 765.164062 4.390625 760.859375 C 4.304688 760.511719 14.855469 763.765625 15.628906 764.324219 C 13.714844 764.410156 28.609375 766.582031 26.542969 768.371094 C 27.230469 768.285156 37.21875 770.050781 37.5 772.007812 C 40.492188 766.820312 51.621094 760.816406 49.125 770.4375 C 50.71875 767.402344 59.222656 772.265625 60.148438 771.0625 C 59.523438 774.117188 71.019531 772.742188 71.535156 770.675781 C 69.984375 775.90625 82.40625 769.296875 82.40625 775.34375 C 82.40625 772.007812 94.417969 765.679688 94.417969 767.464844 C 94.417969 772.160156 104.773438 784.148438 104.773438 777.800781 C 104.773438 777.089844 116.589844 768.519531 116.589844 772.179688 C 116.589844 773.300781 125.742188 764.863281 125.742188 778.164062 C 125.742188 782.988281 135.429688 780.578125 135.429688 775.949219 C 135.429688 774.636719 143.953125 765.140625 143.953125 771.105469 C 143.953125 772.351562 156.632812 775.777344 156.632812 767.617188 C 156.632812 761.246094 169.375 762.796875 169.375 762.40625 C 169.375 760.296875 181.410156 759.523438 181.410156 758.210938 C 181.410156 759.933594 193.140625 766.175781 193.140625 762.429688 C 193.140625 762.773438 204.078125 762.753906 204.078125 768.132812 C 204.078125 770.542969 215.488281 764.152344 215.488281 768.929688 C 215.488281 770.285156 226.769531 770.242188 226.769531 773.105469 C 226.769531 768.996094 238.175781 767.1875 238.175781 765.703125 C 238.175781 770.394531 249.910156 780.664062 249.910156 772.847656 C 249.910156 769.210938 260.265625 761.632812 260.265625 761.914062 C 260.265625 768.433594 271.738281 755.109375 271.738281 763.226562 C 271.738281 765.464844 282.78125 761.222656 282.78125 761.117188 C 282.78125 766.757812 293.007812 757.757812 293.007812 755.066406 C 293.007812 747.1875 305.019531 758.8125 305.019531 757.414062 C 305.019531 755.949219 316.191406 764.085938 316.191406 755.582031 C 316.191406 751.558594 325.621094 739.332031 325.621094 746.949219 C 325.621094 741.871094 336.730469 745.722656 336.730469 744.949219 C 336.730469 747.574219 349.558594 743.355469 349.558594 749.382812 C 349.558594 747.039062 359.460938 745.207031 359.460938 742.644531 C 359.460938 746.433594 371.28125 738.449219 371.28125 743.355469 C 371.28125 741.183594 382.519531 742.925781 382.519531 742 C 382.519531 742.625 392.828125 740.921875 392.828125 736.574219 C 392.828125 739.308594 403.636719 734.980469 403.636719 734.335938 C 403.636719 734.140625 413.925781 731.515625 413.925781 728.933594 C 413.925781 732.894531 424.863281 724.109375 424.863281 726.886719 C 424.863281 729.363281 435.882812 729.835938 435.882812 725.421875 C 435.882812 726.089844 447.378906 725.789062 447.378906 728.523438 C 447.378906 726.21875 458.335938 728.417969 458.335938 727.058594 C 458.335938 724.195312 469.121094 725.335938 469.121094 721.980469 C 469.121094 721.011719 480.207031 720.492188 480.207031 720.019531 C 480.207031 714.1875 491.425781 729.472656 491.425781 724.734375 C 491.425781 726.824219 502.554688 721.140625 502.554688 719.804688 C 502.554688 717.632812 513.53125 732.160156 513.53125 725.292969 C 513.53125 721.269531 524.46875 726.304688 524.46875 727.554688 C 524.46875 732.65625 538.136719 722.90625 538.136719 721.460938 C 538.136719 718.039062 549.761719 735.476562 549.761719 730.699219 C 549.761719 723.679688 561.882812 732.398438 561.882812 733.648438 C 561.882812 734.746094 572.34375 740.214844 572.34375 741.007812 C 572.34375 737.585938 583.90625 743.808594 583.90625 743.957031 C 583.90625 744.5625 596.347656 750.4375 596.347656 740.125 C 596.347656 741.007812 607.347656 750.308594 607.347656 750.222656 C 607.347656 748.480469 619.039062 742.34375 619.039062 744.21875 C 619.039062 743.421875 630.488281 742.773438 630.488281 742.324219 C 630.488281 741.007812 642.867188 742.28125 642.867188 742.753906 C 642.867188 743.484375 653.027344 725.789062 653.027344 733.734375 C 653.027344 737.523438 664.308594 724.132812 664.308594 726.609375 C 664.308594 727.296875 677.460938 734.378906 678.066406 733.648438 C 679.355469 735.390625 687.558594 733.195312 688.957031 735.066406 C 691.195312 731.105469 700.753906 737.15625 701.679688 738.835938 C 702.863281 727.554688 711.519531 739.222656 713.132812 744.023438 C 715.199219 739.503906 719.03125 738.683594 720.925781 739.265625 L 720.925781 914.5625 Z M 0 914.5625 " fill-opacity="1" fill-rule="nonzero"/></g><g clip-path="url(#d8bbed53a9)"><path fill="#294122" d="M 1440 903.046875 L 1440 757.132812 C 1437.761719 756.058594 1435.78125 753.644531 1435.609375 749.339844 C 1435.695312 748.996094 1425.144531 752.246094 1424.371094 752.804688 C 1426.285156 752.890625 1411.390625 755.066406 1413.457031 756.855469 C 1412.769531 756.765625 1402.78125 758.53125 1402.5 760.492188 C 1399.507812 755.304688 1388.378906 749.296875 1390.875 758.921875 C 1389.28125 755.886719 1380.777344 760.75 1379.851562 759.542969 C 1380.476562 762.601562 1368.980469 761.222656 1368.464844 759.15625 C 1370.015625 764.386719 1357.59375 757.777344 1357.59375 763.828125 C 1357.59375 760.492188 1345.582031 754.164062 1345.582031 755.949219 C 1345.582031 760.640625 1335.226562 772.632812 1335.226562 766.28125 C 1335.226562 765.570312 1323.410156 757.003906 1323.410156 760.664062 C 1323.410156 761.785156 1314.257812 753.34375 1314.257812 766.648438 C 1314.257812 771.46875 1304.570312 769.058594 1304.570312 764.429688 C 1304.570312 763.117188 1296.046875 753.625 1296.046875 759.585938 C 1296.046875 760.835938 1283.367188 764.257812 1283.367188 756.101562 C 1283.367188 749.726562 1270.625 751.277344 1270.625 750.890625 C 1270.625 748.78125 1258.589844 748.003906 1258.589844 746.691406 C 1258.589844 748.414062 1246.859375 754.65625 1246.859375 750.910156 C 1246.859375 751.257812 1235.921875 751.234375 1235.921875 756.617188 C 1235.921875 759.027344 1224.511719 752.632812 1224.511719 757.414062 C 1224.511719 758.769531 1213.230469 758.726562 1213.230469 761.589844 C 1213.230469 757.476562 1201.824219 755.667969 1201.824219 754.183594 C 1201.824219 758.878906 1190.089844 769.144531 1190.089844 761.332031 C 1190.089844 757.691406 1179.734375 750.117188 1179.734375 750.394531 C 1179.734375 756.917969 1168.261719 743.59375 1168.261719 751.707031 C 1168.261719 753.949219 1157.21875 749.707031 1157.21875 749.597656 C 1157.21875 755.238281 1146.992188 746.242188 1146.992188 743.550781 C 1146.992188 735.671875 1134.980469 747.296875 1134.980469 745.894531 C 1134.980469 744.433594 1123.808594 752.570312 1123.808594 744.066406 C 1123.808594 740.039062 1114.378906 727.8125 1114.378906 735.433594 C 1114.378906 730.351562 1103.269531 734.207031 1103.269531 733.433594 C 1103.269531 736.058594 1090.441406 731.839844 1090.441406 737.867188 C 1090.441406 735.519531 1080.539062 733.691406 1080.539062 731.128906 C 1080.539062 734.917969 1068.71875 726.929688 1068.71875 731.839844 C 1068.71875 729.664062 1057.480469 731.410156 1057.480469 730.484375 C 1057.480469 731.105469 1047.171875 729.40625 1047.171875 725.058594 C 1047.171875 727.792969 1036.363281 723.464844 1036.363281 722.820312 C 1036.363281 722.625 1026.074219 720 1026.074219 717.414062 C 1026.074219 721.375 1015.136719 712.59375 1015.136719 715.371094 C 1015.136719 717.847656 1004.117188 718.320312 1004.117188 713.90625 C 1004.117188 714.574219 992.621094 714.273438 992.621094 717.007812 C 992.621094 714.703125 981.664062 716.898438 981.664062 715.542969 C 981.664062 712.679688 970.878906 713.820312 970.878906 710.460938 C 970.878906 709.492188 959.792969 708.976562 959.792969 708.503906 C 959.792969 702.667969 948.574219 717.953125 948.574219 713.21875 C 948.574219 715.304688 937.445312 709.621094 937.445312 708.289062 C 937.445312 706.113281 926.46875 720.644531 926.46875 713.777344 C 926.46875 709.753906 915.53125 714.789062 915.53125 716.039062 C 915.53125 721.140625 901.863281 711.386719 901.863281 709.945312 C 901.863281 706.523438 890.238281 723.960938 890.238281 719.179688 C 890.238281 712.164062 878.117188 720.882812 878.117188 722.128906 C 878.117188 723.226562 867.65625 728.695312 867.65625 729.492188 C 867.65625 726.070312 856.09375 732.289062 856.09375 732.441406 C 856.09375 733.042969 843.652344 738.921875 843.652344 728.609375 C 843.652344 729.492188 832.652344 738.792969 832.652344 738.707031 C 832.652344 736.960938 820.960938 730.828125 820.960938 732.699219 C 820.960938 731.902344 809.511719 731.257812 809.511719 730.804688 C 809.511719 729.492188 797.132812 730.761719 797.132812 731.234375 C 797.132812 731.96875 786.972656 714.273438 786.972656 722.214844 C 786.972656 726.003906 775.691406 712.613281 775.691406 715.089844 C 775.691406 715.78125 762.539062 722.863281 761.933594 722.128906 C 760.644531 723.875 752.441406 721.679688 751.042969 723.550781 C 748.804688 719.589844 739.246094 725.640625 738.320312 727.316406 C 737.136719 716.039062 728.480469 727.707031 726.867188 732.507812 C 724.800781 727.984375 720.96875 727.167969 719.074219 727.75 L 719.074219 903.046875 Z M 1440 903.046875 " fill-opacity="1" fill-rule="nonzero"/></g><g clip-path="url(#e47adc3dad)"><path fill="#294122" d="M 1440 914.5625 L 1440 768.652344 C 1437.761719 767.574219 1435.78125 765.164062 1435.609375 760.859375 C 1435.695312 760.511719 1425.144531 763.765625 1424.371094 764.324219 C 1426.285156 764.410156 1411.390625 766.582031 1413.457031 768.371094 C 1412.769531 768.285156 1402.78125 770.050781 1402.5 772.007812 C 1399.507812 766.820312 1388.378906 760.816406 1390.875 770.4375 C 1389.28125 767.402344 1380.777344 772.265625 1379.851562 771.0625 C 1380.476562 774.117188 1368.980469 772.742188 1368.464844 770.675781 C 1370.015625 775.90625 1357.59375 769.296875 1357.59375 775.34375 C 1357.59375 772.007812 1345.582031 765.679688 1345.582031 767.464844 C 1345.582031 772.160156 1335.226562 784.148438 1335.226562 777.800781 C 1335.226562 777.089844 1323.410156 768.519531 1323.410156 772.179688 C 1323.410156 773.300781 1314.257812 764.863281 1314.257812 778.164062 C 1314.257812 782.988281 1304.570312 780.578125 1304.570312 775.949219 C 1304.570312 774.636719 1296.046875 765.140625 1296.046875 771.105469 C 1296.046875 772.351562 1283.367188 775.777344 1283.367188 767.617188 C 1283.367188 761.246094 1270.625 762.796875 1270.625 762.40625 C 1270.625 760.296875 1258.589844 759.523438 1258.589844 758.210938 C 1258.589844 759.933594 1246.859375 766.175781 1246.859375 762.429688 C 1246.859375 762.773438 1235.921875 762.753906 1235.921875 768.132812 C 1235.921875 770.542969 1224.511719 764.152344 1224.511719 768.929688 C 1224.511719 770.285156 1213.230469 770.242188 1213.230469 773.105469 C 1213.230469 768.996094 1201.824219 767.1875 1201.824219 765.703125 C 1201.824219 770.394531 1190.089844 780.664062 1190.089844 772.847656 C 1190.089844 769.210938 1179.734375 761.632812 1179.734375 761.914062 C 1179.734375 768.433594 1168.261719 755.109375 1168.261719 763.226562 C 1168.261719 765.464844 1157.21875 761.222656 1157.21875 761.117188 C 1157.21875 766.757812 1146.992188 757.757812 1146.992188 755.066406 C 1146.992188 747.1875 1134.980469 758.8125 1134.980469 757.414062 C 1134.980469 755.949219 1123.808594 764.085938 1123.808594 755.582031 C 1123.808594 751.558594 1114.378906 739.332031 1114.378906 746.949219 C 1114.378906 741.871094 1103.269531 745.722656 1103.269531 744.949219 C 1103.269531 747.574219 1090.441406 743.355469 1090.441406 749.382812 C 1090.441406 747.039062 1080.539062 745.207031 1080.539062 742.644531 C 1080.539062 746.433594 1068.71875 738.449219 1068.71875 743.355469 C 1068.71875 741.183594 1057.480469 742.925781 1057.480469 742 C 1057.480469 742.625 1047.171875 740.921875 1047.171875 736.574219 C 1047.171875 739.308594 1036.363281 734.980469 1036.363281 734.335938 C 1036.363281 734.140625 1026.074219 731.515625 1026.074219 728.933594 C 1026.074219 732.894531 1015.136719 724.109375 1015.136719 726.886719 C 1015.136719 729.363281 1004.117188 729.835938 1004.117188 725.421875 C 1004.117188 726.089844 992.621094 725.789062 992.621094 728.523438 C 992.621094 726.21875 981.664062 728.417969 981.664062 727.058594 C 981.664062 724.195312 970.878906 725.335938 970.878906 721.980469 C 970.878906 721.011719 959.792969 720.492188 959.792969 720.019531 C 959.792969 714.1875 948.574219 729.472656 948.574219 724.734375 C 948.574219 726.824219 937.445312 721.140625 937.445312 719.804688 C 937.445312 717.632812 926.46875 732.160156 926.46875 725.292969 C 926.46875 721.269531 915.53125 726.304688 915.53125 727.554688 C 915.53125 732.65625 901.863281 722.90625 901.863281 721.460938 C 901.863281 718.039062 890.238281 735.476562 890.238281 730.699219 C 890.238281 723.679688 878.117188 732.398438 878.117188 733.648438 C 878.117188 734.746094 867.65625 740.214844 867.65625 741.007812 C 867.65625 737.585938 856.09375 743.808594 856.09375 743.957031 C 856.09375 744.5625 843.652344 750.4375 843.652344 740.125 C 843.652344 741.007812 832.652344 750.308594 832.652344 750.222656 C 832.652344 748.480469 820.960938 742.34375 820.960938 744.21875 C 820.960938 743.421875 809.511719 742.773438 809.511719 742.324219 C 809.511719 741.007812 797.132812 742.28125 797.132812 742.753906 C 797.132812 743.484375 786.972656 725.789062 786.972656 733.734375 C 786.972656 737.523438 775.691406 724.132812 775.691406 726.609375 C 775.691406 727.296875 762.539062 734.378906 761.933594 733.648438 C 760.644531 735.390625 752.441406 733.195312 751.042969 735.066406 C 748.804688 731.105469 739.246094 737.15625 738.320312 738.835938 C 737.136719 727.554688 728.480469 739.222656 726.867188 744.023438 C 724.800781 739.503906 720.96875 738.683594 719.074219 739.265625 L 719.074219 914.5625 Z M 1440 914.5625 " fill-opacity="1" fill-rule="nonzero"/></g></svg>