<svg xmlns="http://www.w3.org/2000/svg" xmlns:xlink="http://www.w3.org/1999/xlink" width="1920" zoomAndPan="magnify" viewBox="0 0 1440 809.999993" height="1080" preserveAspectRatio="xMidYMid meet" version="1.0"><defs><g/><clipPath id="86d8fa8881"><path d="M 371 45.164062 L 1143 45.164062 L 1143 746 L 371 746 Z M 371 45.164062 " clip-rule="nonzero"/></clipPath><clipPath id="f291205ac7"><path d="M 380.429688 53.765625 L 1132.742188 53.765625 L 1132.742188 736.855469 L 380.429688 736.855469 Z M 380.429688 53.765625 " clip-rule="nonzero"/></clipPath><clipPath id="88dc7cd420"><path d="M 493 132.285156 L 1020 132.285156 L 1020 658.71875 L 493 658.71875 Z M 493 132.285156 " clip-rule="nonzero"/></clipPath></defs><g clip-path="url(#86d8fa8881)"><path fill="#e1a10b" d="M 935.984375 164.800781 C 964.136719 167.914062 986.394531 191.347656 987.644531 220 L 1065.398438 220 C 1107.816406 220 1142.523438 254.703125 1142.523438 297.121094 L 1142.523438 493.660156 C 1142.523438 536.078125 1107.816406 570.785156 1065.398438 570.785156 L 987.644531 570.785156 C 986.394531 599.433594 964.136719 622.871094 935.984375 625.976562 C 939.234375 632.039062 941.078125 638.96875 941.078125 646.328125 C 941.078125 670.164062 921.753906 689.488281 897.917969 689.488281 C 893.402344 689.488281 889.046875 688.792969 884.960938 687.507812 C 878.230469 702.59375 863.109375 713.105469 845.527344 713.105469 C 816.628906 713.105469 786.65625 745.425781 756.761719 745.621094 C 726.867188 745.425781 696.894531 713.105469 667.996094 713.105469 C 650.417969 713.105469 635.292969 702.59375 628.5625 687.507812 C 624.472656 688.792969 620.121094 689.488281 615.605469 689.488281 C 591.769531 689.488281 572.445312 670.164062 572.445312 646.328125 C 572.445312 638.96875 574.289062 632.039062 577.539062 625.976562 C 549.386719 622.871094 527.128906 599.433594 525.878906 570.785156 L 448.125 570.785156 C 405.707031 570.785156 371.003906 536.078125 371.003906 493.660156 L 371.003906 297.121094 C 371.003906 254.703125 405.707031 220 448.125 220 L 525.878906 220 C 527.128906 191.347656 549.386719 167.914062 577.539062 164.800781 C 574.289062 158.742188 572.445312 151.8125 572.445312 144.453125 C 572.445312 120.617188 591.769531 101.292969 615.605469 101.292969 C 620.121094 101.292969 624.472656 101.984375 628.5625 103.273438 C 635.292969 88.191406 650.417969 77.675781 667.996094 77.675781 C 696.894531 77.675781 726.867188 45.355469 756.761719 45.160156 C 786.65625 45.355469 816.628906 77.675781 845.527344 77.675781 C 863.109375 77.675781 878.230469 88.191406 884.960938 103.273438 C 889.050781 101.984375 893.402344 101.292969 897.917969 101.292969 C 921.753906 101.292969 941.078125 120.617188 941.078125 144.453125 C 941.078125 151.8125 939.234375 158.742188 935.984375 164.800781 " fill-opacity="1" fill-rule="evenodd"/></g><g clip-path="url(#f291205ac7)"><path fill="#294122" d="M 931.582031 170.464844 C 959.042969 173.503906 980.753906 196.359375 981.972656 224.308594 L 1057.820312 224.308594 C 1099.195312 224.308594 1133.050781 258.160156 1133.050781 299.539062 L 1133.050781 491.253906 C 1133.050781 532.628906 1099.195312 566.484375 1057.820312 566.484375 L 981.972656 566.484375 C 980.753906 594.429688 959.042969 617.292969 931.582031 620.324219 C 934.75 626.238281 936.546875 632.996094 936.546875 640.175781 C 936.546875 663.425781 917.699219 682.277344 894.449219 682.277344 C 890.042969 682.277344 885.796875 681.597656 881.808594 680.34375 C 875.246094 695.058594 860.496094 705.3125 843.34375 705.3125 C 815.15625 705.3125 785.917969 736.839844 756.757812 737.03125 C 727.597656 736.839844 698.359375 705.3125 670.171875 705.3125 C 653.023438 705.3125 638.269531 695.058594 631.707031 680.34375 C 627.714844 681.597656 623.472656 682.277344 619.066406 682.277344 C 595.816406 682.277344 576.96875 663.425781 576.96875 640.175781 C 576.96875 632.996094 578.765625 626.238281 581.933594 620.324219 C 554.472656 617.292969 532.761719 594.429688 531.542969 566.484375 L 455.695312 566.484375 C 414.320312 566.484375 380.464844 532.628906 380.464844 491.253906 L 380.464844 299.539062 C 380.464844 258.160156 414.320312 224.308594 455.695312 224.308594 L 531.542969 224.308594 C 532.761719 196.359375 554.472656 173.503906 581.933594 170.464844 C 578.765625 164.554688 576.96875 157.796875 576.96875 150.617188 C 576.96875 127.367188 595.816406 108.515625 619.066406 108.515625 C 623.472656 108.515625 627.714844 109.191406 631.707031 110.449219 C 638.269531 95.734375 653.023438 85.480469 670.171875 85.480469 C 698.359375 85.480469 727.597656 53.949219 756.757812 53.761719 C 785.917969 53.949219 815.15625 85.480469 843.34375 85.480469 C 860.496094 85.480469 875.246094 95.734375 881.808594 110.449219 C 885.800781 109.191406 890.042969 108.515625 894.449219 108.515625 C 917.699219 108.515625 936.546875 127.367188 936.546875 150.617188 C 936.546875 157.796875 934.75 164.554688 931.582031 170.464844 " fill-opacity="1" fill-rule="evenodd"/></g><g clip-path="url(#88dc7cd420)"><path fill="#e1a10b" d="M 756.746094 658.488281 C 753.535156 658.488281 750.398438 657.410156 747.917969 655.457031 C 735.191406 645.417969 714.636719 633.949219 686.816406 621.355469 C 683.457031 619.832031 680.878906 617.566406 679.355469 614.796875 C 679.351562 614.789062 679.347656 614.78125 679.34375 614.773438 C 674.785156 606.441406 670.449219 597.71875 666.433594 588.8125 C 666.34375 588.804688 666.25 588.800781 666.15625 588.800781 L 639.894531 588.800781 C 636.820312 588.800781 633.6875 588.222656 630.828125 587.128906 C 627.046875 585.679688 624.125 583.429688 622.371094 580.628906 C 622.363281 580.613281 622.351562 580.601562 622.34375 580.589844 C 615.828125 570.066406 609.800781 559.035156 604.390625 547.75 C 593.105469 542.339844 582.070312 536.308594 571.542969 529.789062 C 571.527344 529.78125 571.511719 529.773438 571.496094 529.761719 C 568.695312 528.007812 566.449219 525.082031 565.003906 521.296875 C 563.90625 518.4375 563.328125 515.308594 563.328125 512.246094 C 563.328125 503.492188 563.328125 494.734375 563.328125 485.980469 C 563.328125 485.886719 563.328125 485.792969 563.320312 485.707031 C 554.414062 481.691406 545.691406 477.355469 537.355469 472.796875 C 534.566406 471.265625 532.289062 468.679688 530.769531 465.3125 C 518.183594 437.496094 506.710938 416.941406 496.679688 404.226562 C 496.675781 404.222656 496.671875 404.21875 496.667969 404.210938 C 492.652344 399.101562 492.652344 391.679688 496.667969 386.566406 C 496.671875 386.5625 496.675781 386.558594 496.679688 386.550781 C 506.710938 373.835938 518.183594 353.28125 530.773438 325.460938 C 530.777344 325.453125 530.78125 325.449219 530.78125 325.445312 C 532.3125 322.078125 534.585938 319.5 537.363281 317.980469 C 545.695312 313.425781 554.414062 309.089844 563.320312 305.074219 C 563.328125 304.988281 563.328125 304.898438 563.328125 304.808594 C 563.328125 296.042969 563.328125 287.289062 563.328125 278.535156 C 563.328125 275.476562 563.90625 272.34375 565 269.480469 C 566.449219 265.691406 568.703125 262.761719 571.507812 261.007812 C 571.519531 261 571.53125 260.996094 571.542969 260.988281 C 582.070312 254.472656 593.101562 248.441406 604.386719 243.03125 C 609.796875 231.746094 615.828125 220.714844 622.34375 210.1875 C 622.355469 210.171875 622.363281 210.15625 622.371094 210.144531 C 624.125 207.339844 627.054688 205.097656 630.835938 203.648438 C 633.699219 202.550781 636.828125 201.972656 639.890625 201.972656 L 666.15625 201.972656 C 666.25 201.972656 666.339844 201.96875 666.429688 201.964844 C 670.445312 193.058594 674.78125 184.335938 679.339844 176 C 680.871094 173.207031 683.457031 170.933594 686.824219 169.414062 C 714.636719 156.824219 735.191406 145.355469 747.90625 135.324219 C 747.910156 135.316406 747.917969 135.3125 747.921875 135.308594 C 750.402344 133.359375 753.535156 132.289062 756.742188 132.289062 C 759.953125 132.289062 763.085938 133.359375 765.5625 135.308594 C 765.570312 135.3125 765.578125 135.316406 765.582031 135.324219 C 778.296875 145.351562 798.851562 156.824219 826.671875 169.417969 C 826.679688 169.421875 826.683594 169.421875 826.691406 169.425781 C 830.054688 170.957031 832.632812 173.230469 834.148438 176.003906 C 838.703125 184.332031 843.039062 193.054688 847.058594 201.964844 C 847.144531 201.96875 847.230469 201.972656 847.320312 201.972656 L 873.597656 201.972656 C 876.667969 201.972656 879.800781 202.550781 882.660156 203.648438 C 886.441406 205.097656 889.371094 207.347656 891.125 210.152344 C 891.128906 210.164062 891.136719 210.175781 891.144531 210.1875 C 897.660156 220.710938 903.691406 231.746094 909.101562 243.03125 C 920.386719 248.441406 931.417969 254.472656 941.941406 260.984375 C 941.953125 260.992188 941.960938 261 941.972656 261.007812 C 944.78125 262.761719 947.035156 265.691406 948.484375 269.480469 C 949.574219 272.335938 950.152344 275.460938 950.15625 278.523438 L 950.15625 304.796875 C 950.15625 304.890625 950.15625 304.980469 950.164062 305.074219 C 959.0625 309.082031 967.78125 313.417969 976.125 317.984375 C 978.90625 319.503906 981.179688 322.085938 982.707031 325.453125 C 995.304688 353.28125 1006.773438 373.835938 1016.804688 386.550781 C 1020.839844 391.664062 1020.84375 399.097656 1016.8125 404.222656 C 1006.773438 416.941406 995.304688 437.496094 982.710938 465.320312 C 981.1875 468.675781 978.921875 471.253906 976.152344 472.78125 C 976.144531 472.785156 976.136719 472.789062 976.125 472.796875 C 967.796875 477.351562 959.074219 481.6875 950.164062 485.703125 C 950.160156 485.792969 950.15625 485.886719 950.15625 485.980469 L 950.15625 512.242188 C 950.15625 515.304688 949.578125 518.4375 948.484375 521.300781 C 947.035156 525.085938 944.785156 528.011719 941.980469 529.765625 C 941.96875 529.773438 941.957031 529.78125 941.941406 529.789062 C 931.417969 536.308594 920.386719 542.339844 909.101562 547.746094 C 903.6875 559.035156 897.65625 570.066406 891.144531 580.589844 C 891.136719 580.601562 891.128906 580.609375 891.125 580.621094 C 889.371094 583.429688 886.4375 585.683594 882.648438 587.132812 C 879.792969 588.222656 876.667969 588.800781 873.605469 588.804688 L 847.332031 588.804688 C 847.238281 588.804688 847.144531 588.804688 847.058594 588.8125 C 843.042969 597.714844 838.707031 606.4375 834.144531 614.773438 C 832.625 617.558594 830.039062 619.832031 826.679688 621.355469 C 798.847656 633.953125 778.292969 645.421875 765.578125 655.453125 C 763.09375 657.414062 759.957031 658.492188 756.742188 658.492188 Z M 756.746094 658.488281 " fill-opacity="1" fill-rule="nonzero"/></g><path fill="#3d3227" d="M 756.746094 653.457031 C 754.660156 653.457031 752.628906 652.765625 751.027344 651.503906 C 737.804688 641.074219 717.480469 629.710938 688.890625 616.769531 C 687.246094 616.023438 685.023438 614.65625 683.761719 612.371094 C 678.90625 603.492188 674.3125 594.179688 670.09375 584.671875 C 669.488281 584.308594 667.96875 583.765625 666.15625 583.765625 L 639.894531 583.765625 C 635.253906 583.765625 629.132812 581.949219 626.632812 577.953125 C 626.628906 577.949219 626.625 577.941406 626.621094 577.933594 C 619.894531 567.066406 613.6875 555.648438 608.164062 543.96875 C 596.484375 538.445312 585.0625 532.238281 574.191406 525.507812 C 574.183594 525.503906 574.175781 525.5 574.167969 525.492188 C 570.179688 522.992188 568.359375 516.871094 568.359375 512.238281 C 568.359375 503.484375 568.359375 494.726562 568.359375 485.972656 C 568.359375 484.160156 567.820312 482.640625 567.453125 482.039062 C 557.945312 477.820312 548.636719 473.222656 539.773438 468.375 C 537.949219 467.375 536.421875 465.597656 535.355469 463.238281 C 522.417969 434.648438 511.058594 414.324219 500.628906 401.105469 C 498.023438 397.785156 498.023438 392.980469 500.621094 389.667969 C 511.058594 376.441406 522.417969 356.117188 535.359375 327.527344 C 536.4375 325.152344 537.964844 323.378906 539.777344 322.390625 C 548.636719 317.542969 557.949219 312.945312 567.457031 308.726562 C 567.824219 308.125 568.363281 306.605469 568.359375 304.796875 C 568.359375 296.039062 568.359375 287.285156 568.359375 278.527344 C 568.359375 273.894531 570.175781 267.765625 574.175781 265.269531 C 574.179688 265.265625 574.183594 265.261719 574.191406 265.257812 C 585.0625 258.527344 596.480469 252.320312 608.160156 246.796875 C 613.6875 235.117188 619.890625 223.699219 626.621094 212.828125 C 626.625 212.820312 626.632812 212.8125 626.636719 212.804688 C 629.136719 208.816406 635.257812 206.996094 639.890625 206.996094 L 666.15625 206.996094 C 667.96875 206.996094 669.488281 206.457031 670.089844 206.089844 C 674.308594 196.585938 678.902344 187.273438 683.753906 178.40625 C 684.753906 176.585938 686.527344 175.058594 688.890625 173.992188 C 717.476562 161.050781 737.800781 149.691406 751.023438 139.265625 C 752.628906 138 754.65625 137.308594 756.746094 137.308594 C 758.832031 137.308594 760.859375 138 762.460938 139.257812 C 775.6875 149.691406 796.011719 161.050781 824.601562 173.992188 C 826.976562 175.070312 828.75 176.597656 829.738281 178.410156 C 834.585938 187.269531 839.179688 196.578125 843.402344 206.09375 C 844.003906 206.460938 845.519531 206.996094 847.324219 206.996094 L 873.601562 206.996094 C 878.242188 206.996094 884.363281 208.816406 886.859375 212.8125 C 886.863281 212.816406 886.867188 212.820312 886.871094 212.828125 C 893.601562 223.699219 899.804688 235.117188 905.332031 246.800781 C 917.011719 252.324219 928.429688 258.527344 939.296875 265.257812 C 939.304688 265.261719 939.308594 265.265625 939.316406 265.269531 C 943.304688 267.761719 945.125 273.886719 945.128906 278.523438 L 945.128906 304.792969 C 945.128906 306.609375 945.667969 308.125 946.035156 308.730469 C 955.53125 312.941406 964.84375 317.539062 973.71875 322.390625 C 975.53125 323.382812 977.058594 325.160156 978.132812 327.523438 C 991.074219 356.121094 1002.4375 376.445312 1012.863281 389.660156 C 1015.476562 392.972656 1015.476562 397.785156 1012.867188 401.105469 C 1002.433594 414.328125 991.074219 434.652344 978.132812 463.242188 C 977.386719 464.886719 976.019531 467.109375 973.734375 468.367188 C 973.726562 468.371094 973.722656 468.375 973.71875 468.375 C 964.859375 473.222656 955.550781 477.816406 946.035156 482.039062 C 945.671875 482.644531 945.132812 484.164062 945.128906 485.976562 L 945.128906 512.238281 C 945.132812 516.871094 943.316406 522.996094 939.320312 525.5 C 939.3125 525.503906 939.304688 525.507812 939.300781 525.511719 C 928.429688 532.238281 917.011719 538.445312 905.332031 543.96875 C 899.804688 555.652344 893.601562 567.070312 886.871094 577.9375 C 886.871094 577.945312 886.867188 577.949219 886.863281 577.953125 C 884.371094 581.945312 878.242188 583.765625 873.605469 583.769531 L 847.335938 583.769531 C 845.523438 583.769531 844.007812 584.308594 843.402344 584.675781 C 839.183594 594.179688 834.589844 603.488281 829.738281 612.359375 C 828.746094 614.175781 826.96875 615.699219 824.609375 616.773438 C 796.011719 629.714844 775.6875 641.074219 762.472656 651.503906 C 760.871094 652.765625 758.839844 653.460938 756.75 653.460938 Z M 756.746094 653.457031 " fill-opacity="1" fill-rule="nonzero"/><path fill="#ffecc7" d="M 756.746094 650.941406 C 755.21875 650.941406 753.742188 650.441406 752.582031 649.527344 C 739.199219 638.96875 718.707031 627.507812 689.925781 614.480469 C 688.628906 613.894531 686.890625 612.839844 685.964844 611.15625 C 681.066406 602.203125 676.429688 592.792969 672.183594 583.183594 C 671.875 582.605469 669.457031 581.253906 666.15625 581.253906 L 639.890625 581.253906 C 635.796875 581.253906 630.667969 579.664062 628.765625 576.625 C 621.925781 565.574219 615.632812 553.960938 610.054688 542.082031 C 598.175781 536.503906 586.558594 530.210938 575.515625 523.375 C 572.464844 521.464844 570.875 516.332031 570.875 512.242188 C 570.875 503.488281 570.875 494.730469 570.875 485.976562 C 570.871094 482.675781 569.523438 480.257812 568.945312 479.953125 C 559.335938 475.703125 549.925781 471.066406 540.980469 466.171875 C 539.289062 465.246094 538.234375 463.503906 537.648438 462.207031 C 524.625 433.429688 513.160156 412.933594 502.605469 399.550781 C 500.707031 397.136719 500.707031 393.636719 502.601562 391.226562 C 513.160156 377.839844 524.625 357.347656 537.648438 328.566406 C 538.242188 327.261719 539.300781 325.515625 540.980469 324.601562 C 549.929688 319.707031 559.339844 315.070312 568.945312 310.824219 C 569.527344 310.515625 570.878906 308.097656 570.875 304.800781 C 570.875 296.042969 570.875 287.289062 570.875 278.53125 C 570.871094 274.441406 572.464844 269.308594 575.507812 267.40625 C 586.558594 260.5625 598.171875 254.273438 610.050781 248.691406 C 615.632812 236.8125 621.925781 225.199219 628.761719 214.15625 C 630.671875 211.105469 635.804688 209.515625 639.894531 209.515625 L 666.160156 209.515625 C 669.460938 209.511719 671.878906 208.160156 672.183594 207.585938 C 676.429688 197.980469 681.066406 188.570312 685.960938 179.617188 C 686.890625 177.925781 688.628906 176.875 689.929688 176.289062 C 718.707031 163.261719 739.199219 151.800781 752.582031 141.242188 C 753.742188 140.332031 755.222656 139.832031 756.746094 139.832031 C 758.273438 139.832031 759.753906 140.332031 760.910156 141.242188 C 774.292969 151.800781 794.789062 163.261719 823.570312 176.289062 C 824.875 176.882812 826.617188 177.941406 827.535156 179.621094 C 832.425781 188.566406 837.0625 197.972656 841.3125 207.585938 C 841.621094 208.164062 844.035156 209.515625 847.328125 209.515625 L 873.601562 209.515625 C 877.699219 209.515625 882.832031 211.105469 884.730469 214.148438 C 891.570312 225.195312 897.863281 236.8125 903.445312 248.691406 C 915.324219 254.273438 926.9375 260.5625 937.976562 267.398438 C 941.023438 269.300781 942.617188 274.4375 942.617188 278.53125 L 942.617188 304.796875 C 942.617188 308.097656 943.96875 310.515625 944.542969 310.820312 C 954.144531 315.066406 963.554688 319.699219 972.511719 324.601562 C 974.199219 325.523438 975.253906 327.265625 975.84375 328.566406 C 988.871094 357.347656 1000.332031 377.839844 1010.890625 391.222656 C 1012.792969 393.632812 1012.792969 397.132812 1010.890625 399.550781 C 1000.332031 412.929688 988.867188 433.425781 975.839844 462.207031 C 975.253906 463.503906 974.199219 465.242188 972.519531 466.167969 C 963.566406 471.0625 954.160156 475.699219 944.542969 479.949219 C 943.964844 480.257812 942.617188 482.675781 942.617188 485.976562 L 942.617188 512.242188 C 942.617188 516.328125 941.027344 521.464844 937.984375 523.367188 C 926.933594 530.210938 915.320312 536.5 903.441406 542.082031 C 897.859375 553.960938 891.570312 565.574219 884.734375 576.613281 C 882.832031 579.660156 877.699219 581.25 873.605469 581.253906 L 847.335938 581.253906 C 844.039062 581.253906 841.617188 582.605469 841.3125 583.179688 C 837.066406 592.789062 832.429688 602.195312 827.535156 611.152344 C 826.609375 612.835938 824.867188 613.890625 823.570312 614.480469 C 794.789062 627.507812 774.292969 638.972656 760.914062 649.527344 C 759.753906 650.441406 758.277344 650.941406 756.746094 650.941406 Z M 756.746094 650.941406 " fill-opacity="1" fill-rule="nonzero"/><path fill="#3d3227" d="M 539.941406 461.171875 C 540.539062 462.496094 541.347656 463.507812 542.1875 463.964844 C 551.171875 468.882812 560.445312 473.445312 569.964844 477.648438 C 571.851562 478.476562 573.386719 482.1875 573.390625 485.976562 C 573.390625 494.730469 573.390625 503.484375 573.390625 512.242188 C 573.390625 516 574.933594 520.039062 576.839844 521.234375 C 588.234375 528.289062 599.960938 534.601562 611.945312 540.191406 C 617.535156 552.171875 623.847656 563.898438 630.898438 575.292969 C 632.09375 577.203125 636.132812 578.742188 639.894531 578.738281 L 666.160156 578.738281 C 669.941406 578.738281 673.660156 580.28125 674.484375 582.167969 C 678.691406 591.683594 683.253906 600.957031 688.167969 609.945312 C 688.632812 610.785156 689.644531 611.589844 690.964844 612.191406 C 718.308594 624.566406 739.992188 636.390625 754.140625 647.554688 C 755.625 648.71875 757.875 648.71875 759.355469 647.554688 C 773.503906 636.390625 795.1875 624.566406 822.53125 612.191406 C 823.859375 611.589844 824.867188 610.785156 825.328125 609.945312 C 830.242188 600.957031 834.804688 591.683594 839.011719 582.167969 C 839.835938 580.28125 843.554688 578.738281 847.339844 578.738281 L 873.605469 578.738281 C 877.363281 578.738281 881.402344 577.203125 882.597656 575.292969 C 889.652344 563.898438 895.964844 552.171875 901.554688 540.191406 C 913.535156 534.601562 925.261719 528.289062 936.65625 521.234375 C 938.566406 520.039062 940.105469 516 940.101562 512.242188 L 940.101562 485.976562 C 940.101562 482.191406 941.644531 478.472656 943.53125 477.648438 C 953.046875 473.441406 962.320312 468.882812 971.308594 463.964844 C 972.148438 463.503906 972.953125 462.492188 973.554688 461.171875 C 985.929688 433.824219 997.753906 412.144531 1008.917969 397.996094 C 1010.082031 396.511719 1010.082031 394.257812 1008.917969 392.777344 C 997.753906 378.628906 985.929688 356.949219 973.554688 329.601562 C 972.953125 328.277344 972.148438 327.265625 971.308594 326.808594 C 962.320312 321.890625 953.046875 317.328125 943.53125 313.125 C 941.644531 312.300781 940.101562 308.582031 940.101562 304.796875 L 940.101562 278.53125 C 940.101562 274.773438 938.566406 270.734375 936.65625 269.539062 C 925.261719 262.484375 913.535156 256.175781 901.554688 250.585938 C 895.964844 238.601562 889.652344 226.875 882.597656 215.480469 C 881.402344 213.566406 877.363281 212.027344 873.605469 212.03125 C 864.847656 212.03125 856.09375 212.03125 847.339844 212.03125 C 843.554688 212.035156 839.835938 210.492188 839.011719 208.601562 C 834.804688 199.085938 830.246094 189.8125 825.328125 180.824219 C 824.867188 179.984375 823.855469 179.183594 822.53125 178.582031 C 795.1875 166.203125 773.503906 154.378906 759.355469 143.21875 C 757.875 142.054688 755.625 142.054688 754.140625 143.21875 C 739.992188 154.378906 718.3125 166.203125 690.964844 178.582031 C 689.640625 179.179688 688.628906 179.984375 688.167969 180.824219 C 683.253906 189.8125 678.691406 199.085938 674.484375 208.601562 C 673.660156 210.492188 669.945312 212.027344 666.160156 212.03125 C 657.402344 212.03125 648.648438 212.03125 639.894531 212.03125 C 636.132812 212.03125 632.09375 213.570312 630.898438 215.480469 C 623.84375 226.875 617.53125 238.601562 611.941406 250.582031 C 599.960938 256.171875 588.234375 262.484375 576.839844 269.539062 C 574.925781 270.734375 573.390625 274.773438 573.390625 278.53125 C 573.390625 287.289062 573.390625 296.042969 573.390625 304.796875 C 573.394531 308.582031 571.851562 312.304688 569.964844 313.125 C 560.449219 317.328125 551.175781 321.890625 542.1875 326.808594 C 541.34375 327.265625 540.542969 328.28125 539.941406 329.601562 C 527.5625 356.949219 515.742188 378.628906 504.578125 392.777344 C 503.414062 394.257812 503.414062 396.511719 504.578125 397.996094 C 515.742188 412.144531 527.5625 433.824219 539.941406 461.171875 Z M 539.941406 461.171875 " fill-opacity="1" fill-rule="nonzero"/><path fill="#e1a10b" d="M 756.746094 647.171875 C 756.0625 647.171875 755.414062 646.957031 754.917969 646.5625 C 741.292969 635.816406 720.542969 624.199219 691.480469 611.042969 C 690.421875 610.5625 689.59375 609.925781 689.269531 609.335938 C 684.425781 600.484375 679.839844 591.171875 675.632812 581.660156 C 674.449219 578.949219 669.867188 577.484375 666.15625 577.484375 L 639.890625 577.484375 C 636.269531 577.484375 632.808594 575.976562 631.964844 574.625 C 625.050781 563.457031 618.695312 551.691406 613.082031 539.660156 C 612.957031 539.390625 612.742188 539.175781 612.476562 539.050781 C 600.441406 533.4375 588.675781 527.085938 577.5 520.167969 C 576.152344 519.324219 574.648438 515.859375 574.648438 512.242188 C 574.648438 503.484375 574.648438 494.730469 574.648438 485.976562 C 574.640625 482.265625 573.175781 477.683594 570.464844 476.5 C 560.957031 472.296875 551.644531 467.707031 542.789062 462.863281 C 542.203125 462.542969 541.5625 461.714844 541.085938 460.652344 C 527.929688 431.589844 516.3125 410.839844 505.5625 397.214844 C 504.757812 396.191406 504.757812 394.582031 505.566406 393.554688 C 516.3125 379.933594 527.929688 359.183594 541.085938 330.121094 C 541.570312 329.054688 542.207031 328.226562 542.789062 327.910156 C 551.648438 323.066406 560.960938 318.476562 570.46875 314.273438 C 573.183594 313.089844 574.648438 308.507812 574.644531 304.792969 C 574.644531 296.039062 574.644531 287.285156 574.644531 278.53125 C 574.640625 274.914062 576.148438 271.449219 577.503906 270.601562 C 588.671875 263.6875 600.4375 257.335938 612.472656 251.71875 C 612.738281 251.597656 612.953125 251.378906 613.078125 251.113281 C 618.695312 239.078125 625.046875 227.3125 631.964844 216.140625 C 632.808594 214.792969 636.273438 213.285156 639.890625 213.285156 L 653.023438 213.285156 C 653.023438 213.285156 666.152344 213.285156 666.152344 213.285156 C 669.863281 213.28125 674.445312 211.8125 675.632812 209.105469 C 679.835938 199.601562 684.421875 190.285156 689.269531 181.425781 C 689.589844 180.839844 690.414062 180.203125 691.480469 179.726562 C 720.539062 166.570312 741.292969 154.953125 754.914062 144.203125 C 755.410156 143.816406 756.058594 143.601562 756.742188 143.601562 C 757.425781 143.601562 758.078125 143.816406 758.574219 144.203125 C 772.195312 154.953125 792.945312 166.570312 822.007812 179.726562 C 823.074219 180.210938 823.902344 180.847656 824.21875 181.425781 C 829.0625 190.28125 833.652344 199.59375 837.855469 209.109375 C 839.035156 211.820312 843.613281 213.285156 847.324219 213.285156 L 860.464844 213.285156 C 860.464844 213.285156 873.597656 213.285156 873.597656 213.285156 C 877.222656 213.285156 880.679688 214.789062 881.523438 216.140625 C 888.441406 227.3125 894.792969 239.078125 900.410156 251.113281 C 900.535156 251.382812 900.75 251.597656 901.015625 251.71875 C 913.046875 257.332031 924.8125 263.6875 935.984375 270.601562 C 937.332031 271.441406 938.835938 274.90625 938.839844 278.527344 L 938.839844 304.792969 C 938.839844 308.5 940.304688 313.085938 943.023438 314.269531 C 952.515625 318.46875 961.828125 323.054688 970.699219 327.90625 C 971.28125 328.222656 971.917969 329.050781 972.402344 330.117188 C 985.554688 359.179688 997.175781 379.929688 1007.921875 393.554688 C 1008.730469 394.578125 1008.730469 396.183594 1007.921875 397.210938 C 997.175781 410.835938 985.554688 431.585938 972.402344 460.648438 C 971.917969 461.707031 971.28125 462.535156 970.695312 462.859375 C 961.847656 467.699219 952.53125 472.289062 943.015625 476.496094 C 940.304688 477.679688 938.839844 482.261719 938.839844 485.972656 L 938.839844 512.238281 C 938.84375 515.855469 937.335938 519.320312 935.980469 520.167969 C 924.8125 527.082031 913.046875 533.433594 901.015625 539.046875 C 900.746094 539.171875 900.53125 539.386719 900.40625 539.65625 C 894.792969 551.691406 888.4375 563.457031 881.523438 574.625 C 880.683594 575.96875 877.21875 577.476562 873.597656 577.480469 L 847.335938 577.480469 C 843.621094 577.480469 839.042969 578.945312 837.855469 581.660156 C 833.65625 591.160156 829.066406 600.476562 824.222656 609.335938 C 823.902344 609.921875 823.074219 610.558594 822.007812 611.042969 C 792.949219 624.195312 772.195312 635.8125 758.574219 646.5625 C 758.078125 646.953125 757.429688 647.167969 756.746094 647.167969 Z M 756.746094 647.171875 " fill-opacity="1" fill-rule="nonzero"/><g fill="#294122" fill-opacity="1"><g transform="translate(661.581117, 471.100134)"><g><path d="M 37.015625 37.8125 C 28.898438 37.8125 23.035156 36.132812 19.421875 32.78125 C 15.816406 29.4375 14.015625 26 14.015625 22.46875 C 14.015625 18.945312 15.023438 16.257812 17.046875 14.40625 C 19.078125 12.550781 21.328125 11.625 23.796875 11.625 C 26.265625 11.625 28.554688 12.414062 30.671875 14 C 32.785156 15.59375 33.84375 18.148438 33.84375 21.671875 C 33.84375 23.265625 33.398438 24.941406 32.515625 26.703125 C 33.578125 27.054688 34.632812 27.273438 35.6875 27.359375 C 36.75 27.453125 37.71875 27.5 38.59375 27.5 C 47.9375 27.5 55.296875 24.941406 60.671875 19.828125 C 66.046875 14.710938 69.921875 8.320312 72.296875 0.65625 C 74.679688 -7.007812 75.875 -14.804688 75.875 -22.734375 L 75.875 -65.03125 C 66.351562 -65.382812 58.992188 -67.144531 53.796875 -70.3125 C 48.597656 -73.488281 46 -77.101562 46 -81.15625 C 46 -85.039062 48.46875 -88.613281 53.40625 -91.875 C 58.34375 -95.132812 65.832031 -97.378906 75.875 -98.609375 L 75.875 -103.90625 C 75.875 -115.882812 75.476562 -124.867188 74.6875 -130.859375 C 73.894531 -136.859375 72.660156 -141.085938 70.984375 -143.546875 C 69.304688 -146.015625 67.0625 -147.78125 64.25 -148.84375 L 64.25 -149.375 C 72 -150.070312 79.441406 -152.800781 86.578125 -157.5625 C 93.722656 -162.320312 98.523438 -168.226562 100.984375 -175.28125 C 92.878906 -175.457031 84.90625 -174.578125 77.0625 -172.640625 C 69.21875 -170.703125 62.164062 -167.925781 55.90625 -164.3125 C 49.65625 -160.695312 44.675781 -156.421875 40.96875 -151.484375 C 37.269531 -146.546875 35.421875 -141.257812 35.421875 -135.625 C 35.421875 -132.445312 36.257812 -130.019531 37.9375 -128.34375 C 39.613281 -126.675781 41.597656 -125.84375 43.890625 -125.84375 C 45.828125 -125.84375 47.675781 -126.328125 49.4375 -127.296875 C 51.195312 -128.265625 52.695312 -129.984375 53.9375 -132.453125 C 53.582031 -124.347656 50.847656 -117.5625 45.734375 -112.09375 C 40.617188 -106.632812 34.273438 -103.90625 26.703125 -103.90625 C 20.003906 -103.90625 14.539062 -106.191406 10.3125 -110.765625 C 6.082031 -115.347656 3.96875 -121.429688 3.96875 -129.015625 C 3.96875 -137.472656 6.609375 -145.09375 11.890625 -151.875 C 17.179688 -158.664062 24.1875 -164.441406 32.90625 -169.203125 C 41.632812 -173.960938 51.285156 -177.570312 61.859375 -180.03125 C 72.429688 -182.5 83.007812 -183.734375 93.59375 -183.734375 C 103.101562 -183.734375 111.914062 -182.941406 120.03125 -181.359375 L 120.296875 -180.828125 C 114.296875 -177.660156 109.972656 -172.945312 107.328125 -166.6875 C 104.691406 -160.425781 103.0625 -153.109375 102.4375 -144.734375 C 101.820312 -136.367188 101.515625 -127.335938 101.515625 -117.640625 L 101.515625 -98.34375 C 109.453125 -97.289062 116.769531 -95.175781 123.46875 -92 C 129.988281 -97.988281 135.363281 -104.773438 139.59375 -112.359375 C 143.820312 -119.941406 145.9375 -127.429688 145.9375 -134.828125 C 145.9375 -139.765625 145.007812 -143.421875 143.15625 -145.796875 C 141.3125 -148.179688 138.976562 -149.375 136.15625 -149.375 C 133.863281 -149.375 131.570312 -148.625 129.28125 -147.125 C 126.988281 -145.625 125.664062 -143.640625 125.3125 -141.171875 C 123.90625 -146.640625 124.210938 -151.925781 126.234375 -157.03125 C 128.265625 -162.144531 131.484375 -166.332031 135.890625 -169.59375 C 140.296875 -172.851562 145.316406 -174.484375 150.953125 -174.484375 C 154.128906 -174.484375 157.035156 -173.863281 159.671875 -172.625 C 162.316406 -171.394531 164.257812 -169.546875 165.5 -167.078125 C 171.664062 -175.890625 179.679688 -182.457031 189.546875 -186.78125 C 199.421875 -191.101562 210.175781 -192.644531 221.8125 -191.40625 L 222.078125 -190.078125 C 215.734375 -189.554688 209.828125 -186.78125 204.359375 -181.75 C 198.898438 -176.726562 193.523438 -170.382812 188.234375 -162.71875 C 182.941406 -155.050781 177.519531 -146.675781 171.96875 -137.59375 C 166.414062 -128.519531 160.46875 -119.578125 154.125 -110.765625 C 147.78125 -101.953125 140.644531 -94.023438 132.71875 -86.984375 C 141.53125 -81.335938 149.238281 -74.375 155.84375 -66.09375 C 162.457031 -57.8125 168.273438 -49 173.296875 -39.65625 C 178.316406 -30.3125 182.898438 -21.097656 187.046875 -12.015625 C 191.191406 -2.941406 195.203125 5.335938 199.078125 12.828125 C 202.953125 20.316406 207.046875 26.304688 211.359375 30.796875 C 215.679688 35.296875 220.578125 37.546875 226.046875 37.546875 C 229.921875 37.546875 232.472656 36.441406 233.703125 34.234375 C 234.941406 32.035156 234.988281 29.832031 233.84375 27.625 C 232.695312 25.425781 230.359375 24.5 226.828125 24.84375 C 231.410156 21.851562 235.992188 20.359375 240.578125 20.359375 C 245.160156 20.359375 249.125 21.546875 252.46875 23.921875 C 255.820312 26.304688 257.5 29.347656 257.5 33.046875 C 257.5 37.453125 254.8125 41.109375 249.4375 44.015625 C 244.0625 46.921875 237.234375 48.375 228.953125 48.375 C 218.378906 48.375 209.171875 46.125 201.328125 41.625 C 193.484375 37.132812 186.519531 31.144531 180.4375 23.65625 C 174.351562 16.164062 168.84375 7.84375 163.90625 -1.3125 C 158.976562 -10.476562 154.265625 -19.773438 149.765625 -29.203125 C 145.273438 -38.640625 140.601562 -47.539062 135.75 -55.90625 C 130.90625 -64.28125 125.578125 -71.378906 119.765625 -77.203125 C 114.296875 -73.492188 108.210938 -70.582031 101.515625 -68.46875 L 101.515625 -31.203125 C 101.515625 -16.742188 102.75 -5.550781 105.21875 2.375 C 107.6875 10.3125 111.738281 15.6875 117.375 18.5 L 114.46875 24.59375 C 108.300781 22.300781 101.957031 21.59375 95.4375 22.46875 C 95.613281 20.53125 95.082031 18.851562 93.84375 17.4375 C 92.613281 16.03125 90.941406 15.328125 88.828125 15.328125 C 84.421875 15.328125 82.21875 17.707031 82.21875 22.46875 C 82.21875 23.53125 82.484375 24.5 83.015625 25.375 C 75.960938 27.664062 68.691406 30.3125 61.203125 33.3125 C 53.710938 36.3125 45.648438 37.8125 37.015625 37.8125 Z M 66.359375 -82.484375 C 66.359375 -79.484375 69.53125 -77.28125 75.875 -75.875 L 75.875 -89.09375 C 69.53125 -87.507812 66.359375 -85.304688 66.359375 -82.484375 Z M 101.515625 -77.984375 C 105.046875 -79.222656 108.660156 -80.988281 112.359375 -83.28125 C 109.179688 -85.394531 105.566406 -87.15625 101.515625 -88.5625 Z M 101.515625 -77.984375 "/></g></g></g></svg>