<svg width="622" height="569" viewBox="0 0 622 569" fill="none" xmlns="http://www.w3.org/2000/svg">
<mask id="mask0_762_149" style="mask-type:luminance" maskUnits="userSpaceOnUse" x="0" y="0" width="622" height="569">
<path d="M0.614563 0H621.629V568.991H0.614563V0Z" fill="white"/>
</mask>
<g mask="url(#mask0_762_149)">
<path fill-rule="evenodd" clip-rule="evenodd" d="M455.684 97.3555C478.359 99.8872 496.287 118.956 497.293 142.272H559.924C594.089 142.272 622.043 170.513 622.043 205.03V364.966C622.043 399.484 594.089 427.725 559.924 427.725H497.293C496.287 451.041 478.359 470.112 455.684 472.641C458.301 477.575 459.787 483.213 459.787 489.203C459.787 508.599 444.221 524.325 425.023 524.325C421.385 524.325 417.878 523.759 414.586 522.711C409.166 534.988 396.988 543.542 382.823 543.542C359.549 543.542 335.405 569.843 311.329 570.003C287.249 569.843 263.105 543.542 239.831 543.542C225.672 543.542 213.488 534.988 208.068 522.711C204.773 523.759 201.269 524.325 197.634 524.325C178.433 524.325 162.87 508.599 162.87 489.203C162.87 483.213 164.356 477.575 166.97 472.641C144.295 470.112 126.368 451.041 125.361 427.725H62.7307C28.5682 427.725 0.614563 399.484 0.614563 364.966V205.03C0.614563 170.513 28.5682 142.272 62.7307 142.272H125.361C126.368 118.956 144.295 99.8872 166.97 97.3555C164.356 92.4241 162.87 86.7862 162.87 80.7965C162.87 61.4007 178.433 45.6745 197.634 45.6745C201.269 45.6745 204.773 46.238 208.068 47.2881C213.488 35.0118 225.672 26.4546 239.831 26.4546C263.105 26.4546 287.249 0.153696 311.329 -0.0057373C335.405 0.153696 359.549 26.4546 382.823 26.4546C396.988 26.4546 409.166 35.0118 414.586 47.2881C417.884 46.238 421.385 45.6745 425.023 45.6745C444.221 45.6745 459.787 61.4007 459.787 80.7965C459.787 86.7862 458.301 92.4241 455.684 97.3555Z" fill="#E1A10B"/>
</g>
<mask id="mask1_762_149" style="mask-type:luminance" maskUnits="userSpaceOnUse" x="8" y="6" width="607" height="558">
<path d="M8.27637 6.99854H614.038V563.667H8.27637V6.99854Z" fill="white"/>
</mask>
<g mask="url(#mask1_762_149)">
<path fill-rule="evenodd" clip-rule="evenodd" d="M452.152 101.957C474.267 104.429 491.754 123.027 492.736 145.768H553.824C587.148 145.768 614.413 173.315 614.413 206.982V362.982C614.413 396.647 587.148 424.196 553.824 424.196H492.736C491.754 446.934 474.267 465.538 452.152 468.004C454.704 472.817 456.152 478.315 456.152 484.156C456.152 503.077 440.97 518.415 422.245 518.415C418.694 518.415 415.277 517.863 412.064 516.843C406.777 528.814 394.898 537.16 381.085 537.16C358.382 537.16 334.834 562.812 311.348 562.968C287.861 562.812 264.313 537.16 241.613 537.16C227.8 537.16 215.918 528.814 210.631 516.843C207.418 517.863 203.998 518.415 200.453 518.415C181.725 518.415 166.546 503.077 166.546 484.156C166.546 478.315 167.993 472.817 170.545 468.004C148.428 465.538 130.941 446.934 129.959 424.196H68.8715C35.547 424.196 8.28171 396.647 8.28171 362.982V206.982C8.28171 173.315 35.547 145.768 68.8715 145.768H129.959C130.941 123.027 148.428 104.429 170.545 101.957C167.993 97.1468 166.546 91.6464 166.546 85.8051C166.546 66.8876 181.725 51.549 200.453 51.549C203.998 51.549 207.418 52.0988 210.631 53.1214C215.918 41.1502 227.8 32.8019 241.613 32.8019C264.313 32.8019 287.861 7.14698 311.348 6.99304C334.834 7.14698 358.382 32.8019 381.085 32.8019C394.898 32.8019 406.777 41.1502 412.064 53.1214C415.28 52.0988 418.694 51.549 422.245 51.549C440.97 51.549 456.152 66.8876 456.152 85.8051C456.152 91.6464 454.704 97.1468 452.152 101.957Z" fill="#294122"/>
</g>
<mask id="mask2_762_149" style="mask-type:luminance" maskUnits="userSpaceOnUse" x="98" y="70" width="426" height="429">
<path d="M98.825 70.8926H523.707V498.404H98.825V70.8926Z" fill="white"/>
</mask>
<g mask="url(#mask2_762_149)">
<path d="M311.331 499.074C308.744 499.074 306.219 498.198 304.219 496.609C293.97 488.439 277.416 479.104 255.008 468.859C252.303 467.619 250.227 465.775 248.997 463.524C248.995 463.515 248.992 463.507 248.987 463.502C245.316 456.723 241.823 449.625 238.59 442.377C238.517 442.371 238.443 442.368 238.367 442.368H217.216C214.74 442.368 212.218 441.898 209.916 441.005C206.868 439.826 204.512 437.998 203.1 435.719C203.095 435.705 203.087 435.697 203.081 435.686C197.833 427.123 192.976 418.146 188.62 408.965C179.53 404.561 170.644 399.654 162.163 394.352C162.152 394.343 162.138 394.335 162.127 394.327C159.872 392.9 158.063 390.52 156.895 387.441C156.014 385.113 155.548 382.565 155.548 380.074C155.548 372.949 155.548 365.824 155.548 358.699C155.548 358.625 155.546 358.551 155.54 358.479C148.368 355.211 141.343 351.681 134.631 347.973C132.381 346.728 130.55 344.622 129.325 341.882C119.185 319.251 109.948 302.524 101.867 292.177C101.864 292.174 101.859 292.169 101.856 292.163C98.6237 288.004 98.6237 281.968 101.856 277.806C101.859 277.804 101.864 277.798 101.867 277.793C109.948 267.449 119.185 250.722 129.328 228.082C129.331 228.08 129.333 228.074 129.333 228.069C130.566 225.331 132.4 223.231 134.634 221.997C141.343 218.291 148.368 214.762 155.54 211.493C155.546 211.422 155.548 211.35 155.548 211.276C155.548 204.146 155.548 197.023 155.548 189.898C155.546 187.411 156.011 184.86 156.895 182.531C158.063 179.45 159.875 177.064 162.136 175.637C162.146 175.632 162.155 175.626 162.163 175.621C170.641 170.318 179.527 165.409 188.617 161.008C192.973 151.827 197.833 142.849 203.081 134.284C203.089 134.27 203.095 134.259 203.103 134.248C204.515 131.966 206.874 130.141 209.921 128.962C212.226 128.069 214.745 127.599 217.213 127.599H238.367C238.441 127.599 238.517 127.596 238.588 127.593C241.82 120.344 245.314 113.247 248.987 106.465C250.219 104.192 252.301 102.342 255.013 101.105C277.414 90.863 293.97 81.5279 304.211 73.3638C304.216 73.3611 304.219 73.3556 304.225 73.3529C306.222 71.7668 308.744 70.8954 311.329 70.8954C313.913 70.8954 316.436 71.7668 318.433 73.3529C318.438 73.3556 318.443 73.3611 318.446 73.3638C328.687 81.5252 345.241 90.863 367.652 101.108C367.658 101.111 367.66 101.111 367.666 101.113C370.376 102.359 372.452 104.211 373.673 106.468C377.341 113.244 380.834 120.342 384.069 127.593C384.14 127.596 384.211 127.599 384.282 127.599H405.447C407.92 127.599 410.442 128.069 412.744 128.962C415.791 130.141 418.15 131.972 419.56 134.256C419.565 134.264 419.573 134.273 419.576 134.281C424.824 142.846 429.684 151.824 434.04 161.008C443.13 165.409 452.014 170.318 460.492 175.618C460.5 175.624 460.508 175.629 460.516 175.635C462.78 177.064 464.592 179.447 465.759 182.531C466.638 184.854 467.103 187.4 467.106 189.89V211.271C467.106 211.345 467.109 211.419 467.114 211.493C474.281 214.756 481.303 218.286 488.024 221.999C490.263 223.236 492.097 225.339 493.324 228.077C503.47 250.722 512.709 267.446 520.788 277.793C524.039 281.954 524.042 288.002 520.793 292.172C512.709 302.524 503.47 319.251 493.326 341.89C492.099 344.622 490.276 346.717 488.045 347.96C488.04 347.962 488.032 347.968 488.024 347.973C481.317 351.679 474.292 355.208 467.114 358.477C467.109 358.551 467.106 358.625 467.106 358.702V380.071C467.109 382.562 466.643 385.113 465.762 387.441C464.595 390.52 462.783 392.903 460.524 394.33C460.513 394.338 460.503 394.343 460.492 394.352C452.014 399.654 443.13 404.561 434.04 408.962C429.681 418.146 424.824 427.123 419.576 435.686C419.573 435.694 419.565 435.705 419.56 435.714C418.148 437.998 415.789 439.831 412.733 441.011C410.437 441.898 407.917 442.368 405.45 442.371H384.29C384.214 442.371 384.14 442.374 384.069 442.377C380.837 449.623 377.344 456.72 373.671 463.504C372.443 465.767 370.365 467.619 367.655 468.859C345.241 479.11 328.685 488.442 318.446 496.606C316.444 498.2 313.916 499.077 311.326 499.077L311.331 499.074Z" fill="#E1A10B"/>
</g>
<path d="M311.331 494.981C309.65 494.981 308.012 494.418 306.725 493.39C296.076 484.904 279.705 475.66 256.678 465.129C255.353 464.521 253.563 463.408 252.548 461.547C248.636 454.323 244.935 446.747 241.54 439.009C241.053 438.713 239.828 438.273 238.367 438.273H217.216C213.477 438.273 208.547 436.791 206.536 433.542C206.531 433.536 206.528 433.531 206.526 433.525C201.106 424.682 196.108 415.391 191.659 405.889C182.253 401.391 173.054 396.342 164.296 390.866C164.29 390.861 164.285 390.858 164.28 390.855C161.064 388.821 159.6 383.837 159.6 380.069C159.6 372.944 159.6 365.819 159.6 358.694C159.6 357.22 159.167 355.983 158.871 355.494C151.212 352.061 143.713 348.322 136.576 344.375C135.107 343.564 133.877 342.118 133.017 340.194C122.597 316.933 113.447 300.394 105.047 289.637C102.947 286.935 102.947 283.026 105.042 280.33C113.447 269.568 122.597 253.031 133.02 229.765C133.891 227.832 135.118 226.389 136.576 225.584C143.716 221.639 151.214 217.901 158.873 214.467C159.167 213.975 159.602 212.741 159.6 211.271C159.6 204.143 159.6 197.018 159.6 189.893C159.597 186.124 161.061 181.135 164.282 179.104C164.288 179.101 164.293 179.095 164.296 179.095C173.051 173.62 182.251 168.567 191.656 164.073C196.108 154.57 201.106 145.276 206.526 136.431C206.528 136.425 206.534 136.42 206.536 136.414C208.55 133.165 213.483 131.686 217.213 131.686H238.367C239.826 131.686 241.05 131.246 241.537 130.949C244.933 123.214 248.636 115.638 252.54 108.423C253.345 106.938 254.776 105.698 256.678 104.83C279.705 94.3018 296.073 85.0574 306.719 76.5717C308.015 75.5437 309.647 74.9802 311.329 74.9802C313.01 74.9802 314.645 75.5437 315.932 76.5635C326.587 85.0574 342.955 94.299 365.984 104.83C367.897 105.709 369.323 106.952 370.12 108.425C374.024 115.633 377.725 123.211 381.126 130.952C381.61 131.249 382.829 131.686 384.284 131.686H405.447C409.185 131.686 414.118 133.168 416.126 136.417C416.129 136.422 416.132 136.428 416.137 136.431C421.557 145.276 426.555 154.57 431.003 164.076C440.412 168.57 449.608 173.62 458.361 179.095C458.367 179.098 458.372 179.101 458.375 179.104C461.591 181.132 463.055 186.119 463.06 189.89V211.268C463.06 212.741 463.493 213.978 463.789 214.47C471.437 217.898 478.936 221.636 486.086 225.587C487.547 226.395 488.777 227.838 489.64 229.762C500.066 253.031 509.216 269.568 517.612 280.324C519.718 283.021 519.718 286.935 517.615 289.637C509.213 300.396 500.063 316.933 489.642 340.199C489.038 341.538 487.939 343.347 486.097 344.369C486.092 344.372 486.089 344.375 486.086 344.378C478.95 348.32 471.451 352.058 463.789 355.494C463.495 355.986 463.06 357.223 463.06 358.696V380.069C463.063 383.837 461.599 388.824 458.38 390.858C458.375 390.861 458.369 390.863 458.364 390.869C449.608 396.345 440.412 401.391 431.003 405.889C426.552 415.394 421.557 424.688 416.137 433.528C416.134 433.534 416.132 433.539 416.129 433.542C414.124 436.791 409.188 438.27 405.452 438.275H384.295C382.834 438.275 381.613 438.713 381.126 439.012C377.73 446.745 374.03 454.32 370.123 461.539C369.32 463.015 367.892 464.258 365.987 465.129C342.955 475.662 326.587 484.904 315.94 493.39C314.653 494.418 313.015 494.981 311.334 494.981H311.331Z" fill="#3D3227"/>
<path d="M311.331 492.934C310.101 492.934 308.91 492.524 307.976 491.784C297.199 483.192 280.692 473.865 257.511 463.265C256.466 462.787 255.068 461.929 254.322 460.56C250.377 453.273 246.641 445.618 243.221 437.797C242.974 437.327 241.025 436.228 238.367 436.228H217.213C213.915 436.228 209.785 434.933 208.253 432.462C202.741 423.47 197.675 414.02 193.18 404.355C183.614 399.814 174.259 394.693 165.362 389.129C162.908 387.576 161.627 383.398 161.624 380.072C161.624 372.947 161.624 365.824 161.624 358.699C161.624 356.011 160.536 354.045 160.073 353.795C152.332 350.34 144.755 346.566 137.548 342.583C136.184 341.83 135.336 340.411 134.865 339.356C124.373 315.938 115.139 299.261 106.639 288.373C105.11 286.407 105.11 283.56 106.636 281.597C115.142 270.706 124.373 254.029 134.865 230.611C135.344 229.548 136.195 228.129 137.548 227.384C144.758 223.401 152.335 219.627 160.073 216.172C160.541 215.922 161.629 213.953 161.627 211.271C161.627 204.146 161.627 197.021 161.627 189.898C161.624 186.569 162.906 182.388 165.357 180.844C174.257 175.274 183.611 170.156 193.18 165.615C197.675 155.947 202.741 146.497 208.248 137.511C209.785 135.031 213.921 133.737 217.216 133.734H238.37C241.028 133.731 242.976 132.634 243.221 132.167C246.641 124.349 250.377 116.691 254.319 109.409C255.065 108.032 256.469 107.175 257.516 106.699C280.692 96.0995 297.199 86.7727 307.976 78.1826C308.912 77.4404 310.104 77.0336 311.331 77.0336C312.561 77.0336 313.753 77.4404 314.683 78.1798C325.466 86.7727 341.97 96.0995 365.152 106.699C366.202 107.183 367.606 108.043 368.346 109.409C372.286 116.688 376.019 124.344 379.441 132.167C379.692 132.637 381.634 133.737 384.287 133.737H405.45C408.747 133.737 412.883 135.031 414.412 137.505C419.922 146.497 424.99 155.947 429.485 165.615C439.052 170.156 448.406 175.274 457.297 180.838C459.752 182.386 461.033 186.564 461.036 189.896V211.268C461.036 213.953 462.124 215.922 462.587 216.172C470.319 219.624 477.897 223.396 485.115 227.384C486.47 228.132 487.322 229.55 487.795 230.609C498.289 254.029 507.521 270.706 516.023 281.594C517.555 283.554 517.555 286.405 516.023 288.37C507.518 299.261 498.286 315.938 487.795 339.356C487.322 340.411 486.473 341.827 485.118 342.58C477.91 346.563 470.33 350.335 462.587 353.795C462.121 354.045 461.033 356.014 461.033 358.699V380.069C461.036 383.395 459.754 387.576 457.306 389.123C448.403 394.693 439.049 399.811 429.482 404.352C424.988 414.02 419.922 423.47 414.415 432.453C412.883 434.93 408.747 436.225 405.45 436.228H384.295C381.637 436.228 379.689 437.327 379.441 437.794C376.021 445.612 372.288 453.268 368.343 460.555C367.6 461.927 366.196 462.787 365.152 463.265C341.97 473.865 325.463 483.194 314.686 491.782C313.753 492.524 312.564 492.934 311.331 492.934Z" fill="#FFECC7"/>
<path d="M136.712 338.514C137.194 339.592 137.841 340.414 138.519 340.788C145.756 344.787 153.225 348.501 160.892 351.923C162.413 352.594 163.648 355.618 163.651 358.696C163.651 365.821 163.651 372.946 163.651 380.069C163.651 383.128 164.894 386.416 166.429 387.389C175.609 393.128 185.053 398.266 194.706 402.813C199.207 412.563 204.289 422.104 209.97 431.376C210.933 432.929 214.185 434.185 217.216 434.182H238.37C241.417 434.182 244.41 435.436 245.074 436.97C248.464 444.716 252.137 452.259 256.096 459.573C256.469 460.255 257.285 460.912 258.349 461.401C280.374 471.473 297.836 481.094 309.234 490.176C310.428 491.127 312.24 491.127 313.432 490.176C324.829 481.094 342.291 471.473 364.316 461.401C365.383 460.912 366.196 460.258 366.569 459.573C370.528 452.262 374.201 444.716 377.591 436.97C378.255 435.436 381.248 434.182 384.295 434.182H405.45C408.481 434.18 411.732 432.932 412.695 431.376C418.376 422.104 423.459 412.563 427.962 402.813C437.612 398.263 447.056 393.128 456.234 387.389C457.771 386.416 459.012 383.131 459.012 380.069V358.696C459.012 355.618 460.252 352.594 461.77 351.923C469.435 348.498 476.904 344.787 484.144 340.788C484.818 340.411 485.469 339.589 485.953 338.514C495.919 316.26 505.445 298.618 514.434 287.106C515.373 285.899 515.373 284.065 514.434 282.861C505.445 271.349 495.922 253.704 485.953 231.455C485.469 230.375 484.821 229.553 484.144 229.179C476.906 225.18 469.438 221.466 461.77 218.044C460.249 217.373 459.012 214.349 459.012 211.271V189.898C459.009 186.836 457.774 183.551 456.234 182.578C447.056 176.839 437.612 171.704 427.962 167.157C423.461 157.404 418.376 147.863 412.695 138.588C411.732 137.033 408.481 135.779 405.45 135.782C398.4 135.782 391.348 135.782 384.295 135.782C381.248 135.785 378.252 134.531 377.591 132.994C374.201 125.248 370.528 117.703 366.569 110.391C366.196 109.706 365.383 109.055 364.316 108.563C342.291 98.4937 324.829 88.87 313.432 79.7879C312.24 78.8423 310.425 78.8395 309.234 79.7879C297.836 88.87 280.374 98.4937 258.349 108.563C257.282 109.052 256.469 109.706 256.096 110.391C252.137 117.703 248.464 125.248 245.074 132.994C244.41 134.531 241.417 135.779 238.37 135.782C231.318 135.782 224.265 135.782 217.216 135.782C214.187 135.782 210.933 137.038 209.97 138.588C204.289 147.86 199.204 157.404 194.704 167.154C185.053 171.704 175.606 176.839 166.429 182.578C164.889 183.551 163.651 186.836 163.651 189.898C163.651 197.021 163.651 204.146 163.651 211.271C163.654 214.349 162.413 217.376 160.892 218.044C153.228 221.466 145.759 225.18 138.519 229.179C137.841 229.553 137.194 230.378 136.71 231.455C126.743 253.704 117.218 271.349 108.228 282.861C107.292 284.065 107.292 285.899 108.228 287.106C117.218 298.618 126.743 316.26 136.71 338.514H136.712Z" fill="#3D3227"/>
<path d="M311.331 489.866C310.782 489.866 310.257 489.69 309.857 489.371C298.886 480.624 282.172 471.171 258.765 460.47C257.911 460.077 257.244 459.557 256.983 459.079C253.084 451.877 249.387 444.298 245.999 436.557C245.047 434.35 241.355 433.157 238.367 433.157H217.213C214.296 433.157 211.51 431.934 210.827 430.832C205.26 421.747 200.143 412.172 195.621 402.381C195.52 402.161 195.346 401.988 195.131 401.886C185.439 397.32 175.963 392.147 166.962 386.52C165.877 385.833 164.663 383.013 164.663 380.069C164.663 372.946 164.663 365.821 164.663 358.699C164.66 355.678 163.48 351.951 161.295 350.986C153.638 347.566 146.137 343.831 139.003 339.889C138.533 339.628 138.018 338.957 137.632 338.091C127.037 314.443 117.68 297.557 109.023 286.471C108.375 285.638 108.375 284.327 109.023 283.494C117.68 272.41 127.037 255.524 137.632 231.876C138.024 231.007 138.535 230.334 139.003 230.075C146.14 226.134 153.641 222.401 161.3 218.978C163.485 218.019 164.666 214.289 164.663 211.268C164.663 204.143 164.663 197.021 164.663 189.896C164.66 186.952 165.874 184.134 166.962 183.444C175.96 177.817 185.437 172.647 195.128 168.078C195.346 167.979 195.517 167.803 195.618 167.586C200.14 157.792 205.258 148.22 210.83 139.127C211.507 138.03 214.299 136.804 217.213 136.804H227.789H238.365C241.355 136.799 245.044 135.606 245.999 133.401C249.384 125.669 253.079 118.09 256.983 110.88C257.242 110.405 257.905 109.885 258.762 109.495C282.17 98.7906 298.884 89.3374 309.857 80.5906C310.254 80.2744 310.776 80.1013 311.329 80.1013C311.878 80.1013 312.403 80.2744 312.803 80.5906C323.774 89.3374 340.487 98.7906 363.895 109.495C364.752 109.89 365.418 110.407 365.674 110.88C369.576 118.085 373.271 125.663 376.658 133.407C377.61 135.611 381.297 136.804 384.282 136.804H394.868H405.447C408.364 136.804 411.15 138.03 411.83 139.127C417.399 148.218 422.517 157.792 427.039 167.586C427.14 167.803 427.314 167.979 427.529 168.078C437.22 172.647 446.697 177.817 455.695 183.444C456.778 184.128 457.991 186.946 457.994 189.893V211.265C457.994 214.283 459.172 218.013 461.362 218.978C469.008 222.392 476.509 226.128 483.651 230.073C484.122 230.331 484.636 231.004 485.025 231.873C495.62 255.521 504.977 272.408 513.632 283.491C514.285 284.327 514.285 285.632 513.632 286.468C504.977 297.554 495.617 314.44 485.025 338.088C484.636 338.952 484.122 339.625 483.648 339.889C476.523 343.828 469.021 347.561 461.357 350.983C459.175 351.948 457.994 355.676 457.994 358.696V380.069C457.994 383.01 456.78 385.83 455.689 386.52C446.694 392.144 437.218 397.315 427.529 401.884C427.311 401.985 427.14 402.161 427.039 402.378C422.514 412.17 417.399 421.747 411.83 430.834C411.152 431.928 408.364 433.154 405.447 433.157H384.293C381.302 433.157 377.613 434.35 376.658 436.56C373.276 444.29 369.578 451.868 365.677 459.079C365.418 459.554 364.752 460.074 363.895 460.467C340.487 471.171 323.774 480.624 312.803 489.371C312.403 489.687 311.881 489.863 311.331 489.863V489.866Z" fill="#294122"/>
</svg>
