<svg width="147" height="86" viewBox="0 0 147 86" fill="none" xmlns="http://www.w3.org/2000/svg">
<mask id="mask0_724_468" style="mask-type:luminance" maskUnits="userSpaceOnUse" x="37" y="4" width="80" height="76">
<path d="M37.8729 4.79517H116.681V79.2049H37.8729V4.79517Z" fill="white"/>
</mask>
<g mask="url(#mask0_724_468)">
<path fill-rule="evenodd" clip-rule="evenodd" d="M95.5483 17.4971C98.4222 17.8277 100.694 20.3157 100.822 23.3578H108.759C113.09 23.3578 116.633 27.0423 116.633 31.546V52.4131C116.633 56.9167 113.09 60.6017 108.759 60.6017H100.822C100.694 63.6433 98.4222 66.1318 95.5483 66.4615C95.8801 67.1052 96.0683 67.8409 96.0683 68.6223C96.0683 71.153 94.0956 73.2047 91.6624 73.2047C91.2014 73.2047 90.7568 73.1309 90.3397 72.9944C89.6526 74.5962 88.109 75.7122 86.3142 75.7122C83.3641 75.7122 80.3044 79.1438 77.2527 79.1645C74.2009 79.1438 71.1412 75.7122 68.1912 75.7122C66.3968 75.7122 64.8527 74.5962 64.1657 72.9944C63.7482 73.1309 63.3039 73.2047 62.843 73.2047C60.4097 73.2047 58.437 71.153 58.437 68.6223C58.437 67.8409 58.6253 67.1052 58.957 66.4615C56.0831 66.1318 53.811 63.6433 53.6834 60.6017H45.746C41.4158 60.6017 37.8732 56.9167 37.8732 52.4131V31.546C37.8732 27.0423 41.4158 23.3578 45.746 23.3578H53.6834C53.811 20.3157 56.0831 17.8277 58.957 17.4971C58.6253 16.8539 58.437 16.1181 58.437 15.3368C58.437 12.806 60.4097 10.7543 62.843 10.7543C63.3039 10.7543 63.7482 10.8277 64.1657 10.9646C64.8527 9.36331 66.3968 8.24683 68.1912 8.24683C71.1412 8.24683 74.2009 4.81529 77.2527 4.79456C80.3044 4.81529 83.3641 8.24683 86.3142 8.24683C88.109 8.24683 89.6526 9.36331 90.3397 10.9646C90.7572 10.8277 91.2014 10.7543 91.6624 10.7543C94.0956 10.7543 96.0683 12.806 96.0683 15.3368C96.0683 16.1181 95.8801 16.8539 95.5483 17.4971Z" fill="#E1A10B"/>
</g>
<mask id="mask1_724_468" style="mask-type:luminance" maskUnits="userSpaceOnUse" x="38" y="5" width="78" height="74">
<path d="M38.8355 5.70844H115.634V78.234H38.8355V5.70844Z" fill="white"/>
</mask>
<g mask="url(#mask1_724_468)">
<path fill-rule="evenodd" clip-rule="evenodd" d="M95.0989 18.0984C97.9022 18.4211 100.119 20.8477 100.243 23.8151H107.986C112.209 23.8151 115.666 27.4093 115.666 31.8026V52.1575C115.666 56.5504 112.209 60.1449 107.986 60.1449H100.243C100.119 63.112 97.9022 65.5394 95.0989 65.8613C95.4223 66.4892 95.6058 67.2067 95.6058 67.969C95.6058 70.4375 93.6817 72.439 91.3083 72.439C90.8585 72.439 90.425 72.3668 90.0179 72.2337C89.348 73.796 87.8422 74.8847 86.0913 74.8847C83.2138 74.8847 80.2291 78.232 77.2523 78.2524C74.2755 78.232 71.2908 74.8847 68.4133 74.8847C66.6627 74.8847 65.1566 73.796 64.4867 72.2337C64.0792 72.3668 63.6461 72.439 63.1963 72.439C60.8229 72.439 58.8988 70.4375 58.8988 67.969C58.8988 67.2067 59.0823 66.4892 59.4057 65.8613C56.6023 65.5394 54.386 63.112 54.2616 60.1449H46.5188C42.2951 60.1449 38.8391 56.5504 38.8391 52.1575V31.8026C38.8391 27.4093 42.2951 23.8151 46.5188 23.8151H54.2616C54.386 20.8477 56.6023 18.4211 59.4057 18.0984C59.0823 17.4709 58.8988 16.7534 58.8988 15.9911C58.8988 13.5226 60.8229 11.5211 63.1963 11.5211C63.6461 11.5211 64.0792 11.5928 64.4867 11.7264C65.1566 10.1641 66.6627 9.07537 68.4133 9.07537C71.2908 9.07537 74.2755 5.72761 77.2523 5.7077C80.2291 5.72761 83.2138 9.07537 86.0913 9.07537C87.8422 9.07537 89.348 10.1641 90.0179 11.7264C90.4254 11.5928 90.8585 11.5211 91.3083 11.5211C93.6817 11.5211 95.6058 13.5226 95.6058 15.9911C95.6058 16.7534 95.4223 17.4709 95.0989 18.0984Z" fill="#294122"/>
</g>
<mask id="mask2_724_468" style="mask-type:luminance" maskUnits="userSpaceOnUse" x="50" y="14" width="55" height="56">
<path d="M50.3271 14.0451H104.125V69.9381H50.3271V14.0451Z" fill="white"/>
</mask>
<g mask="url(#mask2_724_468)">
<path d="M77.2512 69.9138C76.9234 69.9138 76.6032 69.7994 76.35 69.592C75.0508 68.5261 72.9525 67.3085 70.1125 65.9713C69.7696 65.8096 69.5064 65.569 69.3509 65.275C69.3505 65.2742 69.3501 65.2733 69.3497 65.2725C68.8843 64.3879 68.4417 63.4618 68.0318 62.5162C68.0226 62.5153 68.0131 62.5149 68.0035 62.5149H65.3226C65.0088 62.5149 64.689 62.4535 64.3971 62.3374C64.0111 62.1835 63.7128 61.9447 63.5337 61.6473C63.5329 61.6456 63.5318 61.6444 63.531 61.6431C62.8658 60.5258 62.2505 59.3546 61.6982 58.1564C60.5462 57.582 59.4197 56.9417 58.345 56.2495C58.3434 56.2486 58.3418 56.2478 58.3403 56.2466C58.0543 56.0604 57.8251 55.7497 57.6775 55.3478C57.5655 55.0443 57.5064 54.712 57.5064 54.3869C57.5064 53.4575 57.5064 52.5276 57.5064 51.5982C57.5064 51.5882 57.5064 51.5783 57.5056 51.5692C56.5965 51.1428 55.706 50.6825 54.8551 50.1985C54.5703 50.0359 54.3379 49.7613 54.1828 49.4038C52.8979 46.4505 51.7268 44.2681 50.7027 42.9182C50.7023 42.9177 50.7019 42.9173 50.7016 42.9165C50.2916 42.374 50.2916 41.586 50.7016 41.0431C50.7019 41.0427 50.7023 41.0423 50.7027 41.0415C51.7268 39.6915 52.8979 37.5091 54.1832 34.5554C54.1835 34.5546 54.1839 34.5541 54.1839 34.5537C54.3403 34.1962 54.5723 33.9225 54.8559 33.7612C55.7064 33.2776 56.5965 32.8172 57.5056 32.3909C57.5064 32.3817 57.5064 32.3722 57.5064 32.3627C57.5064 31.432 57.5064 30.5026 57.5064 29.5731C57.5064 29.2484 57.5655 28.9158 57.6771 28.6118C57.8251 28.2095 58.0551 27.8984 58.3415 27.7122C58.3426 27.7114 58.3438 27.711 58.345 27.7101C59.4197 27.0184 60.5458 26.378 61.6978 25.8036C62.2501 24.6054 62.8658 23.4342 63.531 22.3165C63.5321 22.3148 63.5329 22.3132 63.5337 22.3119C63.7128 22.0141 64.0119 21.7761 64.3979 21.6222C64.6902 21.5057 65.0096 21.4443 65.3222 21.4443H68.0035C68.0131 21.4443 68.0222 21.4439 68.0314 21.4435C68.4413 20.4978 68.8839 19.5717 69.3493 18.6867C69.5056 18.3902 69.7696 18.1488 70.1133 17.9874C72.9525 16.6507 75.0508 15.4331 76.3488 14.368C76.3492 14.3672 76.35 14.3668 76.3504 14.3664C76.6036 14.1594 76.9234 14.0458 77.2508 14.0458C77.5786 14.0458 77.8984 14.1594 78.1512 14.3664C78.152 14.3668 78.1528 14.3672 78.1532 14.368C79.4512 15.4327 81.5495 16.6507 84.3895 17.9879C84.3902 17.9883 84.3906 17.9883 84.3914 17.9887C84.7348 18.1513 84.998 18.3926 85.1527 18.6871C85.6176 19.5713 86.0603 20.4974 86.4706 21.4435C86.4794 21.4439 86.4881 21.4443 86.4973 21.4443H89.1798C89.4932 21.4443 89.813 21.5057 90.1049 21.6222C90.4909 21.7761 90.79 22.015 90.969 22.3127C90.9694 22.314 90.9702 22.3152 90.971 22.3165C91.6362 23.4338 92.2519 24.6054 92.8041 25.8036C93.9562 26.378 95.0823 27.0184 96.1565 27.7097C96.1577 27.7106 96.1585 27.7114 96.1597 27.7122C96.4464 27.8984 96.6765 28.2095 96.8245 28.6118C96.9357 28.915 96.9947 29.2467 96.9951 29.5719V32.3614C96.9951 32.3714 96.9951 32.3809 96.9959 32.3909C97.9043 32.8164 98.7944 33.2767 99.6461 33.7616C99.93 33.9229 100.162 34.1971 100.318 34.5546C101.604 37.5091 102.775 39.6915 103.799 41.0415C104.211 41.5844 104.211 42.3736 103.8 42.9177C102.775 44.2681 101.604 46.4505 100.318 49.4046C100.163 49.7609 99.9316 50.0346 99.6489 50.1968C99.6481 50.1972 99.6473 50.1976 99.6461 50.1985C98.796 50.682 97.9055 51.1424 96.9959 51.5687C96.9955 51.5783 96.9951 51.5882 96.9951 51.5982V54.3865C96.9951 54.7116 96.9361 55.0443 96.8245 55.3483C96.6765 55.7501 96.4468 56.0608 96.1605 56.247C96.1593 56.2478 96.1581 56.2486 96.1565 56.2495C95.0823 56.9417 93.9562 57.582 92.8041 58.156C92.2515 59.3546 91.6358 60.5258 90.971 61.6431C90.9702 61.6444 90.9694 61.6452 90.969 61.6465C90.79 61.9447 90.4905 62.184 90.1037 62.3378C89.8122 62.4535 89.4932 62.5149 89.1806 62.5153H86.4985C86.4889 62.5153 86.4794 62.5153 86.4706 62.5162C86.0607 63.4614 85.618 64.3875 85.1523 65.2725C84.9972 65.5682 84.7332 65.8096 84.3902 65.9713C81.5491 67.3089 79.4508 68.5265 78.1528 69.5916C77.8992 69.7998 77.579 69.9143 77.2508 69.9143L77.2512 69.9138Z" fill="#E1A10B"/>
</g>
<path d="M77.2512 69.3794C77.0382 69.3794 76.8309 69.306 76.6674 69.172C75.3176 68.0647 73.2428 66.8582 70.3243 65.4842C70.1564 65.4049 69.9295 65.2598 69.8007 65.0172C69.305 64.0745 68.8361 63.0857 68.4054 62.0763C68.3436 62.0377 68.1885 61.98 68.0035 61.98H65.3226C64.8489 61.98 64.224 61.7872 63.9688 61.3629C63.9684 61.3625 63.968 61.3617 63.9676 61.3608C63.2809 60.207 62.6473 58.9948 62.0834 57.7547C60.8911 57.1683 59.7252 56.5092 58.6154 55.7946C58.6146 55.7942 58.6138 55.7938 58.613 55.793C58.2059 55.5276 58.02 54.8777 58.02 54.3858C58.02 53.4564 58.02 52.5265 58.02 51.5971C58.02 51.4046 57.965 51.2433 57.9275 51.1794C56.9569 50.7315 56.0067 50.2434 55.1019 49.7287C54.9157 49.6225 54.7598 49.4338 54.6509 49.1833C53.3302 46.1478 52.1706 43.99 51.1059 42.5865C50.8399 42.234 50.8399 41.7238 51.1051 41.3721C52.1706 39.9678 53.3302 37.81 54.6513 34.7745C54.7614 34.5223 54.9173 34.334 55.1023 34.2291C56.0067 33.7144 56.9573 33.2263 57.9279 32.7784C57.9654 32.7145 58.0204 32.5532 58.02 32.3611C58.02 31.4313 58.02 30.5019 58.02 29.572C58.02 29.0801 58.2055 28.4294 58.6138 28.1644C58.6142 28.164 58.6146 28.1636 58.6154 28.1632C59.7252 27.4486 60.8907 26.7896 62.083 26.2031C62.6473 24.963 63.2805 23.7508 63.9676 22.5966C63.968 22.5957 63.9688 22.5949 63.9692 22.5941C64.2244 22.1706 64.8493 21.9774 65.3222 21.9774H68.0035C68.1885 21.9774 68.3436 21.9201 68.405 21.8811C68.8357 20.8721 69.3046 19.8833 69.7999 18.9419C69.902 18.7486 70.083 18.5865 70.3243 18.4732C73.2424 17.0992 75.3172 15.8931 76.667 14.7862C76.8309 14.6518 77.0379 14.5784 77.2512 14.5784C77.4641 14.5784 77.6711 14.6518 77.8346 14.7854C79.1848 15.8931 81.2596 17.0992 84.1781 18.4732C84.4206 18.5877 84.6016 18.7499 84.7025 18.9423C85.1973 19.8829 85.6663 20.8712 86.0974 21.8815C86.1588 21.9205 86.3135 21.9774 86.4977 21.9774H89.1802C89.6539 21.9774 90.2788 22.1706 90.5336 22.5949C90.534 22.5953 90.5344 22.5957 90.5348 22.5966C91.2219 23.7508 91.8551 24.963 92.4193 26.2035C93.6116 26.79 94.7772 27.4486 95.8866 28.1632C95.8874 28.1636 95.8878 28.164 95.8886 28.1644C96.2957 28.429 96.4815 29.0793 96.4819 29.5716V32.3607C96.4819 32.5536 96.537 32.7145 96.5745 32.7788C97.5438 33.2259 98.4945 33.714 99.4005 34.2291C99.5855 34.3345 99.7414 34.5232 99.8511 34.7741C101.172 37.8104 102.332 39.9683 103.396 41.3713C103.663 41.723 103.663 42.234 103.397 42.5865C102.332 43.9904 101.172 46.1483 99.8511 49.1837C99.7749 49.3583 99.6354 49.5943 99.4021 49.7279C99.4013 49.7283 99.4009 49.7287 99.4005 49.7287C98.4961 50.2434 97.5458 50.7311 96.5745 51.1794C96.5374 51.2437 96.4823 51.4051 96.4819 51.5975V54.3858C96.4823 54.8777 96.2969 55.528 95.889 55.7938C95.8882 55.7942 95.8874 55.7946 95.887 55.7951C94.7772 56.5092 93.6116 57.1683 92.4193 57.7547C91.8551 58.9952 91.2219 60.2075 90.5348 61.3613C90.5348 61.3621 90.5344 61.3625 90.534 61.3629C90.2796 61.7868 89.6539 61.98 89.1806 61.9805H86.4989C86.3139 61.9805 86.1592 62.0377 86.0974 62.0767C85.6667 63.0857 85.1977 64.0741 84.7025 65.0159C84.6012 65.2088 84.4198 65.3705 84.1789 65.4846C81.2596 66.8586 79.1848 68.0647 77.8358 69.172C77.6723 69.306 77.4649 69.3798 77.2516 69.3798L77.2512 69.3794Z" fill="#3D3227"/>
<path d="M77.2512 69.1123C77.0952 69.1123 76.9445 69.0592 76.8261 68.9622C75.4599 67.8411 73.368 66.6243 70.4299 65.2411C70.2975 65.1789 70.1201 65.067 70.0256 64.8882C69.5255 63.9376 69.0522 62.9385 68.6187 61.9183C68.5872 61.8569 68.3404 61.7134 68.0034 61.7134H65.3222C64.9043 61.7134 64.3807 61.5446 64.1865 61.2219C63.4882 60.0486 62.8458 58.8156 62.2764 57.5544C61.0638 56.9622 59.8778 56.294 58.7505 55.5682C58.4391 55.3654 58.2768 54.8204 58.2768 54.3862C58.2768 53.4568 58.2768 52.527 58.2768 51.5975C58.2764 51.2471 58.1388 50.9903 58.0798 50.958C57.0989 50.5068 56.1382 50.0145 55.2251 49.4948C55.0524 49.3965 54.9447 49.2115 54.8849 49.0738C53.5555 46.0185 52.3851 43.8423 51.3076 42.4215C51.1138 42.1651 51.1138 41.7935 51.3072 41.5376C52.3851 40.1163 53.5555 37.9406 54.8849 34.8848C54.9455 34.7463 55.0536 34.5609 55.2251 34.4639C56.1386 33.9442 57.0993 33.4519 58.0798 33.0011C58.1392 32.9683 58.2772 32.7116 58.2768 32.3616C58.2768 31.4317 58.2768 30.5023 58.2768 29.5725C58.2764 29.1382 58.4391 28.5933 58.7497 28.3913C59.8778 27.6647 61.0634 26.9969 62.276 26.4043C62.8458 25.1431 63.4882 23.9101 64.1861 22.7376C64.3811 22.4137 64.9051 22.2449 65.3226 22.2449H68.0038C68.3408 22.2445 68.5876 22.101 68.6187 22.04C69.0522 21.0202 69.5255 20.0211 70.0252 19.0705C70.1201 18.8909 70.2975 18.7793 70.4303 18.7171C73.368 17.334 75.4599 16.1171 76.8261 14.9961C76.9445 14.8995 77.0956 14.8464 77.2512 14.8464C77.4071 14.8464 77.5582 14.8995 77.6762 14.9961C79.0424 16.1171 81.1347 17.334 84.0728 18.7171C84.206 18.7802 84.3838 18.8926 84.4775 19.0709C84.9768 20.0206 85.4501 21.0193 85.884 22.04C85.9155 22.1014 86.1619 22.2449 86.4981 22.2449H89.1801C89.5984 22.2449 90.1224 22.4137 90.3162 22.7368C91.0145 23.9096 91.6569 25.1431 92.2267 26.4043C93.4393 26.9969 94.6249 27.6647 95.7518 28.3905C96.0628 28.5924 96.2255 29.1378 96.2255 29.5725V32.3612C96.2255 32.7116 96.3635 32.9683 96.4221 33.0007C97.4022 33.4515 98.3629 33.9434 99.2772 34.4639C99.4495 34.5618 99.5572 34.7467 99.6174 34.8848C100.947 37.9406 102.117 40.1163 103.195 41.5372C103.389 41.7931 103.389 42.1647 103.195 42.4215C102.117 43.8419 100.947 46.0181 99.617 49.0738C99.5572 49.2115 99.4495 49.3961 99.278 49.4944C98.3641 50.0141 97.4038 50.5063 96.4221 50.9576C96.3631 50.9903 96.2255 51.2471 96.2255 51.5975V54.3862C96.2255 54.82 96.0632 55.3654 95.7526 55.5674C94.6245 56.294 93.4389 56.9617 92.2263 57.5544C91.6565 58.8156 91.0145 60.0486 90.3166 61.2207C90.1224 61.5442 89.5984 61.713 89.1805 61.7134H86.4989C86.1623 61.7134 85.9151 61.8569 85.884 61.9179C85.4505 62.9381 84.9772 63.9368 84.4775 64.8878C84.383 65.0665 84.2052 65.1785 84.0728 65.2411C81.1347 66.6243 79.0424 67.8416 77.6766 68.9622C77.5582 69.0592 77.4075 69.1123 77.2512 69.1123Z" fill="#FFECC7"/>
<path d="M55.119 48.9639C55.1801 49.1045 55.2626 49.2119 55.3483 49.2604C56.2655 49.7826 57.2122 50.267 58.1839 50.7133C58.3765 50.8012 58.5333 51.1952 58.5337 51.5975C58.5337 52.5269 58.5337 53.4563 58.5337 54.3862C58.5337 54.7852 58.6912 55.214 58.8858 55.3409C60.049 56.0899 61.246 56.7601 62.4694 57.3536C63.0401 58.6256 63.6845 59.8707 64.4042 61.0805C64.5263 61.2833 64.9386 61.4467 65.3226 61.4463H68.0039C68.3899 61.4463 68.7695 61.6101 68.8536 61.8104C69.2831 62.8207 69.7489 63.8053 70.2505 64.7596C70.298 64.8488 70.4012 64.9342 70.536 64.9981C73.3274 66.312 75.5409 67.5674 76.9852 68.7527C77.1367 68.8763 77.3664 68.8763 77.5176 68.7527C78.9619 67.5674 81.1754 66.312 83.9668 64.9981C84.1023 64.9342 84.2052 64.8488 84.2523 64.7596C84.7539 63.8053 85.2197 62.8207 85.6491 61.8104C85.7333 61.6101 86.1129 61.4463 86.4993 61.4463H89.1806C89.5642 61.4463 89.9765 61.2833 90.0985 61.0805C90.8187 59.8707 91.4631 58.6256 92.0337 57.3536C93.2567 56.7601 94.4538 56.0899 95.617 55.3409C95.812 55.214 95.9691 54.7852 95.9687 54.3862V51.5975C95.9687 51.1956 96.1262 50.8008 96.3188 50.7133C97.2902 50.2666 98.2369 49.7826 99.1544 49.2604C99.2402 49.2115 99.3223 49.1041 99.3837 48.9639C100.647 46.0603 101.854 43.7585 102.994 42.2563C103.113 42.0987 103.113 41.8594 102.994 41.7023C101.854 40.2001 100.647 37.8983 99.3837 34.9947C99.3223 34.8541 99.2402 34.7467 99.1544 34.6982C98.2369 34.176 97.2902 33.6916 96.3188 33.2453C96.1262 33.1578 95.9687 32.763 95.9687 32.3611V29.5724C95.9687 29.1734 95.812 28.7446 95.617 28.6177C94.4538 27.8687 93.2567 27.1989 92.0337 26.6054C91.4631 25.333 90.8187 24.0879 90.0985 22.8781C89.9765 22.6749 89.5642 22.5115 89.1806 22.5119C88.2866 22.5119 87.3929 22.5119 86.4993 22.5119C86.1129 22.5123 85.7333 22.3485 85.6491 22.1478C85.2197 21.1375 84.7543 20.1529 84.2523 19.1986C84.2052 19.1094 84.1019 19.0244 83.9668 18.9605C81.1754 17.6462 78.9619 16.3908 77.5176 15.2059C77.3664 15.0823 77.1367 15.0823 76.9852 15.2059C75.5409 16.3908 73.3278 17.6462 70.536 18.9605C70.4008 19.024 70.2976 19.1094 70.2505 19.1986C69.7489 20.1529 69.2831 21.1375 68.8536 22.1478C68.7695 22.3485 68.3903 22.5115 68.0039 22.5119C67.1099 22.5119 66.2162 22.5119 65.3226 22.5119C64.9386 22.5119 64.5263 22.6753 64.4042 22.8781C63.6841 24.0879 63.0397 25.333 62.469 26.605C61.246 27.1985 60.049 27.8687 58.8858 28.6177C58.6904 28.7446 58.5337 29.1734 58.5337 29.5724C58.5337 30.5023 58.5337 31.4317 58.5337 32.3611C58.5341 32.763 58.3765 33.1582 58.1839 33.2453C57.2126 33.6916 56.2659 34.176 55.3483 34.6982C55.2622 34.7467 55.1805 34.8545 55.119 34.9947C53.8554 37.8983 52.6487 40.2001 51.509 41.7023C51.3902 41.8594 51.3902 42.0987 51.509 42.2563C52.6487 43.7585 53.8554 46.0603 55.119 48.9639Z" fill="#3D3227"/>
<path d="M77.2512 68.7121C77.1814 68.7121 77.1152 68.6893 77.0646 68.6474C75.6737 67.5064 73.5555 66.273 70.5887 64.8762C70.4806 64.8251 70.3961 64.7575 70.363 64.6949C69.8685 63.7551 69.4003 62.7664 68.9709 61.7565C68.8501 61.4687 68.3823 61.3132 68.0035 61.3132H65.3222C64.9525 61.3132 64.5992 61.1531 64.5131 61.0096C63.8073 59.8238 63.1585 58.5746 62.5855 57.2972C62.5727 57.2686 62.5508 57.2458 62.5237 57.2325C61.2951 56.6366 60.094 55.9622 58.9532 55.2277C58.8156 55.1381 58.6621 54.7702 58.6621 54.3862C58.6621 53.4564 58.6621 52.5269 58.6621 51.5975C58.6613 51.2035 58.5117 50.717 58.235 50.5914C57.2644 50.1451 56.3137 49.6578 55.4097 49.1435C55.3499 49.1095 55.2845 49.0216 55.2359 48.9088C53.8929 45.8231 52.7069 43.62 51.6095 42.1734C51.5274 42.0648 51.5274 41.8939 51.6099 41.7848C52.7069 40.3386 53.8929 38.1355 55.2359 35.0499C55.2853 34.9367 55.3503 34.8487 55.4097 34.8151C56.3141 34.3009 57.2648 33.8136 58.2354 33.3673C58.5125 33.2416 58.6621 32.7551 58.6617 32.3607C58.6617 31.4313 58.6617 30.5019 58.6617 29.5724C58.6613 29.1884 58.8152 28.8205 58.9536 28.7305C60.0936 27.9964 61.2947 27.3221 62.5233 26.7257C62.5504 26.7128 62.5723 26.6896 62.5851 26.6614C63.1585 25.3836 63.8069 24.1344 64.5131 22.9483C64.5992 22.8052 64.9529 22.6451 65.3222 22.6451H66.6628H68.0031C68.3819 22.6447 68.8497 22.4887 68.9709 22.2013C69.3999 21.1923 69.8681 20.2031 70.363 19.2625C70.3957 19.2003 70.4798 19.1327 70.5887 19.0821C73.5551 17.6852 75.6737 16.4518 77.0642 15.3105C77.1148 15.2694 77.181 15.2466 77.2508 15.2466C77.3206 15.2466 77.3872 15.2694 77.4378 15.3105C78.8283 16.4518 80.9465 17.6852 83.9133 19.0821C84.0222 19.1335 84.1067 19.2011 84.139 19.2625C84.6335 20.2027 85.102 21.1914 85.5311 22.2017C85.6515 22.4896 86.1189 22.6451 86.4977 22.6451H87.8392H89.1798C89.5498 22.6451 89.9028 22.8048 89.9889 22.9483C90.6951 24.1344 91.3435 25.3836 91.9169 26.6614C91.9297 26.69 91.9516 26.7128 91.9787 26.7257C93.2069 27.3217 94.408 27.9964 95.5484 28.7305C95.686 28.8197 95.8395 29.1876 95.8399 29.572V32.3607C95.8399 32.7543 95.9895 33.2412 96.267 33.3669C97.236 33.8127 98.1867 34.2996 99.0922 34.8147C99.1517 34.8483 99.2167 34.9363 99.2661 35.0495C100.609 38.1351 101.795 40.3382 102.892 41.7848C102.975 41.8935 102.975 42.0639 102.892 42.173C101.795 43.6196 100.609 45.8227 99.2661 48.9083C99.2167 49.0207 99.1517 49.1087 99.0918 49.1431C98.1886 49.6569 97.2376 50.1443 96.2662 50.5909C95.9895 50.7166 95.8399 51.2031 95.8399 51.5971V54.3858C95.8403 54.7698 95.6864 55.1377 95.548 55.2277C94.408 55.9618 93.2069 56.6362 91.9787 57.2321C91.9512 57.2454 91.9293 57.2682 91.9165 57.2968C91.3435 58.5746 90.6947 59.8238 89.9889 61.0096C89.9031 61.1522 89.5494 61.3123 89.1798 61.3127H86.4989C86.1197 61.3127 85.6523 61.4683 85.5311 61.7565C85.1024 62.7651 84.6339 63.7543 84.1394 64.6949C84.1067 64.7571 84.0222 64.8247 83.9133 64.8762C80.9469 66.2726 78.8283 67.506 77.4378 68.6474C77.3872 68.6888 77.321 68.7117 77.2512 68.7117V68.7121Z" fill="#294122"/>
<path d="M71.3151 54.0327C70.4864 54.0327 69.8879 53.8544 69.519 53.4985C69.151 53.1435 68.9671 52.7785 68.9671 52.4036C68.9671 52.0295 69.07 51.7442 69.2766 51.5476C69.4839 51.3506 69.7136 51.2523 69.9656 51.2523C70.2177 51.2523 70.4513 51.3361 70.6675 51.5044C70.8832 51.6737 70.9913 51.9449 70.9913 52.319C70.9913 52.4882 70.9458 52.6661 70.8557 52.8532C70.9642 52.8905 71.0718 52.9137 71.1795 52.9229C71.2879 52.9328 71.3868 52.9378 71.4762 52.9378C72.43 52.9378 73.1813 52.6661 73.73 52.1232C74.2787 51.5799 74.6742 50.9014 74.9167 50.0877C75.1599 49.274 75.282 48.4462 75.282 47.6043V43.1135C74.3098 43.0761 73.5585 42.8891 73.0282 42.5528C72.4974 42.2156 72.2322 41.8319 72.2322 41.4014C72.2322 40.9892 72.4842 40.6097 72.9883 40.2634C73.4923 39.9175 74.2567 39.679 75.282 39.5484V38.986C75.282 37.7144 75.2413 36.7605 75.1607 36.1243C75.0798 35.4873 74.9538 35.0385 74.7827 34.7772C74.6112 34.5151 74.3823 34.3277 74.0952 34.2149V34.1585C74.8864 34.0846 75.646 33.7947 76.3746 33.2892C77.1039 32.784 77.594 32.1569 77.8452 31.4079C77.0178 31.3893 76.2039 31.4826 75.4032 31.6883C74.6025 31.894 73.8823 32.1889 73.2435 32.5725C72.6055 32.9566 72.097 33.4103 71.7186 33.9345C71.341 34.4587 71.1524 35.0203 71.1524 35.6183C71.1524 35.9559 71.2377 36.2135 71.4092 36.3914C71.5802 36.5685 71.7828 36.6568 72.0169 36.6568C72.2147 36.6568 72.4033 36.6054 72.5831 36.5026C72.7626 36.3997 72.9157 36.2172 73.0425 35.9551C73.0062 36.8157 72.7271 37.5361 72.2051 38.1167C71.6827 38.6965 71.0351 38.986 70.2623 38.986C69.5785 38.986 69.0206 38.7434 68.5891 38.2577C68.1573 37.7712 67.9415 37.1255 67.9415 36.3201C67.9415 35.4222 68.2111 34.613 68.7502 33.893C69.2901 33.1722 70.0055 32.5588 70.8956 32.0533C71.7864 31.5481 72.7717 31.1649 73.8512 30.9036C74.9303 30.6415 76.0101 30.5104 77.0907 30.5104C78.0613 30.5104 78.9609 30.5946 79.7896 30.7626L79.8167 30.819C79.2042 31.1553 78.7628 31.6559 78.4928 32.3203C78.2236 32.9852 78.0574 33.762 77.9935 34.6512C77.9305 35.5395 77.8994 36.4984 77.8994 37.5278V39.5766C78.7097 39.6886 79.4566 39.9129 80.1405 40.2501C80.806 39.6143 81.3547 38.8939 81.7866 38.0885C82.218 37.2835 82.4342 36.4885 82.4342 35.7029C82.4342 35.1787 82.3393 34.7905 82.1503 34.5384C81.962 34.2854 81.7236 34.1585 81.4357 34.1585C81.2016 34.1585 80.9675 34.2381 80.7338 34.3973C80.4998 34.5566 80.3646 34.7673 80.3287 35.0294C80.1852 34.4488 80.2163 33.8876 80.4228 33.3456C80.6302 32.8027 80.9587 32.3581 81.4086 32.0118C81.8584 31.6659 82.3708 31.4925 82.9462 31.4925C83.2704 31.4925 83.5671 31.5585 83.8362 31.6899C84.1062 31.8206 84.3044 32.0168 84.4312 32.2789C85.0604 31.3432 85.8787 30.646 86.886 30.1869C87.894 29.7282 88.9918 29.5644 90.1797 29.6959L90.2069 29.8369C89.5593 29.8925 88.9563 30.1869 88.3981 30.7211C87.8406 31.2545 87.2919 31.928 86.752 32.7417C86.2117 33.5558 85.6582 34.445 85.0915 35.4093C84.5245 36.3727 83.9176 37.3221 83.27 38.2577C82.6224 39.1934 81.8938 40.0353 81.0848 40.7827C81.9844 41.3824 82.7711 42.1214 83.4454 43.0007C84.1205 43.8799 84.7143 44.8156 85.2271 45.8076C85.7395 46.7997 86.2073 47.778 86.6308 48.7423C87.0538 49.7057 87.4634 50.5846 87.8589 51.38C88.2545 52.1751 88.6724 52.8109 89.1127 53.2878C89.5537 53.7656 90.0537 54.0045 90.612 54.0045C91.0076 54.0045 91.268 53.8871 91.3936 53.6528C91.52 53.4193 91.5248 53.1854 91.4079 52.9511C91.2907 52.7176 91.0522 52.6193 90.6918 52.6558C91.1595 52.3381 91.6273 52.1796 92.0954 52.1796C92.5632 52.1796 92.9679 52.3057 93.3092 52.5579C93.6514 52.8109 93.8228 53.134 93.8228 53.5267C93.8228 53.9945 93.5485 54.3827 92.9998 54.6913C92.4511 54.9999 91.7541 55.1541 90.9087 55.1541C89.8292 55.1541 88.8894 54.9153 88.0886 54.4375C87.2879 53.9605 86.5769 53.3247 85.956 52.5297C85.3348 51.7342 84.7725 50.8508 84.2685 49.8787C83.7652 48.9057 83.2843 47.9186 82.825 46.9174C82.3664 45.9154 81.8895 44.9707 81.3942 44.0823C80.8997 43.1931 80.3558 42.4395 79.7625 41.8212C79.2042 42.2152 78.5829 42.5241 77.8994 42.7485V46.7051C77.8994 48.2405 78.0254 49.4287 78.2775 50.2702C78.5295 51.1129 78.943 51.6836 79.5184 51.9822L79.2217 52.6292C78.5921 52.3858 77.9445 52.3107 77.279 52.4036C77.2969 52.1979 77.2427 52.0196 77.1163 51.8694C76.9907 51.7201 76.82 51.6455 76.6043 51.6455C76.1545 51.6455 75.9296 51.898 75.9296 52.4036C75.9296 52.5164 75.9567 52.6193 76.0109 52.7122C75.2907 52.9552 74.5486 53.2364 73.7842 53.5549C73.0194 53.8734 72.1963 54.0327 71.3151 54.0327ZM74.3106 41.2604C74.3106 41.5789 74.6344 41.8129 75.282 41.9622V40.5587C74.6344 40.7271 74.3106 40.961 74.3106 41.2604ZM77.8994 41.7382C78.2599 41.6067 78.6288 41.4193 79.0064 41.1758C78.6818 40.9514 78.313 40.7644 77.8994 40.6151V41.7382Z" fill="#FFEACF"/>
</svg>
