<svg xmlns="http://www.w3.org/2000/svg" xmlns:xlink="http://www.w3.org/1999/xlink" width="1920" zoomAndPan="magnify" viewBox="0 0 1440 809.999993" height="1080" preserveAspectRatio="xMidYMid meet" version="1.0"><defs><clipPath id="d1226d035e"><path d="M 718 367 L 930 367 L 930 469.949219 L 718 469.949219 Z M 718 367 " clip-rule="nonzero"/></clipPath><clipPath id="8edb7c17f9"><path d="M 510 367 L 722 367 L 722 469.949219 L 510 469.949219 Z M 510 367 " clip-rule="nonzero"/></clipPath><clipPath id="235f74b2e8"><path d="M 761 340.199219 L 1015 340.199219 L 1015 462 L 761 462 Z M 761 340.199219 " clip-rule="nonzero"/></clipPath><clipPath id="fddbb5323d"><path d="M 425 340.199219 L 679 340.199219 L 679 462 L 425 462 Z M 425 340.199219 " clip-rule="nonzero"/></clipPath></defs><g clip-path="url(#d1226d035e)"><path fill="#294122" d="M 719.339844 368.804688 C 718.222656 372.144531 718.316406 378.527344 720.175781 384.351562 C 722.035156 390.179688 725.59375 395.316406 730.738281 399.621094 C 735.886719 403.925781 742.53125 407.359375 748.824219 409.332031 C 755.113281 411.308594 759.679688 411.988281 764.054688 412.238281 C 768.425781 412.492188 772.609375 412.300781 776.589844 411.617188 C 780.570312 410.9375 784.335938 409.765625 787.90625 408.027344 C 791.472656 406.285156 794.503906 404.082031 796.898438 401.414062 C 799.292969 398.746094 800.941406 395.621094 801.695312 392.171875 C 802.449219 388.722656 802.304688 385.125 800.476562 380.757812 C 798.652344 376.386719 795.695312 373.097656 792.039062 370.808594 C 788.382812 368.519531 784.183594 367.375 779.691406 367.351562 C 775.199219 367.328125 770.484375 368.3125 765.980469 370.269531 C 761.472656 372.230469 757.925781 374.898438 754.503906 378.347656 C 751.078125 381.796875 747.726562 386.015625 744.40625 391.003906 C 741.089844 395.992188 737.78125 401.757812 735.019531 407.222656 C 732.261719 412.691406 730.402344 417.125 729.0625 421.285156 C 727.722656 425.445312 726.917969 429.363281 726.691406 433.058594 C 726.460938 436.757812 726.871094 440.25 727.90625 443.613281 C 728.941406 446.976562 730.726562 450.503906 733.195312 453.648438 C 735.660156 456.792969 738.75 459.523438 742.402344 461.851562 C 746.058594 464.175781 750.246094 466.121094 754.675781 467.519531 C 759.101562 468.914062 763.316406 469.578125 767.683594 469.714844 C 772.050781 469.855469 776.558594 469.476562 781.191406 468.601562 C 785.824219 467.726562 790.589844 466.363281 793.953125 465.269531 C 797.316406 464.171875 800.90625 462.632812 806.09375 459.929688 C 811.28125 457.226562 818.265625 453.292969 827.042969 448.027344 C 835.824219 442.761719 846.367188 436.082031 853.027344 431.855469 C 859.691406 427.628906 861.519531 426.691406 863.246094 425.886719 C 864.976562 425.082031 866.605469 424.410156 868.128906 423.867188 C 869.652344 423.328125 871.066406 422.910156 874.003906 422.359375 C 876.941406 421.8125 881.890625 421.410156 887.386719 421.539062 C 892.886719 421.667969 898.929688 422.3125 905.539062 423.445312 C 912.144531 424.578125 919.382812 426.027344 925.050781 427.535156 C 930.71875 429.039062 930.71875 429.039062 927.042969 427.722656 C 927.042969 427.722656 920.011719 424.15625 913.234375 421.472656 C 906.453125 418.785156 899.96875 416.933594 893.828125 415.78125 C 887.691406 414.625 881.898438 414.171875 876.511719 414.375 C 871.125 414.582031 869.234375 414.894531 867.429688 415.328125 C 865.625 415.757812 863.746094 416.324219 861.792969 417.015625 C 859.835938 417.707031 857.800781 418.527344 855.5625 419.539062 C 853.320312 420.554688 841.175781 427.519531 831.050781 433.296875 C 820.921875 439.070312 812.816406 443.773438 806.625 447.1875 C 800.4375 450.605469 796.230469 452.707031 794.023438 453.519531 C 791.816406 454.328125 787.273438 455.90625 783.191406 456.945312 C 779.109375 457.988281 775.25 458.585938 771.617188 458.753906 C 767.980469 458.925781 764.558594 458.679688 761.382812 458.042969 C 758.207031 457.410156 754.480469 456 751.292969 454.363281 C 748.105469 452.722656 745.546875 450.914062 743.574219 448.960938 C 741.605469 447.007812 740.164062 444.910156 739.167969 442.53125 C 738.167969 440.152344 737.652344 438.234375 737.546875 436.027344 C 737.4375 433.820312 737.746094 431.113281 738.539062 427.925781 C 739.328125 424.738281 740.628906 421.101562 742.445312 417.046875 C 744.261719 412.992188 747.398438 407.035156 750.464844 401.929688 C 753.535156 396.820312 756.519531 392.574219 759.390625 389.195312 C 762.261719 385.816406 764.976562 383.300781 767.351562 381.6875 C 769.726562 380.070312 773.34375 378.902344 776.542969 378.433594 C 779.742188 377.964844 782.296875 378.179688 784.363281 378.960938 C 786.425781 379.738281 788.210938 381.117188 789.738281 383.0625 C 791.261719 385.007812 791.40625 386.394531 791.347656 388.1875 C 791.285156 389.984375 790.855469 391.527344 789.964844 393.023438 C 789.074219 394.515625 787.601562 396.039062 785.460938 397.550781 C 783.316406 399.058594 780.699219 400.28125 777.738281 401.210938 C 774.78125 402.140625 771.523438 402.742188 767.953125 402.996094 C 764.382812 403.25 760.492188 403.152344 756.421875 402.703125 C 752.351562 402.253906 745.375 400.21875 739.765625 397.480469 C 734.160156 394.742188 729.894531 391.304688 726.820312 387.113281 C 723.75 382.925781 721.800781 377.84375 720.691406 374.980469 C 719.726562 368.820312 719.199219 372.101562 719.339844 368.804688 Z M 719.339844 368.804688 " fill-opacity="1" fill-rule="nonzero"/></g><g clip-path="url(#8edb7c17f9)"><path fill="#294122" d="M 720.734375 368.804688 C 721.851562 372.144531 721.757812 378.527344 719.898438 384.351562 C 718.039062 390.179688 714.480469 395.316406 709.332031 399.621094 C 704.1875 403.925781 697.542969 407.359375 691.25 409.332031 C 684.957031 411.308594 680.394531 411.988281 676.019531 412.238281 C 671.648438 412.492188 667.464844 412.300781 663.484375 411.617188 C 659.5 410.9375 655.734375 409.765625 652.167969 408.027344 C 648.597656 406.285156 645.570312 404.082031 643.175781 401.414062 C 640.78125 398.746094 639.132812 395.621094 638.378906 392.171875 C 637.625 388.722656 637.769531 385.125 639.597656 380.757812 C 641.421875 376.386719 644.378906 373.097656 648.035156 370.808594 C 651.691406 368.519531 655.886719 367.375 660.378906 367.351562 C 664.871094 367.328125 669.589844 368.3125 674.09375 370.269531 C 678.597656 372.230469 682.144531 374.898438 685.570312 378.347656 C 688.996094 381.796875 692.347656 386.015625 695.664062 391.003906 C 698.984375 395.992188 702.292969 401.757812 705.050781 407.222656 C 707.8125 412.691406 709.671875 417.125 711.011719 421.285156 C 712.351562 425.445312 713.15625 429.363281 713.382812 433.058594 C 713.613281 436.757812 713.203125 440.25 712.167969 443.613281 C 711.132812 446.976562 709.347656 450.503906 706.878906 453.648438 C 704.414062 456.792969 701.324219 459.523438 697.671875 461.851562 C 694.015625 464.175781 689.828125 466.121094 685.398438 467.519531 C 680.972656 468.914062 676.757812 469.578125 672.390625 469.714844 C 668.019531 469.855469 663.515625 469.476562 658.882812 468.601562 C 654.25 467.726562 649.484375 466.363281 646.121094 465.269531 C 642.757812 464.171875 639.167969 462.632812 633.980469 459.929688 C 628.792969 457.226562 621.808594 453.292969 613.03125 448.027344 C 604.25 442.761719 593.707031 436.082031 587.046875 431.855469 C 580.382812 427.628906 578.554688 426.691406 576.828125 425.886719 C 575.097656 425.082031 573.46875 424.410156 571.945312 423.867188 C 570.421875 423.328125 569.007812 422.910156 566.070312 422.359375 C 563.132812 421.8125 558.183594 421.410156 552.683594 421.539062 C 547.1875 421.667969 541.144531 422.3125 534.535156 423.445312 C 527.925781 424.578125 520.691406 426.027344 515.023438 427.535156 C 509.355469 429.039062 509.355469 429.039062 513.027344 427.722656 C 513.027344 427.722656 520.0625 424.15625 526.839844 421.472656 C 533.621094 418.785156 540.105469 416.933594 546.246094 415.78125 C 552.382812 414.625 558.175781 414.171875 563.5625 414.375 C 568.949219 414.582031 570.839844 414.894531 572.644531 415.328125 C 574.449219 415.757812 576.328125 416.324219 578.28125 417.015625 C 580.238281 417.707031 582.269531 418.527344 584.511719 419.539062 C 586.753906 420.554688 598.898438 427.519531 609.023438 433.296875 C 619.152344 439.070312 627.257812 443.773438 633.445312 447.1875 C 639.636719 450.605469 643.84375 452.707031 646.050781 453.519531 C 648.257812 454.328125 652.800781 455.90625 656.882812 456.945312 C 660.964844 457.988281 664.824219 458.585938 668.457031 458.753906 C 672.09375 458.925781 675.515625 458.679688 678.691406 458.042969 C 681.867188 457.410156 685.59375 456 688.78125 454.363281 C 691.96875 452.722656 694.527344 450.914062 696.5 448.960938 C 698.46875 447.007812 699.910156 444.910156 700.90625 442.53125 C 701.90625 440.152344 702.421875 438.234375 702.527344 436.027344 C 702.636719 433.820312 702.324219 431.113281 701.535156 427.925781 C 700.746094 424.738281 699.445312 421.101562 697.628906 417.046875 C 695.8125 412.992188 692.675781 407.035156 689.605469 401.929688 C 686.539062 396.820312 683.550781 392.574219 680.683594 389.195312 C 677.8125 385.816406 675.09375 383.300781 672.722656 381.6875 C 670.347656 380.070312 666.730469 378.902344 663.53125 378.433594 C 660.332031 377.964844 657.777344 378.179688 655.710938 378.960938 C 653.648438 379.738281 651.863281 381.117188 650.335938 383.0625 C 648.8125 385.007812 648.667969 386.394531 648.726562 388.1875 C 648.789062 389.984375 649.214844 391.527344 650.109375 393.023438 C 651 394.515625 652.46875 396.039062 654.613281 397.550781 C 656.757812 399.058594 659.375 400.28125 662.335938 401.210938 C 665.292969 402.140625 668.550781 402.742188 672.121094 402.996094 C 675.691406 403.25 679.582031 403.152344 683.652344 402.703125 C 687.71875 402.253906 694.699219 400.21875 700.304688 397.480469 C 705.914062 394.742188 710.179688 391.304688 713.253906 387.113281 C 716.324219 382.925781 718.273438 377.84375 719.382812 374.980469 C 720.347656 368.820312 720.875 372.101562 720.734375 368.804688 Z M 720.734375 368.804688 " fill-opacity="1" fill-rule="nonzero"/></g><g clip-path="url(#235f74b2e8)"><path fill="#294122" d="M 761.136719 461.386719 C 763.675781 458.34375 768.285156 452.148438 773.976562 446.492188 C 779.671875 440.839844 786.609375 435.71875 794.855469 431.097656 C 803.101562 426.472656 812.699219 422.335938 819.6875 420.023438 C 826.675781 417.710938 830.613281 416.859375 834.8125 416.128906 C 839.015625 415.398438 843.476562 414.769531 848.195312 414.226562 C 852.914062 413.6875 857.898438 413.226562 862.835938 412.875 C 867.773438 412.523438 873.203125 412.25 879.828125 412.054688 C 886.449219 411.855469 894.257812 411.734375 903.238281 411.6875 C 912.21875 411.640625 922.375 411.671875 928.96875 411.679688 C 935.5625 411.6875 937.644531 411.605469 939.75 411.496094 C 941.859375 411.386719 943.992188 411.246094 946.152344 411.082031 C 948.3125 410.914062 950.496094 410.71875 954.226562 410.292969 C 957.960938 409.867188 962.96875 409.125 967.679688 408.21875 C 972.390625 407.3125 976.800781 406.238281 980.917969 404.996094 C 985.03125 403.75 988.851562 402.332031 993.980469 399.683594 C 999.109375 397.035156 1004.550781 393.019531 1008.429688 388.332031 C 1012.308594 383.644531 1014.390625 378.230469 1014.394531 372.457031 C 1014.398438 366.679688 1012.445312 360.902344 1008.472656 355.605469 C 1004.5 350.308594 999.78125 346.679688 994.507812 344.207031 C 989.234375 341.734375 983.5 340.433594 977.398438 340.316406 C 971.300781 340.199219 964.875 341.199219 959.296875 343.257812 C 953.714844 345.3125 950.332031 347.535156 947.707031 349.910156 C 945.085938 352.28125 943.269531 354.886719 942.40625 357.726562 C 941.542969 360.570312 941.730469 363.484375 943.695312 366.511719 C 945.660156 369.539062 948.476562 371.542969 951.566406 372.761719 C 954.65625 373.980469 957.960938 374.375 961.394531 373.957031 C 964.824219 373.539062 968.347656 372.296875 971.097656 371.214844 C 973.847656 370.136719 973.847656 370.136719 971.980469 370.71875 C 971.980469 370.71875 968.128906 371.460938 964.71875 371.488281 C 961.308594 371.515625 958.375 371.054688 955.855469 370.074219 C 953.339844 369.097656 951.167969 367.609375 949.378906 365.71875 C 947.589844 363.828125 947.484375 362.601562 947.730469 361.175781 C 947.980469 359.75 948.800781 358.324219 950.378906 356.777344 C 951.953125 355.230469 954.375 353.613281 957.445312 352.085938 C 960.519531 350.558594 966.335938 349.527344 971.710938 349.335938 C 977.082031 349.148438 981.828125 349.828125 986.019531 351.332031 C 990.207031 352.835938 993.929688 355.160156 997.15625 358.214844 C 1000.378906 361.273438 1002.414062 365.339844 1003.265625 368.929688 C 1004.117188 372.519531 1003.75 375.566406 1002.148438 378.5625 C 1000.550781 381.558594 997.433594 384.671875 992.5625 387.796875 C 987.6875 390.921875 984.796875 392.136719 981.320312 393.34375 C 977.84375 394.550781 974.023438 395.625 969.867188 396.5625 C 965.707031 397.5 961.214844 398.296875 956.371094 398.945312 C 951.527344 399.597656 949.480469 399.796875 947.390625 399.976562 C 945.296875 400.152344 943.234375 400.304688 941.203125 400.425781 C 939.171875 400.550781 937.167969 400.648438 935.265625 400.714844 C 933.367188 400.78125 922.429688 400.703125 912.609375 400.695312 C 902.789062 400.691406 894.125 400.765625 886.617188 400.914062 C 879.105469 401.0625 872.738281 401.289062 867.527344 401.597656 C 862.316406 401.902344 856.992188 402.292969 851.878906 402.816406 C 846.765625 403.34375 841.910156 404.074219 837.308594 404.949219 C 832.703125 405.820312 828.351562 406.832031 824.101562 408.035156 C 819.851562 409.242188 809.042969 413.855469 799.679688 419.066406 C 790.316406 424.277344 782.429688 430.09375 776.070312 436.492188 C 769.714844 442.890625 764.957031 449.839844 763.65625 453.753906 C 760.78125 461.230469 762.710938 457.828125 761.136719 461.386719 Z M 761.136719 461.386719 " fill-opacity="1" fill-rule="nonzero"/></g><g clip-path="url(#fddbb5323d)"><path fill="#294122" d="M 678.9375 461.386719 C 676.398438 458.34375 671.789062 452.148438 666.09375 446.492188 C 660.402344 440.839844 653.464844 435.71875 645.21875 431.097656 C 636.972656 426.472656 627.375 422.335938 620.386719 420.023438 C 613.398438 417.710938 609.460938 416.859375 605.257812 416.128906 C 601.058594 415.398438 596.597656 414.769531 591.878906 414.226562 C 587.15625 413.6875 582.175781 413.226562 577.238281 412.875 C 572.300781 412.523438 566.871094 412.25 560.246094 412.054688 C 553.625 411.855469 545.816406 411.734375 536.835938 411.6875 C 527.855469 411.640625 517.699219 411.671875 511.105469 411.679688 C 504.511719 411.6875 502.429688 411.605469 500.324219 411.496094 C 498.214844 411.386719 496.082031 411.246094 493.921875 411.082031 C 491.761719 410.914062 489.578125 410.71875 485.84375 410.292969 C 482.113281 409.867188 477.105469 409.125 472.394531 408.21875 C 467.683594 407.3125 463.273438 406.238281 459.15625 404.996094 C 455.042969 403.75 451.222656 402.332031 446.09375 399.683594 C 440.964844 397.035156 435.523438 393.019531 431.644531 388.332031 C 427.765625 383.644531 425.683594 378.230469 425.679688 372.457031 C 425.671875 366.679688 427.628906 360.902344 431.601562 355.605469 C 435.574219 350.308594 440.292969 346.679688 445.566406 344.207031 C 450.839844 341.734375 456.574219 340.433594 462.671875 340.316406 C 468.773438 340.199219 475.199219 341.199219 480.777344 343.257812 C 486.359375 345.3125 489.742188 347.535156 492.363281 349.910156 C 494.988281 352.28125 496.804688 354.886719 497.667969 357.726562 C 498.53125 360.570312 498.339844 363.484375 496.378906 366.511719 C 494.414062 369.539062 491.597656 371.542969 488.507812 372.761719 C 485.414062 373.980469 482.113281 374.375 478.679688 373.957031 C 475.246094 373.539062 471.726562 372.296875 468.976562 371.214844 C 466.222656 370.136719 466.222656 370.136719 468.09375 370.71875 C 468.09375 370.71875 471.941406 371.460938 475.355469 371.488281 C 478.765625 371.515625 481.699219 371.054688 484.214844 370.074219 C 486.734375 369.097656 488.90625 367.609375 490.695312 365.71875 C 492.484375 363.828125 492.589844 362.601562 492.34375 361.175781 C 492.09375 359.75 491.273438 358.324219 489.695312 356.777344 C 488.121094 355.230469 485.699219 353.613281 482.628906 352.085938 C 479.554688 350.558594 473.738281 349.527344 468.363281 349.335938 C 462.992188 349.148438 458.242188 349.828125 454.054688 351.332031 C 449.867188 352.835938 446.144531 355.160156 442.917969 358.214844 C 439.695312 361.273438 437.660156 365.339844 436.808594 368.929688 C 435.957031 372.519531 436.324219 375.566406 437.925781 378.5625 C 439.523438 381.558594 442.640625 384.671875 447.511719 387.796875 C 452.386719 390.921875 455.273438 392.136719 458.753906 393.34375 C 462.230469 394.550781 466.050781 395.625 470.207031 396.5625 C 474.367188 397.5 478.859375 398.296875 483.703125 398.945312 C 488.546875 399.597656 490.59375 399.796875 492.683594 399.976562 C 494.777344 400.152344 496.835938 400.304688 498.871094 400.425781 C 500.902344 400.550781 502.90625 400.648438 504.808594 400.714844 C 506.707031 400.78125 517.644531 400.703125 527.464844 400.695312 C 537.285156 400.691406 545.945312 400.765625 553.457031 400.914062 C 560.96875 401.0625 567.335938 401.289062 572.546875 401.597656 C 577.757812 401.902344 583.078125 402.292969 588.195312 402.816406 C 593.308594 403.34375 598.164062 404.074219 602.765625 404.949219 C 607.371094 405.820312 611.71875 406.832031 615.972656 408.035156 C 620.222656 409.242188 631.03125 413.855469 640.394531 419.066406 C 649.757812 424.277344 657.644531 430.09375 664.003906 436.492188 C 670.359375 442.890625 675.117188 449.839844 676.417969 453.753906 C 679.289062 461.230469 677.363281 457.828125 678.9375 461.386719 Z M 678.9375 461.386719 " fill-opacity="1" fill-rule="nonzero"/></g><path fill="#294122" d="M 823.503906 450.226562 C 825.898438 452.9375 831.8125 456.640625 838.425781 459.238281 C 845.035156 461.835938 852.25 463.363281 860 463.867188 C 867.746094 464.367188 875.996094 463.832031 882.078125 462.898438 C 888.160156 461.960938 891.921875 461.152344 895.90625 460.164062 C 899.894531 459.171875 904.101562 457.996094 908.535156 456.625 C 912.964844 455.257812 917.617188 453.695312 936.140625 446.082031 C 954.664062 438.464844 986.695312 424.929688 988.65625 424.136719 C 990.617188 423.34375 992.734375 422.519531 994.992188 421.667969 C 997.246094 420.816406 999.640625 419.941406 1002.171875 419.039062 C 1004.707031 418.136719 1007.355469 417.21875 1012.75 415.484375 C 1018.144531 413.746094 1023.390625 412.285156 1028.507812 411.085938 C 1033.625 409.886719 1038.613281 408.949219 1043.476562 408.277344 C 1048.339844 407.605469 1052.875 407.199219 1060.339844 407.476562 C 1067.804688 407.753906 1073.769531 408.828125 1078.269531 410.574219 C 1082.769531 412.324219 1085.917969 414.714844 1088.015625 417.824219 C 1090.113281 420.9375 1091.207031 424.335938 1090.152344 426.40625 C 1089.09375 428.480469 1087.285156 431.019531 1084.746094 433.40625 C 1082.203125 435.792969 1078.882812 438.023438 1074.746094 440.039062 C 1070.609375 442.058594 1065.730469 443.832031 1063.265625 444.25 C 1060.800781 444.664062 1058.289062 444.886719 1055.847656 444.890625 C 1053.402344 444.894531 1051.019531 444.675781 1048.679688 444.246094 C 1046.339844 443.820312 1044.089844 443.21875 1043.625 442.941406 C 1043.160156 442.664062 1042.972656 442.289062 1043.074219 441.441406 C 1043.171875 440.59375 1043.75 439.269531 1044.292969 437.921875 C 1044.835938 436.574219 1044.835938 436.574219 1044.246094 437.308594 C 1044.246094 437.308594 1042.386719 438.292969 1041.492188 439.644531 C 1040.597656 441 1040.320312 442.4375 1040.875 443.804688 C 1041.425781 445.167969 1042.707031 446.171875 1045.152344 447.238281 C 1047.597656 448.304688 1050.144531 449.105469 1052.816406 449.621094 C 1055.488281 450.136719 1058.277344 450.382812 1061.164062 450.367188 C 1064.050781 450.351562 1067.28125 450.03125 1072.613281 448.441406 C 1077.941406 446.851562 1082.570312 444.820312 1086.539062 442.3125 C 1090.503906 439.808594 1093.761719 436.78125 1096.253906 433.25 C 1098.742188 429.71875 1100.59375 424.40625 1098.667969 418.335938 C 1096.742188 412.261719 1093.109375 407.527344 1087.984375 404.042969 C 1082.855469 400.558594 1076.453125 398.308594 1068.859375 397.265625 C 1061.261719 396.21875 1052.507812 396.234375 1047.261719 396.78125 C 1042.015625 397.324219 1036.761719 398.136719 1031.40625 399.226562 C 1026.050781 400.316406 1020.585938 401.675781 1015.019531 403.308594 C 1009.453125 404.945312 1003.828125 406.832031 1001.140625 407.773438 C 998.449219 408.710938 995.902344 409.628906 993.488281 410.519531 C 991.070312 411.414062 988.789062 412.285156 986.636719 413.132812 C 984.480469 413.984375 982.429688 414.824219 950.425781 428.394531 C 918.417969 441.964844 913.960938 443.714844 909.589844 445.355469 C 905.21875 446.996094 901.082031 448.460938 897.183594 449.742188 C 893.28125 451.019531 889.613281 452.109375 886.21875 453.019531 C 882.828125 453.929688 874.851562 455.613281 867.414062 456.390625 C 859.976562 457.167969 852.953125 457.070312 846.300781 456.082031 C 839.644531 455.09375 833.296875 453.242188 829.945312 452.492188 C 823.714844 449.898438 826.382812 452.066406 823.503906 450.226562 Z M 823.503906 450.226562 " fill-opacity="1" fill-rule="nonzero"/><path fill="#294122" d="M 616.570312 450.226562 C 614.175781 452.9375 608.261719 456.640625 601.648438 459.238281 C 595.035156 461.835938 587.820312 463.367188 580.074219 463.867188 C 572.324219 464.367188 564.078125 463.832031 557.996094 462.898438 C 551.914062 461.960938 548.152344 461.152344 544.164062 460.164062 C 540.179688 459.171875 535.972656 457.996094 531.539062 456.625 C 527.109375 455.257812 522.457031 453.695312 503.933594 446.082031 C 485.410156 438.464844 453.378906 424.929688 451.417969 424.136719 C 449.453125 423.34375 447.339844 422.519531 445.082031 421.667969 C 442.828125 420.816406 440.433594 419.941406 437.902344 419.039062 C 435.367188 418.136719 432.71875 417.21875 427.324219 415.484375 C 421.929688 413.746094 416.683594 412.285156 411.566406 411.085938 C 406.449219 409.886719 401.457031 408.949219 396.597656 408.277344 C 391.734375 407.605469 387.199219 407.199219 379.734375 407.476562 C 372.269531 407.753906 366.304688 408.828125 361.804688 410.574219 C 357.300781 412.324219 354.15625 414.714844 352.058594 417.824219 C 349.960938 420.9375 348.867188 424.335938 349.921875 426.40625 C 350.976562 428.480469 352.789062 431.019531 355.328125 433.40625 C 357.871094 435.792969 361.191406 438.023438 365.328125 440.039062 C 369.464844 442.058594 374.34375 443.832031 376.804688 444.25 C 379.269531 444.664062 381.78125 444.886719 384.226562 444.890625 C 386.671875 444.894531 389.054688 444.675781 391.394531 444.246094 C 393.730469 443.820312 395.984375 443.21875 396.449219 442.941406 C 396.914062 442.664062 397.101562 442.289062 397 441.441406 C 396.902344 440.59375 396.324219 439.269531 395.777344 437.921875 C 395.234375 436.574219 395.234375 436.574219 395.824219 437.308594 C 395.824219 437.308594 397.6875 438.292969 398.582031 439.644531 C 399.472656 441 399.753906 442.4375 399.199219 443.804688 C 398.644531 445.167969 397.367188 446.171875 394.921875 447.238281 C 392.476562 448.304688 389.929688 449.105469 387.257812 449.621094 C 384.582031 450.136719 381.796875 450.382812 378.910156 450.367188 C 376.023438 450.351562 372.789062 450.03125 367.460938 448.441406 C 362.132812 446.851562 357.503906 444.820312 353.535156 442.3125 C 349.566406 439.808594 346.3125 436.78125 343.820312 433.25 C 341.332031 429.71875 339.480469 424.40625 341.40625 418.335938 C 343.332031 412.261719 346.964844 407.527344 352.089844 404.042969 C 357.21875 400.558594 363.621094 398.308594 371.214844 397.265625 C 378.8125 396.21875 387.566406 396.234375 392.8125 396.78125 C 398.058594 397.324219 403.3125 398.136719 408.667969 399.226562 C 414.023438 400.316406 419.484375 401.675781 425.050781 403.308594 C 430.617188 404.945312 436.246094 406.832031 438.933594 407.773438 C 441.625 408.710938 444.171875 409.628906 446.585938 410.519531 C 449 411.414062 451.285156 412.285156 453.4375 413.132812 C 455.589844 413.984375 457.644531 414.824219 489.648438 428.394531 C 521.65625 441.964844 526.109375 443.714844 530.484375 445.355469 C 534.855469 446.996094 538.988281 448.460938 542.890625 449.742188 C 546.792969 451.019531 550.460938 452.109375 553.851562 453.019531 C 557.246094 453.929688 565.222656 455.613281 572.660156 456.390625 C 580.097656 457.167969 587.121094 457.070312 593.773438 456.082031 C 600.429688 455.09375 606.777344 453.242188 610.128906 452.492188 C 616.359375 449.898438 613.6875 452.066406 616.570312 450.226562 Z M 616.570312 450.226562 " fill-opacity="1" fill-rule="nonzero"/><path fill="#294122" d="M 1088 418.410156 L 1092.308594 419.042969 L 1098.421875 419.660156 C 1103.097656 420.066406 1108.667969 420.453125 1115.132812 420.820312 C 1128.371094 421.566406 1143.335938 422.175781 1160.027344 422.660156 C 1168.21875 422.894531 1176.378906 423.085938 1184.511719 423.230469 L 1196.453125 423.40625 C 1208.746094 423.53125 1226.042969 423.59375 1248.335938 423.589844 C 1281.761719 423.5 1317.613281 422.933594 1355.894531 421.890625 C 1374.605469 421.332031 1389.621094 420.75 1400.933594 420.136719 C 1410.535156 419.671875 1420.1875 419.03125 1429.890625 418.21875 L 1385.488281 415.703125 L 1374.050781 415.113281 C 1366.175781 414.75 1358.058594 414.4375 1349.691406 414.175781 C 1332.710938 413.65625 1316.226562 413.292969 1300.230469 413.085938 C 1286.695312 412.878906 1270.714844 412.761719 1252.285156 412.734375 C 1233.8125 412.757812 1218.152344 412.867188 1205.300781 413.0625 C 1189.996094 413.257812 1175.0625 413.605469 1160.5 414.105469 C 1153.371094 414.359375 1146.796875 414.660156 1140.78125 415.011719 L 1114.621094 416.636719 C 1107.382812 417.097656 1100.613281 417.652344 1094.3125 418.3125 C 1094.441406 418.359375 1092.335938 418.390625 1088 418.410156 " fill-opacity="1" fill-rule="nonzero"/><path fill="#294122" d="M 352.074219 418.410156 L 347.765625 419.042969 L 341.652344 419.660156 C 336.976562 420.066406 331.40625 420.453125 324.941406 420.820312 C 311.703125 421.566406 296.738281 422.175781 280.046875 422.660156 C 271.855469 422.894531 263.691406 423.085938 255.5625 423.230469 L 243.621094 423.40625 C 231.328125 423.53125 214.03125 423.59375 191.734375 423.589844 C 158.3125 423.5 122.460938 422.933594 84.179688 421.890625 C 65.464844 421.332031 50.453125 420.75 39.140625 420.136719 C 29.539062 419.671875 19.886719 419.03125 10.183594 418.21875 L 54.582031 415.703125 L 66.023438 415.113281 C 73.894531 414.75 82.015625 414.4375 90.382812 414.175781 C 107.363281 413.65625 123.847656 413.292969 139.839844 413.085938 C 153.378906 412.878906 169.359375 412.761719 187.789062 412.734375 C 206.261719 412.757812 221.921875 412.867188 234.773438 413.0625 C 250.078125 413.257812 265.011719 413.605469 279.574219 414.105469 C 286.703125 414.359375 293.277344 414.660156 299.292969 415.011719 L 325.453125 416.636719 C 332.691406 417.097656 339.460938 417.652344 345.761719 418.3125 C 345.632812 418.359375 347.738281 418.390625 352.074219 418.410156 " fill-opacity="1" fill-rule="nonzero"/><path fill="#294122" d="M 1434.804688 417.414062 L 1434.621094 419.726562 C 1433.753906 424.386719 1431.21875 428.113281 1427.015625 430.910156 C 1422.78125 433.703125 1417.796875 434.832031 1412.0625 434.304688 C 1406.585938 433.566406 1402.210938 431.410156 1398.925781 427.832031 C 1397.875 426.675781 1397.007812 425.414062 1396.328125 424.050781 L 1395.46875 421.945312 C 1395 420.5 1394.761719 418.988281 1394.753906 417.414062 C 1394.898438 412.585938 1396.851562 408.566406 1400.621094 405.359375 C 1404.386719 402.152344 1409.105469 400.488281 1414.777344 400.367188 C 1420.453125 400.488281 1425.171875 402.152344 1428.9375 405.359375 C 1432.703125 408.566406 1434.660156 412.585938 1434.804688 417.414062 " fill-opacity="1" fill-rule="nonzero"/><path fill="#294122" d="M 5.269531 417.414062 L 5.453125 419.726562 C 6.320312 424.386719 8.855469 428.113281 13.058594 430.910156 C 17.292969 433.703125 22.277344 434.832031 28.011719 434.304688 C 33.484375 433.566406 37.863281 431.410156 41.144531 427.832031 C 42.199219 426.675781 43.0625 425.414062 43.746094 424.050781 L 44.601562 421.945312 C 45.074219 420.5 45.3125 418.988281 45.320312 417.414062 C 45.175781 412.585938 43.21875 408.566406 39.453125 405.359375 C 35.6875 402.152344 30.96875 400.488281 25.292969 400.367188 C 19.621094 400.488281 14.902344 402.152344 11.136719 405.359375 C 7.367188 408.566406 5.414062 412.585938 5.269531 417.414062 " fill-opacity="1" fill-rule="nonzero"/></svg>