<svg xmlns="http://www.w3.org/2000/svg" xmlns:xlink="http://www.w3.org/1999/xlink" width="1920" zoomAndPan="magnify" viewBox="0 0 1440 809.999993" height="1080" preserveAspectRatio="xMidYMid meet" version="1.0"><defs><g/></defs><g fill="#294122" fill-opacity="1"><g transform="translate(398.049068, 605.040234)"><g><path d="M 95.5625 97.609375 C 74.625 97.609375 59.488281 93.285156 50.15625 84.640625 C 40.832031 75.992188 36.171875 67.117188 36.171875 58.015625 C 36.171875 48.921875 38.785156 41.984375 44.015625 37.203125 C 49.253906 32.421875 55.0625 30.03125 61.4375 30.03125 C 67.800781 30.03125 73.710938 32.078125 79.171875 36.171875 C 84.640625 40.265625 87.375 46.863281 87.375 55.96875 C 87.375 60.0625 86.234375 64.382812 83.953125 68.9375 C 86.679688 69.851562 89.410156 70.421875 92.140625 70.640625 C 94.878906 70.867188 97.382812 70.984375 99.65625 70.984375 C 123.769531 70.984375 142.765625 64.382812 156.640625 51.1875 C 170.523438 38 180.539062 21.503906 186.6875 1.703125 C 192.832031 -18.085938 195.90625 -38.222656 195.90625 -58.703125 L 195.90625 -167.921875 C 171.332031 -168.828125 152.332031 -173.375 138.90625 -181.5625 C 125.476562 -189.757812 118.765625 -199.085938 118.765625 -209.546875 C 118.765625 -219.554688 125.132812 -228.769531 137.875 -237.1875 C 150.625 -245.613281 169.96875 -251.421875 195.90625 -254.609375 L 195.90625 -268.25 C 195.90625 -299.195312 194.878906 -322.40625 192.828125 -337.875 C 190.773438 -353.34375 187.585938 -364.265625 183.265625 -370.640625 C 178.941406 -377.015625 173.140625 -381.566406 165.859375 -384.296875 L 165.859375 -385.65625 C 185.890625 -387.476562 205.117188 -394.53125 223.546875 -406.8125 C 241.972656 -419.101562 254.375 -434.347656 260.75 -452.546875 C 239.8125 -453.003906 219.21875 -450.726562 198.96875 -445.71875 C 178.71875 -440.71875 160.515625 -433.550781 144.359375 -424.21875 C 128.210938 -414.894531 115.359375 -403.859375 105.796875 -391.109375 C 96.242188 -378.367188 91.46875 -364.71875 91.46875 -350.15625 C 91.46875 -341.96875 93.628906 -335.710938 97.953125 -331.390625 C 102.273438 -327.066406 107.394531 -324.90625 113.3125 -324.90625 C 118.3125 -324.90625 123.085938 -326.15625 127.640625 -328.65625 C 132.191406 -331.164062 136.0625 -335.601562 139.25 -341.96875 C 138.332031 -321.039062 131.273438 -303.519531 118.078125 -289.40625 C 104.890625 -275.300781 88.507812 -268.25 68.9375 -268.25 C 51.644531 -268.25 37.535156 -274.164062 26.609375 -286 C 15.691406 -297.832031 10.234375 -313.53125 10.234375 -333.09375 C 10.234375 -354.9375 17.054688 -374.617188 30.703125 -392.140625 C 44.359375 -409.660156 62.445312 -424.5625 84.96875 -436.84375 C 107.5 -449.132812 132.414062 -458.460938 159.71875 -464.828125 C 187.019531 -471.203125 214.320312 -474.390625 241.625 -474.390625 C 266.195312 -474.390625 288.953125 -472.34375 309.890625 -468.25 L 310.578125 -466.890625 C 295.097656 -458.691406 283.945312 -446.515625 277.125 -430.359375 C 270.300781 -414.210938 266.09375 -395.328125 264.5 -373.703125 C 262.90625 -352.085938 262.109375 -328.769531 262.109375 -303.75 L 262.109375 -253.921875 C 282.585938 -251.191406 301.472656 -245.726562 318.765625 -237.53125 C 335.597656 -253.007812 349.472656 -270.53125 360.390625 -290.09375 C 371.316406 -309.664062 376.78125 -329.003906 376.78125 -348.109375 C 376.78125 -360.859375 374.390625 -370.300781 369.609375 -376.4375 C 364.835938 -382.582031 358.8125 -385.65625 351.53125 -385.65625 C 345.613281 -385.65625 339.695312 -383.71875 333.78125 -379.84375 C 327.863281 -375.976562 324.453125 -370.863281 323.546875 -364.5 C 319.898438 -378.601562 320.691406 -392.253906 325.921875 -405.453125 C 331.160156 -418.648438 339.46875 -429.457031 350.84375 -437.875 C 362.21875 -446.289062 375.1875 -450.5 389.75 -450.5 C 397.9375 -450.5 405.441406 -448.90625 412.265625 -445.71875 C 419.097656 -442.539062 424.109375 -437.765625 427.296875 -431.390625 C 443.222656 -454.140625 463.925781 -471.085938 489.40625 -482.234375 C 514.894531 -493.390625 542.65625 -497.375 572.6875 -494.1875 L 573.359375 -490.78125 C 556.984375 -489.40625 541.738281 -482.234375 527.625 -469.265625 C 513.519531 -456.296875 499.640625 -439.914062 485.984375 -420.125 C 472.335938 -400.332031 458.347656 -378.71875 444.015625 -355.28125 C 429.679688 -331.84375 414.320312 -308.75 397.9375 -286 C 381.5625 -263.25 363.132812 -242.769531 342.65625 -224.5625 C 365.40625 -210 385.3125 -192.023438 402.375 -170.640625 C 419.4375 -149.253906 434.453125 -126.5 447.421875 -102.375 C 460.398438 -78.257812 472.234375 -54.484375 482.921875 -31.046875 C 493.617188 -7.617188 503.972656 13.757812 513.984375 33.09375 C 523.992188 52.4375 534.570312 67.910156 545.71875 79.515625 C 556.863281 91.117188 569.492188 96.921875 583.609375 96.921875 C 593.617188 96.921875 600.210938 94.078125 603.390625 88.390625 C 606.578125 82.703125 606.691406 77.015625 603.734375 71.328125 C 600.773438 65.640625 594.75 63.25 585.65625 64.15625 C 597.488281 56.425781 609.316406 52.5625 621.140625 52.5625 C 632.972656 52.5625 643.210938 55.628906 651.859375 61.765625 C 660.503906 67.910156 664.828125 75.765625 664.828125 85.328125 C 664.828125 96.703125 657.882812 106.140625 644 113.640625 C 630.125 121.148438 612.492188 124.90625 591.109375 124.90625 C 563.804688 124.90625 540.03125 119.101562 519.78125 107.5 C 499.53125 95.894531 481.554688 80.421875 465.859375 61.078125 C 450.160156 41.742188 435.941406 20.25 423.203125 -3.40625 C 410.460938 -27.070312 398.289062 -51.078125 386.6875 -75.421875 C 375.082031 -99.765625 363.019531 -122.742188 350.5 -144.359375 C 337.988281 -165.972656 324.222656 -184.289062 309.203125 -199.3125 C 295.097656 -189.757812 279.398438 -182.25 262.109375 -176.78125 L 262.109375 -80.546875 C 262.109375 -43.234375 265.289062 -14.335938 271.65625 6.140625 C 278.03125 26.617188 288.5 40.5 303.0625 47.78125 L 295.5625 63.484375 C 279.632812 57.566406 263.25 55.742188 246.40625 58.015625 C 246.863281 53.015625 245.5 48.691406 242.3125 45.046875 C 239.125 41.410156 234.800781 39.59375 229.34375 39.59375 C 217.96875 39.59375 212.28125 45.734375 212.28125 58.015625 C 212.28125 60.742188 212.960938 63.25 214.328125 65.53125 C 196.128906 71.445312 177.359375 78.269531 158.015625 86 C 138.671875 93.738281 117.851562 97.609375 95.5625 97.609375 Z M 171.328125 -212.96875 C 171.328125 -205.226562 179.519531 -199.539062 195.90625 -195.90625 L 195.90625 -230.03125 C 179.519531 -225.9375 171.328125 -220.25 171.328125 -212.96875 Z M 262.109375 -201.359375 C 271.210938 -204.546875 280.539062 -209.097656 290.09375 -215.015625 C 281.90625 -220.472656 272.578125 -225.019531 262.109375 -228.65625 Z M 262.109375 -201.359375 "/></g></g></g></svg>