<svg width="1920" height="155" viewBox="0 0 1920 155" fill="none" xmlns="http://www.w3.org/2000/svg">
<mask id="mask0_762_4" style="mask-type:luminance" maskUnits="userSpaceOnUse" x="0" y="0" width="1920" height="87">
<path d="M0 0H1920V86.4688H0V0Z" fill="white"/>
</mask>
<g mask="url(#mask0_762_4)">
<path d="M0 -21.5312H1919.95V86.4688H0V-21.5312Z" fill="#294122"/>
</g>
<mask id="mask1_762_4" style="mask-type:luminance" maskUnits="userSpaceOnUse" x="0" y="61" width="768" height="94">
<path d="M0 61.7031H768V154.667H0V61.7031Z" fill="white"/>
</mask>
<g mask="url(#mask1_762_4)">
<path d="M0 -54.2031V101.234C2.38542 102.38 4.49479 104.948 4.67708 109.536C4.58854 109.901 15.8229 106.438 16.651 105.844C14.6094 105.75 30.4792 103.438 28.276 101.531C29.0104 101.625 39.651 99.7448 39.9479 97.6562C43.1354 103.182 54.9896 109.583 52.3333 99.3281C54.026 102.562 63.0885 97.3802 64.0729 98.6667C63.4062 95.4115 75.651 96.875 76.2031 99.0781C74.5521 93.5052 87.7865 100.547 87.7865 94.1042C87.7865 97.6562 100.578 104.396 100.578 102.495C100.578 97.4948 111.609 84.724 111.609 91.4896C111.609 92.2448 124.203 101.37 124.203 97.474C124.203 96.2812 133.948 105.271 133.948 91.099C133.948 85.9583 144.266 88.5312 144.266 93.4583C144.266 94.8594 153.349 104.974 153.349 98.6198C153.349 97.2917 166.854 93.6406 166.854 102.333C166.854 109.12 180.432 107.469 180.432 107.885C180.432 110.13 193.25 110.958 193.25 112.354C193.25 110.521 205.75 103.87 205.75 107.859C205.75 107.495 217.396 107.516 217.396 101.786C217.396 99.2135 229.552 106.026 229.552 100.938C229.552 99.4896 241.568 99.5365 241.568 96.4844C241.568 100.865 253.724 102.792 253.724 104.375C253.724 99.375 266.219 88.4375 266.219 96.7604C266.219 100.635 277.25 108.708 277.25 108.411C277.25 101.464 289.474 115.656 289.474 107.01C289.474 104.63 301.24 109.146 301.24 109.26C301.24 103.25 312.13 112.839 312.13 115.703C312.13 124.099 324.927 111.714 324.927 113.203C324.927 114.766 336.828 106.094 336.828 115.151C336.828 119.443 346.875 132.469 346.875 124.349C346.875 129.76 358.708 125.656 358.708 126.484C358.708 123.682 372.375 128.177 372.375 121.76C372.375 124.255 382.922 126.208 382.922 128.938C382.922 124.901 395.51 133.406 395.51 128.177C395.51 130.495 407.484 128.635 407.484 129.625C407.484 128.958 418.469 130.771 418.469 135.401C418.469 132.49 429.979 137.099 429.979 137.786C429.979 137.995 440.943 140.792 440.943 143.542C440.943 139.323 452.589 148.682 452.589 145.724C452.589 143.083 464.333 142.578 464.333 147.281C464.333 146.573 476.578 146.891 476.578 143.979C476.578 146.432 488.25 144.094 488.25 145.536C488.25 148.589 499.74 147.375 499.74 150.953C499.74 151.984 511.547 152.531 511.547 153.036C511.547 159.25 523.495 142.969 523.495 148.016C523.495 145.792 535.354 151.844 535.354 153.266C535.354 155.583 547.047 140.104 547.047 147.417C547.047 151.708 558.698 146.344 558.698 145.01C558.698 139.578 573.26 149.964 573.26 151.5C573.26 155.146 585.641 136.573 585.641 141.661C585.641 149.141 598.552 139.849 598.552 138.521C598.552 137.354 609.698 131.526 609.698 130.677C609.698 134.323 622.016 127.698 622.016 127.536C622.016 126.896 635.271 120.635 635.271 131.62C635.271 130.677 646.984 120.771 646.984 120.865C646.984 122.719 659.438 129.255 659.438 127.26C659.438 128.109 671.641 128.797 671.641 129.281C671.641 130.677 684.823 129.328 684.823 128.823C684.823 128.042 695.651 146.891 695.651 138.427C695.651 134.396 707.667 148.656 707.667 146.021C707.667 145.286 721.677 137.74 722.318 138.521C723.693 136.661 732.432 139.005 733.922 137.01C736.307 141.229 746.49 134.781 747.474 132.995C748.734 145.01 757.953 132.583 759.677 127.469C761.875 132.281 765.958 133.156 767.979 132.536V-54.2031H0Z" fill="#294122"/>
</g>
<mask id="mask2_762_4" style="mask-type:luminance" maskUnits="userSpaceOnUse" x="0" y="61" width="768" height="82">
<path d="M0 61.7031H768V142.667H0V61.7031Z" fill="white"/>
</mask>
<g mask="url(#mask2_762_4)">
<path d="M0 -66.4688V88.9635C2.38542 90.1094 4.49479 92.6823 4.67708 97.2656C4.58854 97.6354 15.8229 94.1719 16.651 93.5729C14.6094 93.4844 30.4792 91.1667 28.276 89.2656C29.0104 89.3542 39.651 87.474 39.9479 85.3854C43.1354 90.9167 54.9896 97.3125 52.3333 87.0625C54.026 90.2969 63.0885 85.1146 64.0729 86.3958C63.4062 83.1406 75.651 84.6094 76.2031 86.8073C74.5521 81.2344 87.7865 88.276 87.7865 81.8333C87.7865 85.3854 100.578 92.1302 100.578 90.224C100.578 85.2292 111.609 72.4531 111.609 79.2188C111.609 79.974 124.203 89.1042 124.203 85.2031C124.203 84.0104 133.948 93 133.948 78.8281C133.948 73.6927 144.266 76.2604 144.266 81.1927C144.266 82.5885 153.349 92.7031 153.349 86.349C153.349 85.0208 166.854 81.375 166.854 90.0677C166.854 96.8542 180.432 95.2031 180.432 95.6146C180.432 97.8646 193.25 98.6875 193.25 100.089C193.25 98.25 205.75 91.6042 205.75 95.5938C205.75 95.224 217.396 95.25 217.396 89.5156C217.396 86.9479 229.552 93.7552 229.552 88.6667C229.552 87.224 241.568 87.2656 241.568 84.2188C241.568 88.599 253.724 90.526 253.724 92.1042C253.724 87.1094 266.219 76.1667 266.219 84.4948C266.219 88.3698 277.25 96.4427 277.25 96.1406C277.25 89.1927 289.474 103.391 289.474 94.7448C289.474 92.3594 301.24 96.875 301.24 96.9896C301.24 90.9844 312.13 100.568 312.13 103.438C312.13 111.828 324.927 99.4427 324.927 100.938C324.927 102.495 336.828 93.8281 336.828 102.885C336.828 107.172 346.875 120.198 346.875 112.078C346.875 117.495 358.708 113.385 358.708 114.214C358.708 111.417 372.375 115.911 372.375 109.49C372.375 111.99 382.922 113.938 382.922 116.667C382.922 112.63 395.51 121.141 395.51 115.911C395.51 118.224 407.484 116.37 407.484 117.354C407.484 116.688 418.469 118.5 418.469 123.135C418.469 120.224 429.979 124.833 429.979 125.521C429.979 125.724 440.943 128.521 440.943 131.276C440.943 127.057 452.589 136.411 452.589 133.453C452.589 130.818 464.333 130.312 464.333 135.01C464.333 134.302 476.578 134.625 476.578 131.708C476.578 134.167 488.25 131.823 488.25 133.271C488.25 136.318 499.74 135.104 499.74 138.682C499.74 139.714 511.547 140.266 511.547 140.771C511.547 146.984 523.495 130.703 523.495 135.745C523.495 133.521 535.354 139.578 535.354 141C535.354 143.312 547.047 127.833 547.047 135.151C547.047 139.438 558.698 134.073 558.698 132.745C558.698 127.307 573.26 137.698 573.26 139.234C573.26 142.88 585.641 124.302 585.641 129.396C585.641 136.87 598.552 127.583 598.552 126.255C598.552 125.083 609.698 119.26 609.698 118.411C609.698 122.057 622.016 115.427 622.016 115.266C622.016 114.625 635.271 108.365 635.271 119.349C635.271 118.411 646.984 108.505 646.984 108.594C646.984 110.453 659.438 116.99 659.438 114.995C659.438 115.844 671.641 116.531 671.641 117.01C671.641 118.411 684.823 117.057 684.823 116.552C684.823 115.771 695.651 134.625 695.651 126.161C695.651 122.125 707.667 136.391 707.667 133.75C707.667 133.016 721.677 125.474 722.318 126.255C723.693 124.396 732.432 126.734 733.922 124.74C736.307 128.958 746.49 122.516 747.474 120.724C748.734 132.745 757.953 120.312 759.677 115.198C761.875 120.016 765.958 120.885 767.979 120.266V-66.4688H0Z" fill="#294122"/>
</g>
<mask id="mask3_762_4" style="mask-type:luminance" maskUnits="userSpaceOnUse" x="764" y="61" width="769" height="94">
<path d="M764.802 61.7031H1532.8V154.667H764.802V61.7031Z" fill="white"/>
</mask>
<g mask="url(#mask3_762_4)">
<path d="M1532.8 -54.2031V101.234C1530.42 102.38 1528.31 104.948 1528.12 109.536C1528.22 109.901 1516.98 106.438 1516.16 105.844C1518.19 105.75 1502.33 103.438 1504.53 101.531C1503.79 101.625 1493.15 99.7448 1492.85 97.6562C1489.67 103.182 1477.81 109.583 1480.47 99.3281C1478.78 102.562 1469.72 97.3802 1468.73 98.6667C1469.4 95.4115 1457.15 96.875 1456.6 99.0781C1458.25 93.5052 1445.02 100.547 1445.02 94.1042C1445.02 97.6562 1432.22 104.396 1432.22 102.495C1432.22 97.4948 1421.19 84.724 1421.19 91.4896C1421.19 92.2448 1408.6 101.37 1408.6 97.474C1408.6 96.2812 1398.85 105.271 1398.85 91.099C1398.85 85.9583 1388.54 88.5312 1388.54 93.4583C1388.54 94.8594 1379.45 104.974 1379.45 98.6198C1379.45 97.2917 1365.95 93.6406 1365.95 102.333C1365.95 109.12 1352.37 107.469 1352.37 107.885C1352.37 110.13 1339.55 110.958 1339.55 112.354C1339.55 110.521 1327.06 103.87 1327.06 107.859C1327.06 107.495 1315.41 107.516 1315.41 101.786C1315.41 99.2135 1303.25 106.026 1303.25 100.938C1303.25 99.4896 1291.23 99.5365 1291.23 96.4844C1291.23 100.865 1279.08 102.792 1279.08 104.375C1279.08 99.375 1266.58 88.4375 1266.58 96.7604C1266.58 100.635 1255.55 108.708 1255.55 108.411C1255.55 101.464 1243.33 115.656 1243.33 107.01C1243.33 104.63 1231.57 109.146 1231.57 109.26C1231.57 103.25 1220.67 112.839 1220.67 115.703C1220.67 124.099 1207.88 111.714 1207.88 113.203C1207.88 114.766 1195.97 106.094 1195.97 115.151C1195.97 119.443 1185.93 132.469 1185.93 124.349C1185.93 129.76 1174.1 125.656 1174.1 126.484C1174.1 123.682 1160.43 128.177 1160.43 121.76C1160.43 124.255 1149.88 126.208 1149.88 128.938C1149.88 124.901 1137.29 133.406 1137.29 128.177C1137.29 130.495 1125.32 128.635 1125.32 129.625C1125.32 128.958 1114.33 130.771 1114.33 135.401C1114.33 132.49 1102.82 137.099 1102.82 137.786C1102.82 137.995 1091.86 140.792 1091.86 143.542C1091.86 139.323 1080.21 148.682 1080.21 145.724C1080.21 143.083 1068.47 142.578 1068.47 147.281C1068.47 146.573 1056.22 146.891 1056.22 143.979C1056.22 146.432 1044.55 144.094 1044.55 145.536C1044.55 148.589 1033.06 147.375 1033.06 150.953C1033.06 151.984 1021.26 152.531 1021.26 153.036C1021.26 159.25 1009.31 142.969 1009.31 148.016C1009.31 145.792 997.448 151.844 997.448 153.266C997.448 155.583 985.755 140.104 985.755 147.417C985.755 151.708 974.104 146.344 974.104 145.01C974.104 139.578 959.542 149.964 959.542 151.5C959.542 155.146 947.161 136.573 947.161 141.661C947.161 149.141 934.25 139.849 934.25 138.521C934.25 137.354 923.104 131.526 923.104 130.677C923.104 134.323 910.792 127.698 910.792 127.536C910.792 126.896 897.536 120.635 897.536 131.62C897.536 130.677 885.818 120.771 885.818 120.865C885.818 122.719 873.365 129.255 873.365 127.26C873.365 128.109 861.161 128.797 861.161 129.281C861.161 130.677 847.979 129.328 847.979 128.823C847.979 128.042 837.156 146.891 837.156 138.427C837.156 134.396 825.135 148.656 825.135 146.021C825.135 145.286 811.125 137.74 810.484 138.521C809.109 136.661 800.37 139.005 798.88 137.01C796.495 141.229 786.312 134.781 785.328 132.995C784.068 145.01 774.849 132.583 773.125 127.469C770.927 132.281 766.844 133.156 764.828 132.536V-54.2031H1532.8Z" fill="#294122"/>
</g>
<mask id="mask4_762_4" style="mask-type:luminance" maskUnits="userSpaceOnUse" x="764" y="61" width="769" height="82">
<path d="M764.802 61.7031H1532.8V142.667H764.802V61.7031Z" fill="white"/>
</mask>
<g mask="url(#mask4_762_4)">
<path d="M1532.8 -66.4688V88.9635C1530.42 90.1094 1528.31 92.6823 1528.12 97.2656C1528.22 97.6354 1516.98 94.1719 1516.16 93.5729C1518.19 93.4844 1502.33 91.1667 1504.53 89.2656C1503.79 89.3542 1493.15 87.474 1492.85 85.3854C1489.67 90.9167 1477.81 97.3125 1480.47 87.0625C1478.78 90.2969 1469.72 85.1146 1468.73 86.3958C1469.4 83.1406 1457.15 84.6094 1456.6 86.8073C1458.25 81.2344 1445.02 88.276 1445.02 81.8333C1445.02 85.3854 1432.22 92.1302 1432.22 90.224C1432.22 85.2292 1421.19 72.4531 1421.19 79.2188C1421.19 79.974 1408.6 89.1042 1408.6 85.2031C1408.6 84.0104 1398.85 93 1398.85 78.8281C1398.85 73.6927 1388.54 76.2604 1388.54 81.1927C1388.54 82.5885 1379.45 92.7031 1379.45 86.349C1379.45 85.0208 1365.95 81.375 1365.95 90.0677C1365.95 96.8542 1352.37 95.2031 1352.37 95.6146C1352.37 97.8646 1339.55 98.6875 1339.55 100.089C1339.55 98.25 1327.06 91.6042 1327.06 95.5938C1327.06 95.224 1315.41 95.25 1315.41 89.5156C1315.41 86.9479 1303.25 93.7552 1303.25 88.6667C1303.25 87.224 1291.23 87.2656 1291.23 84.2188C1291.23 88.599 1279.08 90.526 1279.08 92.1042C1279.08 87.1094 1266.58 76.1667 1266.58 84.4948C1266.58 88.3698 1255.55 96.4427 1255.55 96.1406C1255.55 89.1927 1243.33 103.391 1243.33 94.7448C1243.33 92.3594 1231.57 96.875 1231.57 96.9896C1231.57 90.9844 1220.67 100.568 1220.67 103.438C1220.67 111.828 1207.88 99.4427 1207.88 100.938C1207.88 102.495 1195.97 93.8281 1195.97 102.885C1195.97 107.172 1185.93 120.198 1185.93 112.078C1185.93 117.495 1174.1 113.385 1174.1 114.214C1174.1 111.417 1160.43 115.911 1160.43 109.49C1160.43 111.99 1149.88 113.938 1149.88 116.667C1149.88 112.63 1137.29 121.141 1137.29 115.911C1137.29 118.224 1125.32 116.37 1125.32 117.354C1125.32 116.688 1114.33 118.5 1114.33 123.135C1114.33 120.224 1102.82 124.833 1102.82 125.521C1102.82 125.724 1091.86 128.521 1091.86 131.276C1091.86 127.057 1080.21 136.411 1080.21 133.453C1080.21 130.818 1068.47 130.312 1068.47 135.01C1068.47 134.302 1056.22 134.625 1056.22 131.708C1056.22 134.167 1044.55 131.823 1044.55 133.271C1044.55 136.318 1033.06 135.104 1033.06 138.682C1033.06 139.714 1021.26 140.266 1021.26 140.771C1021.26 146.984 1009.31 130.703 1009.31 135.745C1009.31 133.521 997.448 139.578 997.448 141C997.448 143.312 985.755 127.833 985.755 135.151C985.755 139.438 974.104 134.073 974.104 132.745C974.104 127.307 959.542 137.698 959.542 139.234C959.542 142.88 947.161 124.302 947.161 129.396C947.161 136.87 934.25 127.583 934.25 126.255C934.25 125.083 923.104 119.26 923.104 118.411C923.104 122.057 910.792 115.427 910.792 115.266C910.792 114.625 897.536 108.365 897.536 119.349C897.536 118.411 885.818 108.505 885.818 108.594C885.818 110.453 873.365 116.99 873.365 114.995C873.365 115.844 861.161 116.531 861.161 117.01C861.161 118.411 847.979 117.057 847.979 116.552C847.979 115.771 837.156 134.625 837.156 126.161C837.156 122.125 825.135 136.391 825.135 133.75C825.135 133.016 811.125 125.474 810.484 126.255C809.109 124.396 800.37 126.734 798.88 124.74C796.495 128.958 786.312 122.516 785.328 120.724C784.068 132.745 774.849 120.312 773.125 115.198C770.927 120.016 766.844 120.885 764.828 120.266V-66.4688H1532.8Z" fill="#294122"/>
</g>
<mask id="mask5_762_4" style="mask-type:luminance" maskUnits="userSpaceOnUse" x="1514" y="32" width="406" height="94">
<path d="M1514.59 32.4688H1920V125.333H1514.59V32.4688Z" fill="white"/>
</mask>
<g mask="url(#mask5_762_4)">
<path d="M2282.59 -83.4375V72C2280.21 73.1458 2278.1 75.7135 2277.92 80.3021C2278.01 80.6667 2266.77 77.2031 2265.94 76.6094C2267.98 76.5156 2252.11 74.1979 2254.32 72.2969C2253.58 72.3906 2242.94 70.5052 2242.65 68.4219C2239.46 73.9479 2227.6 80.3438 2230.26 70.0938C2228.57 73.3281 2219.51 68.1458 2218.52 69.4323C2219.19 66.1719 2206.94 67.6406 2206.39 69.8438C2208.04 64.2708 2194.81 71.3125 2194.81 64.8646C2194.81 68.4219 2182.01 75.1615 2182.01 73.2604C2182.01 68.2604 2170.98 55.4896 2170.98 62.25C2170.98 63.0104 2158.39 72.1354 2158.39 68.2396C2158.39 67.0469 2148.65 76.0365 2148.65 61.8646C2148.65 56.724 2138.33 59.2917 2138.33 64.224C2138.33 65.625 2129.24 75.7344 2129.24 69.3854C2129.24 68.0521 2115.74 64.4062 2115.74 73.099C2115.74 79.8854 2102.16 78.2344 2102.16 78.651C2102.16 80.8958 2089.34 81.724 2089.34 83.1198C2089.34 81.2865 2076.84 74.6354 2076.84 78.625C2076.84 78.2604 2065.2 78.2812 2065.2 72.5469C2065.2 69.9792 2053.04 76.7917 2053.04 71.6979C2053.04 70.2552 2041.03 70.3021 2041.03 67.25C2041.03 71.6302 2028.87 73.5573 2028.87 75.1406C2028.87 70.1406 2016.38 59.2031 2016.38 67.526C2016.38 71.401 2005.34 79.474 2005.34 79.1771C2005.34 72.2292 1993.12 86.4219 1993.12 77.776C1993.12 75.3906 1981.35 79.9115 1981.35 80.026C1981.35 74.0156 1970.46 83.6042 1970.46 86.4688C1970.46 94.8594 1957.67 82.4792 1957.67 83.9688C1957.67 85.526 1945.77 76.8594 1945.77 85.9167C1945.77 90.2083 1935.72 103.234 1935.72 95.1146C1935.72 100.526 1923.89 96.4219 1923.89 97.2448C1923.89 94.4479 1910.22 98.9427 1910.22 92.5208C1910.22 95.0208 1899.67 96.974 1899.67 99.7031C1899.67 95.6667 1887.08 104.172 1887.08 98.9427C1887.08 101.26 1875.11 99.401 1875.11 100.391C1875.11 99.724 1864.13 101.536 1864.13 106.167C1864.13 103.255 1852.61 107.865 1852.61 108.552C1852.61 108.76 1841.65 111.557 1841.65 114.307C1841.65 110.089 1830.01 119.443 1830.01 116.484C1830.01 113.849 1818.26 113.344 1818.26 118.047C1818.26 117.333 1806.02 117.656 1806.02 114.745C1806.02 117.198 1794.34 114.859 1794.34 116.302C1794.34 119.354 1782.85 118.141 1782.85 121.714C1782.85 122.745 1771.05 123.297 1771.05 123.802C1771.05 130.016 1759.1 113.734 1759.1 118.781C1759.1 116.557 1747.24 122.609 1747.24 124.031C1747.24 126.349 1735.55 110.87 1735.55 118.182C1735.55 122.474 1723.9 117.104 1723.9 115.776C1723.9 110.339 1709.33 120.729 1709.33 122.266C1709.33 125.911 1696.95 107.339 1696.95 112.427C1696.95 119.906 1684.04 110.615 1684.04 109.286C1684.04 108.115 1672.9 102.292 1672.9 101.443C1672.9 105.089 1660.58 98.4635 1660.58 98.3021C1660.58 97.6615 1647.32 91.401 1647.32 102.385C1647.32 101.443 1635.61 91.5365 1635.61 91.6302C1635.61 93.4844 1623.16 100.021 1623.16 98.026C1623.16 98.875 1610.95 99.5625 1610.95 100.047C1610.95 101.443 1597.77 100.089 1597.77 99.5833C1597.77 98.8073 1586.94 117.656 1586.94 109.193C1586.94 105.156 1574.93 119.422 1574.93 116.786C1574.93 116.052 1560.92 108.505 1560.28 109.286C1558.9 107.427 1550.16 109.766 1548.67 107.771C1546.29 111.99 1536.1 105.547 1535.12 103.76C1533.86 115.776 1524.64 103.349 1522.92 98.2344C1520.72 103.047 1516.64 103.922 1514.61 103.302V-83.4375H2282.59Z" fill="#294122"/>
</g>
<mask id="mask6_762_4" style="mask-type:luminance" maskUnits="userSpaceOnUse" x="1514" y="32" width="406" height="82">
<path d="M1514.59 32.4688H1920V113.333H1514.59V32.4688Z" fill="white"/>
</mask>
<g mask="url(#mask6_762_4)">
<path d="M2282.59 -95.7031V59.7292C2280.21 60.875 2278.1 63.4427 2277.92 68.0312C2278.01 68.3958 2266.77 64.9375 2265.94 64.3385C2267.98 64.2448 2252.11 61.9323 2254.32 60.026C2253.58 60.1198 2242.94 58.2396 2242.65 56.151C2239.46 61.6771 2227.6 68.0781 2230.26 57.8281C2228.57 61.0573 2219.51 55.875 2218.52 57.1615C2219.19 53.9062 2206.94 55.375 2206.39 57.5729C2208.04 52 2194.81 59.0417 2194.81 52.599C2194.81 56.151 2182.01 62.8958 2182.01 60.9896C2182.01 55.9896 2170.98 43.2188 2170.98 49.9844C2170.98 50.7396 2158.39 59.8698 2158.39 55.9688C2158.39 54.776 2148.65 63.7656 2148.65 49.5938C2148.65 44.4583 2138.33 47.026 2138.33 51.9531C2138.33 53.3542 2129.24 63.4688 2129.24 57.1146C2129.24 55.7865 2115.74 52.1406 2115.74 60.8281C2115.74 67.6198 2102.16 65.9688 2102.16 66.3802C2102.16 68.625 2089.34 69.4531 2089.34 70.8542C2089.34 69.0156 2076.84 62.3646 2076.84 66.3594C2076.84 65.9896 2065.2 66.0156 2065.2 60.2812C2065.2 57.7135 2053.04 64.5208 2053.04 59.4323C2053.04 57.9844 2041.03 58.0312 2041.03 54.9844C2041.03 59.3646 2028.87 61.2865 2028.87 62.8698C2028.87 57.8698 2016.38 46.9323 2016.38 55.2604C2016.38 59.1354 2005.34 67.2031 2005.34 66.9062C2005.34 59.9583 1993.12 74.1562 1993.12 65.5104C1993.12 63.125 1981.35 67.6406 1981.35 67.7552C1981.35 61.75 1970.46 71.3333 1970.46 74.1979C1970.46 82.5938 1957.67 70.2083 1957.67 71.6979C1957.67 73.2604 1945.77 64.5938 1945.77 73.651C1945.77 77.9375 1935.72 90.9635 1935.72 82.8438C1935.72 88.2552 1923.89 84.151 1923.89 84.9792C1923.89 82.1823 1910.22 86.6771 1910.22 80.2552C1910.22 82.7552 1899.67 84.7031 1899.67 87.4323C1899.67 83.3958 1887.08 91.901 1887.08 86.6771C1887.08 88.9896 1875.11 87.1354 1875.11 88.1198C1875.11 87.4531 1864.13 89.2656 1864.13 93.901C1864.13 90.9844 1852.61 95.5938 1852.61 96.2812C1852.61 96.4896 1841.65 99.2865 1841.65 102.042C1841.65 97.8177 1830.01 107.177 1830.01 104.219C1830.01 101.583 1818.26 101.078 1818.26 105.776C1818.26 105.068 1806.02 105.385 1806.02 102.474C1806.02 104.927 1794.34 102.589 1794.34 104.036C1794.34 107.083 1782.85 105.87 1782.85 109.448C1782.85 110.479 1771.05 111.031 1771.05 111.531C1771.05 117.75 1759.1 101.469 1759.1 106.51C1759.1 104.286 1747.24 110.339 1747.24 111.76C1747.24 114.078 1735.55 98.599 1735.55 105.917C1735.55 110.203 1723.9 104.839 1723.9 103.505C1723.9 98.0729 1709.33 108.458 1709.33 109.995C1709.33 113.646 1696.95 95.0677 1696.95 100.161C1696.95 107.635 1684.04 98.349 1684.04 97.0156C1684.04 95.849 1672.9 90.0208 1672.9 89.1771C1672.9 92.8229 1660.58 86.1927 1660.58 86.0312C1660.58 85.3906 1647.32 79.1302 1647.32 90.1146C1647.32 89.1771 1635.61 79.2656 1635.61 79.3594C1635.61 81.2188 1623.16 87.7552 1623.16 85.7552C1623.16 86.6042 1610.95 87.2917 1610.95 87.776C1610.95 89.1771 1597.77 87.8229 1597.77 87.3177C1597.77 86.5365 1586.94 105.385 1586.94 96.9271C1586.94 92.8906 1574.93 107.151 1574.93 104.516C1574.93 103.781 1560.92 96.2396 1560.28 97.0156C1558.9 95.1615 1550.16 97.5 1548.67 95.5052C1546.29 99.724 1536.1 93.2812 1535.12 91.4896C1533.86 103.505 1524.64 91.0781 1522.92 85.9635C1520.72 90.7812 1516.64 91.651 1514.61 91.0312V-95.7031H2282.59Z" fill="#294122"/>
</g>
</svg>
