<svg xmlns="http://www.w3.org/2000/svg" xmlns:xlink="http://www.w3.org/1999/xlink" width="1920" zoomAndPan="magnify" viewBox="0 0 1440 809.999993" height="1080" preserveAspectRatio="xMidYMid meet" version="1.0"><defs><clipPath id="812f1f8291"><path d="M 0 0 L 1440 0 L 1440 50.886719 L 0 50.886719 Z M 0 0 " clip-rule="nonzero"/></clipPath><clipPath id="0546fe9493"><path d="M 0 32.304688 L 576.167969 32.304688 L 576.167969 102 L 0 102 Z M 0 32.304688 " clip-rule="nonzero"/></clipPath><clipPath id="082d4ab6d4"><path d="M 0 32.304688 L 576.167969 32.304688 L 576.167969 93 L 0 93 Z M 0 32.304688 " clip-rule="nonzero"/></clipPath><clipPath id="2227ed7e8e"><path d="M 573.769531 32.304688 L 1149.9375 32.304688 L 1149.9375 102 L 573.769531 102 Z M 573.769531 32.304688 " clip-rule="nonzero"/></clipPath><clipPath id="fd7ac10353"><path d="M 573.769531 32.304688 L 1149.9375 32.304688 L 1149.9375 93 L 573.769531 93 Z M 573.769531 32.304688 " clip-rule="nonzero"/></clipPath><clipPath id="12a4caf36b"><path d="M 1136.277344 10.375 L 1440 10.375 L 1440 80 L 1136.277344 80 Z M 1136.277344 10.375 " clip-rule="nonzero"/></clipPath><clipPath id="f77f755d73"><path d="M 1136.277344 10.375 L 1440 10.375 L 1440 71 L 1136.277344 71 Z M 1136.277344 10.375 " clip-rule="nonzero"/></clipPath><clipPath id="92934334eb"><path d="M 0 763.632812 L 1439.996094 763.632812 L 1439.996094 810 L 0 810 Z M 0 763.632812 " clip-rule="nonzero"/></clipPath><clipPath id="3a25baa8c8"><path d="M 863.828125 712 L 1439.996094 712 L 1439.996094 782.210938 L 863.828125 782.210938 Z M 863.828125 712 " clip-rule="nonzero"/></clipPath><clipPath id="d35bc45278"><path d="M 863.828125 721 L 1439.996094 721 L 1439.996094 782.210938 L 863.828125 782.210938 Z M 863.828125 721 " clip-rule="nonzero"/></clipPath><clipPath id="8f0595cc01"><path d="M 290.058594 712 L 866.226562 712 L 866.226562 782.210938 L 290.058594 782.210938 Z M 290.058594 712 " clip-rule="nonzero"/></clipPath><clipPath id="911308cfc9"><path d="M 290.058594 721 L 866.226562 721 L 866.226562 782.210938 L 290.058594 782.210938 Z M 290.058594 721 " clip-rule="nonzero"/></clipPath><clipPath id="4ac15be5a0"><path d="M 0 734 L 303.71875 734 L 303.71875 804.144531 L 0 804.144531 Z M 0 734 " clip-rule="nonzero"/></clipPath><clipPath id="b9e03d29f7"><path d="M 0 743 L 303.71875 743 L 303.71875 804.144531 L 0 804.144531 Z M 0 743 " clip-rule="nonzero"/></clipPath></defs><g clip-path="url(#812f1f8291)"><path fill="#294122" d="M 0 -30.136719 L 1440.382812 -30.136719 L 1440.382812 50.886719 L 0 50.886719 Z M 0 -30.136719 " fill-opacity="1" fill-rule="nonzero"/></g><g clip-path="url(#0546fe9493)"><path fill="#294122" d="M 0 -54.644531 L 0 61.964844 C 1.789062 62.824219 3.371094 64.75 3.507812 68.191406 C 3.441406 68.46875 11.871094 65.871094 12.488281 65.421875 C 10.960938 65.351562 22.863281 63.617188 21.210938 62.1875 C 21.761719 62.257812 29.746094 60.847656 29.96875 59.28125 C 32.359375 63.425781 41.253906 68.226562 39.261719 60.535156 C 40.53125 62.960938 47.328125 59.074219 48.070312 60.039062 C 47.570312 57.59375 56.757812 58.695312 57.167969 60.347656 C 55.929688 56.167969 65.859375 61.449219 65.859375 56.613281 C 65.859375 59.28125 75.457031 64.339844 75.457031 62.910156 C 75.457031 59.160156 83.734375 49.578125 83.734375 54.652344 C 83.734375 55.21875 93.179688 62.066406 93.179688 59.144531 C 93.179688 58.246094 100.488281 64.992188 100.488281 54.359375 C 100.488281 50.507812 108.230469 52.433594 108.230469 56.132812 C 108.230469 57.179688 115.042969 64.769531 115.042969 60.003906 C 115.042969 59.003906 125.175781 56.269531 125.175781 62.789062 C 125.175781 67.882812 135.363281 66.644531 135.363281 66.953125 C 135.363281 68.640625 144.980469 69.257812 144.980469 70.308594 C 144.980469 68.933594 154.355469 63.941406 154.355469 66.9375 C 154.355469 66.660156 163.09375 66.679688 163.09375 62.378906 C 163.09375 60.449219 172.214844 65.558594 172.214844 61.742188 C 172.214844 60.65625 181.230469 60.691406 181.230469 58.402344 C 181.230469 61.6875 190.347656 63.132812 190.347656 64.320312 C 190.347656 60.570312 199.722656 52.363281 199.722656 58.609375 C 199.722656 61.515625 208 67.574219 208 67.347656 C 208 62.136719 217.167969 72.785156 217.167969 66.300781 C 217.167969 64.511719 225.992188 67.898438 225.992188 67.984375 C 225.992188 63.476562 234.164062 70.667969 234.164062 72.820312 C 234.164062 79.117188 243.765625 69.828125 243.765625 70.945312 C 243.765625 72.113281 252.695312 65.613281 252.695312 72.40625 C 252.695312 75.625 260.230469 85.394531 260.230469 79.304688 C 260.230469 83.367188 269.109375 80.285156 269.109375 80.90625 C 269.109375 78.808594 279.359375 82.179688 279.359375 77.363281 C 279.359375 79.238281 287.273438 80.699219 287.273438 82.746094 C 287.273438 79.71875 296.71875 86.101562 296.71875 82.179688 C 296.71875 83.917969 305.699219 82.523438 305.699219 83.261719 C 305.699219 82.765625 313.941406 84.121094 313.941406 87.597656 C 313.941406 85.414062 322.578125 88.871094 322.578125 89.386719 C 322.578125 89.542969 330.800781 91.640625 330.800781 93.707031 C 330.800781 90.539062 339.542969 97.558594 339.542969 95.339844 C 339.542969 93.363281 348.351562 92.984375 348.351562 96.511719 C 348.351562 95.976562 357.535156 96.21875 357.535156 94.03125 C 357.535156 95.875 366.292969 94.117188 366.292969 95.203125 C 366.292969 97.492188 374.914062 96.578125 374.914062 99.261719 C 374.914062 100.035156 383.773438 100.449219 383.773438 100.828125 C 383.773438 105.492188 392.738281 93.277344 392.738281 97.0625 C 392.738281 95.390625 401.632812 99.933594 401.632812 101 C 401.632812 102.738281 410.40625 91.125 410.40625 96.613281 C 410.40625 99.832031 419.144531 95.804688 419.144531 94.808594 C 419.144531 90.730469 430.070312 98.523438 430.070312 99.675781 C 430.070312 102.410156 439.359375 88.476562 439.359375 92.296875 C 439.359375 97.902344 449.046875 90.9375 449.046875 89.9375 C 449.046875 89.0625 457.40625 84.691406 457.40625 84.054688 C 457.40625 86.789062 466.644531 81.816406 466.644531 81.695312 C 466.644531 81.214844 476.589844 76.519531 476.589844 84.757812 C 476.589844 84.054688 485.382812 76.621094 485.382812 76.691406 C 485.382812 78.085938 494.722656 82.988281 494.722656 81.492188 C 494.722656 82.128906 503.875 82.644531 503.875 83.003906 C 503.875 84.054688 513.769531 83.039062 513.769531 82.660156 C 513.769531 82.074219 521.886719 96.21875 521.886719 89.871094 C 521.886719 86.839844 530.902344 97.542969 530.902344 95.5625 C 530.902344 95.011719 541.414062 89.351562 541.898438 89.9375 C 542.929688 88.542969 549.484375 90.300781 550.601562 88.800781 C 552.390625 91.96875 560.03125 87.132812 560.769531 85.792969 C 561.714844 94.808594 568.632812 85.480469 569.921875 81.644531 C 571.574219 85.257812 574.636719 85.914062 576.148438 85.449219 L 576.148438 -54.644531 Z M 0 -54.644531 " fill-opacity="1" fill-rule="nonzero"/></g><g clip-path="url(#082d4ab6d4)"><path fill="#294122" d="M 0 -63.851562 L 0 52.761719 C 1.789062 53.621094 3.371094 55.546875 3.507812 58.988281 C 3.441406 59.261719 11.871094 56.664062 12.488281 56.21875 C 10.960938 56.148438 22.863281 54.410156 21.210938 52.984375 C 21.761719 53.050781 29.746094 51.640625 29.96875 50.074219 C 32.359375 54.222656 41.253906 59.023438 39.261719 51.332031 C 40.53125 53.757812 47.328125 49.871094 48.070312 50.832031 C 47.570312 48.390625 56.757812 49.492188 57.167969 51.144531 C 55.929688 46.960938 65.859375 52.242188 65.859375 47.410156 C 65.859375 50.074219 75.457031 55.132812 75.457031 53.707031 C 75.457031 49.957031 83.734375 40.371094 83.734375 45.449219 C 83.734375 46.015625 93.179688 52.863281 93.179688 49.9375 C 93.179688 49.042969 100.488281 55.789062 100.488281 45.15625 C 100.488281 41.300781 108.230469 43.230469 108.230469 46.925781 C 108.230469 47.976562 115.042969 55.5625 115.042969 50.796875 C 115.042969 49.800781 125.175781 47.066406 125.175781 53.585938 C 125.175781 58.679688 135.363281 57.4375 135.363281 57.75 C 135.363281 59.433594 144.980469 60.054688 144.980469 61.105469 C 144.980469 59.726562 154.355469 54.738281 154.355469 57.730469 C 154.355469 57.457031 163.09375 57.472656 163.09375 53.171875 C 163.09375 51.246094 172.214844 56.355469 172.214844 52.535156 C 172.214844 51.453125 181.230469 51.488281 181.230469 49.199219 C 181.230469 52.484375 190.347656 53.929688 190.347656 55.117188 C 190.347656 51.367188 199.722656 43.160156 199.722656 49.40625 C 199.722656 52.3125 208 58.367188 208 58.144531 C 208 52.933594 217.167969 63.582031 217.167969 57.09375 C 217.167969 55.304688 225.992188 58.695312 225.992188 58.78125 C 225.992188 54.273438 234.164062 61.464844 234.164062 63.617188 C 234.164062 69.914062 243.765625 60.621094 243.765625 61.742188 C 243.765625 62.910156 252.695312 56.40625 252.695312 63.203125 C 252.695312 66.421875 260.230469 76.191406 260.230469 70.101562 C 260.230469 74.160156 269.109375 71.082031 269.109375 71.703125 C 269.109375 69.601562 279.359375 72.976562 279.359375 68.15625 C 279.359375 70.03125 287.273438 71.496094 287.273438 73.542969 C 287.273438 70.515625 296.71875 76.898438 296.71875 72.976562 C 296.71875 74.710938 305.699219 73.320312 305.699219 74.058594 C 305.699219 73.558594 313.941406 74.917969 313.941406 78.394531 C 313.941406 76.210938 322.578125 79.667969 322.578125 80.183594 C 322.578125 80.339844 330.800781 82.4375 330.800781 84.5 C 330.800781 81.335938 339.542969 88.355469 339.542969 86.136719 C 339.542969 84.15625 348.351562 83.777344 348.351562 87.304688 C 348.351562 86.773438 357.535156 87.011719 357.535156 84.828125 C 357.535156 86.667969 366.292969 84.914062 366.292969 86 C 366.292969 88.285156 374.914062 87.375 374.914062 90.058594 C 374.914062 90.832031 383.773438 91.246094 383.773438 91.625 C 383.773438 96.285156 392.738281 84.070312 392.738281 87.855469 C 392.738281 86.1875 401.632812 90.730469 401.632812 91.796875 C 401.632812 93.535156 410.40625 81.921875 410.40625 87.410156 C 410.40625 90.625 419.144531 86.601562 419.144531 85.601562 C 419.144531 81.523438 430.070312 89.320312 430.070312 90.472656 C 430.070312 93.207031 439.359375 79.269531 439.359375 83.089844 C 439.359375 88.699219 449.046875 81.730469 449.046875 80.734375 C 449.046875 79.855469 457.40625 75.488281 457.40625 74.851562 C 457.40625 77.585938 466.644531 72.613281 466.644531 72.492188 C 466.644531 72.011719 476.589844 67.316406 476.589844 75.554688 C 476.589844 74.851562 485.382812 67.417969 485.382812 67.488281 C 485.382812 68.878906 494.722656 73.785156 494.722656 72.285156 C 494.722656 72.921875 503.875 73.4375 503.875 73.800781 C 503.875 74.851562 513.769531 73.835938 513.769531 73.457031 C 513.769531 72.871094 521.886719 87.011719 521.886719 80.664062 C 521.886719 77.636719 530.902344 88.339844 530.902344 86.359375 C 530.902344 85.808594 541.414062 80.148438 541.898438 80.734375 C 542.929688 79.339844 549.484375 81.09375 550.601562 79.597656 C 552.390625 82.765625 560.03125 77.929688 560.769531 76.585938 C 561.714844 85.601562 568.632812 76.277344 569.921875 72.441406 C 571.574219 76.054688 574.636719 76.707031 576.148438 76.242188 L 576.148438 -63.851562 Z M 0 -63.851562 " fill-opacity="1" fill-rule="nonzero"/></g><g clip-path="url(#2227ed7e8e)"><path fill="#294122" d="M 1149.9375 -54.644531 L 1149.9375 61.964844 C 1148.148438 62.824219 1146.5625 64.75 1146.425781 68.191406 C 1146.496094 68.46875 1138.066406 65.871094 1137.445312 65.421875 C 1138.976562 65.351562 1127.070312 63.617188 1128.722656 62.1875 C 1128.171875 62.257812 1120.191406 60.847656 1119.964844 59.28125 C 1117.574219 63.425781 1108.679688 68.226562 1110.675781 60.535156 C 1109.402344 62.960938 1102.609375 59.074219 1101.867188 60.039062 C 1102.367188 57.59375 1093.179688 58.695312 1092.765625 60.347656 C 1094.003906 56.167969 1084.078125 61.449219 1084.078125 56.613281 C 1084.078125 59.28125 1074.480469 64.339844 1074.480469 62.910156 C 1074.480469 59.160156 1066.203125 49.578125 1066.203125 54.652344 C 1066.203125 55.21875 1056.757812 62.066406 1056.757812 59.140625 C 1056.757812 58.246094 1049.445312 64.992188 1049.445312 54.359375 C 1049.445312 50.507812 1041.703125 52.433594 1041.703125 56.132812 C 1041.703125 57.179688 1034.890625 64.769531 1034.890625 60.003906 C 1034.890625 59.003906 1024.757812 56.269531 1024.757812 62.789062 C 1024.757812 67.882812 1014.574219 66.644531 1014.574219 66.953125 C 1014.574219 68.640625 1004.957031 69.257812 1004.957031 70.308594 C 1004.957031 68.933594 995.582031 63.941406 995.582031 66.9375 C 995.582031 66.660156 986.839844 66.679688 986.839844 62.375 C 986.839844 60.449219 977.722656 65.558594 977.722656 61.742188 C 977.722656 60.65625 968.707031 60.691406 968.707031 58.402344 C 968.707031 61.6875 959.589844 63.132812 959.589844 64.320312 C 959.589844 60.570312 950.214844 52.363281 950.214844 58.609375 C 950.214844 61.515625 941.9375 67.574219 941.9375 67.347656 C 941.9375 62.136719 932.769531 72.785156 932.769531 66.300781 C 932.769531 64.511719 923.941406 67.898438 923.941406 67.984375 C 923.941406 63.476562 915.769531 70.667969 915.769531 72.820312 C 915.769531 79.117188 906.171875 69.828125 906.171875 70.945312 C 906.171875 72.113281 897.242188 65.613281 897.242188 72.40625 C 897.242188 75.625 889.707031 85.394531 889.707031 79.304688 C 889.707031 83.367188 880.828125 80.285156 880.828125 80.90625 C 880.828125 78.808594 870.574219 82.179688 870.574219 77.363281 C 870.574219 79.238281 862.660156 80.699219 862.660156 82.746094 C 862.660156 79.71875 853.214844 86.101562 853.214844 82.179688 C 853.214844 83.917969 844.234375 82.523438 844.234375 83.261719 C 844.234375 82.765625 835.996094 84.121094 835.996094 87.597656 C 835.996094 85.414062 827.359375 88.871094 827.359375 89.386719 C 827.359375 89.542969 819.132812 91.640625 819.132812 93.707031 C 819.132812 90.539062 810.394531 97.558594 810.394531 95.339844 C 810.394531 93.363281 801.585938 92.984375 801.585938 96.511719 C 801.585938 95.976562 792.398438 96.21875 792.398438 94.03125 C 792.398438 95.875 783.640625 94.117188 783.640625 95.203125 C 783.640625 97.492188 775.023438 96.578125 775.023438 99.261719 C 775.023438 100.035156 766.164062 100.449219 766.164062 100.828125 C 766.164062 105.492188 757.199219 93.277344 757.199219 97.058594 C 757.199219 95.390625 748.304688 99.933594 748.304688 101 C 748.304688 102.738281 739.53125 91.125 739.53125 96.613281 C 739.53125 99.832031 730.792969 95.804688 730.792969 94.808594 C 730.792969 90.730469 719.867188 98.523438 719.867188 99.675781 C 719.867188 102.410156 710.578125 88.476562 710.578125 92.296875 C 710.578125 97.902344 700.890625 90.9375 700.890625 89.9375 C 700.890625 89.0625 692.527344 84.691406 692.527344 84.054688 C 692.527344 86.789062 683.289062 81.816406 683.289062 81.695312 C 683.289062 81.214844 673.347656 76.519531 673.347656 84.757812 C 673.347656 84.054688 664.554688 76.621094 664.554688 76.691406 C 664.554688 78.085938 655.214844 82.988281 655.214844 81.492188 C 655.214844 82.128906 646.0625 82.644531 646.0625 83.003906 C 646.0625 84.054688 636.167969 83.039062 636.167969 82.660156 C 636.167969 82.074219 628.046875 96.21875 628.046875 89.871094 C 628.046875 86.839844 619.03125 97.542969 619.03125 95.5625 C 619.03125 95.011719 608.519531 89.351562 608.039062 89.9375 C 607.007812 88.542969 600.453125 90.300781 599.335938 88.800781 C 597.546875 91.96875 589.90625 87.132812 589.167969 85.792969 C 588.21875 94.808594 581.304688 85.480469 580.015625 81.644531 C 578.363281 85.257812 575.300781 85.914062 573.785156 85.449219 L 573.785156 -54.644531 Z M 1149.9375 -54.644531 " fill-opacity="1" fill-rule="nonzero"/></g><g clip-path="url(#fd7ac10353)"><path fill="#294122" d="M 1149.9375 -63.851562 L 1149.9375 52.761719 C 1148.148438 53.621094 1146.5625 55.546875 1146.425781 58.988281 C 1146.496094 59.261719 1138.066406 56.664062 1137.445312 56.21875 C 1138.976562 56.148438 1127.070312 54.410156 1128.722656 52.984375 C 1128.171875 53.050781 1120.191406 51.640625 1119.964844 50.074219 C 1117.574219 54.222656 1108.679688 59.023438 1110.675781 51.332031 C 1109.402344 53.757812 1102.609375 49.871094 1101.867188 50.832031 C 1102.367188 48.390625 1093.179688 49.492188 1092.765625 51.144531 C 1094.003906 46.960938 1084.078125 52.242188 1084.078125 47.410156 C 1084.078125 50.074219 1074.480469 55.132812 1074.480469 53.707031 C 1074.480469 49.957031 1066.203125 40.371094 1066.203125 45.449219 C 1066.203125 46.015625 1056.757812 52.863281 1056.757812 49.9375 C 1056.757812 49.042969 1049.445312 55.789062 1049.445312 45.15625 C 1049.445312 41.300781 1041.703125 43.230469 1041.703125 46.925781 C 1041.703125 47.976562 1034.890625 55.5625 1034.890625 50.796875 C 1034.890625 49.800781 1024.757812 47.066406 1024.757812 53.585938 C 1024.757812 58.679688 1014.574219 57.4375 1014.574219 57.75 C 1014.574219 59.433594 1004.957031 60.054688 1004.957031 61.105469 C 1004.957031 59.726562 995.582031 54.738281 995.582031 57.730469 C 995.582031 57.457031 986.839844 57.472656 986.839844 53.171875 C 986.839844 51.246094 977.722656 56.355469 977.722656 52.535156 C 977.722656 51.453125 968.707031 51.488281 968.707031 49.199219 C 968.707031 52.484375 959.589844 53.929688 959.589844 55.117188 C 959.589844 51.367188 950.214844 43.160156 950.214844 49.40625 C 950.214844 52.3125 941.9375 58.367188 941.9375 58.144531 C 941.9375 52.933594 932.769531 63.582031 932.769531 57.09375 C 932.769531 55.304688 923.941406 58.695312 923.941406 58.78125 C 923.941406 54.273438 915.769531 61.464844 915.769531 63.617188 C 915.769531 69.914062 906.171875 60.621094 906.171875 61.742188 C 906.171875 62.910156 897.242188 56.40625 897.242188 63.203125 C 897.242188 66.421875 889.707031 76.191406 889.707031 70.101562 C 889.707031 74.160156 880.828125 71.082031 880.828125 71.703125 C 880.828125 69.601562 870.574219 72.976562 870.574219 68.15625 C 870.574219 70.03125 862.660156 71.496094 862.660156 73.542969 C 862.660156 70.515625 853.214844 76.898438 853.214844 72.976562 C 853.214844 74.710938 844.234375 73.320312 844.234375 74.058594 C 844.234375 73.558594 835.996094 74.917969 835.996094 78.394531 C 835.996094 76.210938 827.359375 79.667969 827.359375 80.183594 C 827.359375 80.339844 819.132812 82.4375 819.132812 84.5 C 819.132812 81.335938 810.394531 88.355469 810.394531 86.136719 C 810.394531 84.15625 801.585938 83.777344 801.585938 87.304688 C 801.585938 86.773438 792.398438 87.011719 792.398438 84.828125 C 792.398438 86.667969 783.640625 84.914062 783.640625 86 C 783.640625 88.285156 775.023438 87.375 775.023438 90.058594 C 775.023438 90.832031 766.164062 91.246094 766.164062 91.625 C 766.164062 96.285156 757.199219 84.070312 757.199219 87.855469 C 757.199219 86.1875 748.304688 90.730469 748.304688 91.796875 C 748.304688 93.535156 739.53125 81.921875 739.53125 87.410156 C 739.53125 90.625 730.792969 86.601562 730.792969 85.601562 C 730.792969 81.523438 719.867188 89.320312 719.867188 90.472656 C 719.867188 93.207031 710.578125 79.269531 710.578125 83.089844 C 710.578125 88.699219 700.890625 81.730469 700.890625 80.734375 C 700.890625 79.855469 692.527344 75.488281 692.527344 74.851562 C 692.527344 77.585938 683.289062 72.613281 683.289062 72.492188 C 683.289062 72.011719 673.347656 67.316406 673.347656 75.554688 C 673.347656 74.851562 664.554688 67.417969 664.554688 67.488281 C 664.554688 68.878906 655.214844 73.785156 655.214844 72.285156 C 655.214844 72.921875 646.0625 73.4375 646.0625 73.800781 C 646.0625 74.851562 636.167969 73.835938 636.167969 73.457031 C 636.167969 72.871094 628.046875 87.011719 628.046875 80.664062 C 628.046875 77.636719 619.03125 88.339844 619.03125 86.359375 C 619.03125 85.808594 608.519531 80.148438 608.039062 80.734375 C 607.007812 79.339844 600.453125 81.09375 599.335938 79.597656 C 597.546875 82.765625 589.90625 77.929688 589.167969 76.585938 C 588.21875 85.601562 581.304688 76.277344 580.015625 72.441406 C 578.363281 76.054688 575.300781 76.707031 573.785156 76.242188 L 573.785156 -63.851562 Z M 1149.9375 -63.851562 " fill-opacity="1" fill-rule="nonzero"/></g><g clip-path="url(#12a4caf36b)"><path fill="#294122" d="M 1712.441406 -76.578125 L 1712.441406 40.03125 C 1710.652344 40.890625 1709.070312 42.816406 1708.933594 46.257812 C 1709 46.535156 1700.570312 43.9375 1699.953125 43.488281 C 1701.484375 43.421875 1689.578125 41.683594 1691.230469 40.253906 C 1690.679688 40.324219 1682.695312 38.914062 1682.472656 37.347656 C 1680.082031 41.492188 1671.1875 46.292969 1673.183594 38.601562 C 1671.910156 41.027344 1665.113281 37.140625 1664.375 38.105469 C 1664.875 35.660156 1655.6875 36.761719 1655.273438 38.414062 C 1656.511719 34.234375 1646.585938 39.515625 1646.585938 34.679688 C 1646.585938 37.347656 1636.984375 42.40625 1636.984375 40.976562 C 1636.984375 37.226562 1628.710938 27.644531 1628.710938 32.71875 C 1628.710938 33.289062 1619.265625 40.132812 1619.265625 37.210938 C 1619.265625 36.316406 1611.953125 43.058594 1611.953125 32.425781 C 1611.953125 28.574219 1604.210938 30.5 1604.210938 34.199219 C 1604.210938 35.25 1597.398438 42.835938 1597.398438 38.070312 C 1597.398438 37.070312 1587.265625 34.335938 1587.265625 40.855469 C 1587.265625 45.949219 1577.082031 44.710938 1577.082031 45.019531 C 1577.082031 46.707031 1567.464844 47.324219 1567.464844 48.375 C 1567.464844 47 1558.085938 42.007812 1558.085938 45.003906 C 1558.085938 44.726562 1549.347656 44.746094 1549.347656 40.445312 C 1549.347656 38.515625 1540.230469 43.625 1540.230469 39.808594 C 1540.230469 38.722656 1531.214844 38.757812 1531.214844 36.46875 C 1531.214844 39.757812 1522.097656 41.199219 1522.097656 42.386719 C 1522.097656 38.636719 1512.71875 30.429688 1512.71875 36.675781 C 1512.71875 39.582031 1504.445312 45.640625 1504.445312 45.417969 C 1504.445312 40.203125 1495.273438 50.851562 1495.273438 44.367188 C 1495.273438 42.578125 1486.449219 45.964844 1486.449219 46.050781 C 1486.449219 41.546875 1478.277344 48.738281 1478.277344 50.886719 C 1478.277344 57.183594 1468.675781 47.894531 1468.675781 49.011719 C 1468.675781 50.183594 1459.746094 43.679688 1459.746094 50.472656 C 1459.746094 53.691406 1452.210938 63.464844 1452.210938 57.375 C 1452.210938 61.433594 1443.335938 58.355469 1443.335938 58.972656 C 1443.335938 56.875 1433.082031 60.246094 1433.082031 55.429688 C 1433.082031 57.304688 1425.167969 58.765625 1425.167969 60.8125 C 1425.167969 57.785156 1415.722656 64.167969 1415.722656 60.246094 C 1415.722656 61.984375 1406.742188 60.589844 1406.742188 61.328125 C 1406.742188 60.832031 1398.5 62.191406 1398.5 65.664062 C 1398.5 63.480469 1389.863281 66.9375 1389.863281 67.453125 C 1389.863281 67.609375 1381.640625 69.707031 1381.640625 71.773438 C 1381.640625 68.605469 1372.902344 75.625 1372.902344 73.40625 C 1372.902344 71.429688 1364.09375 71.050781 1364.09375 74.578125 C 1364.09375 74.042969 1354.90625 74.285156 1354.90625 72.101562 C 1354.90625 73.941406 1346.148438 72.1875 1346.148438 73.269531 C 1346.148438 75.558594 1337.53125 74.644531 1337.53125 77.328125 C 1337.53125 78.105469 1328.667969 78.515625 1328.667969 78.894531 C 1328.667969 83.558594 1319.707031 71.34375 1319.707031 75.128906 C 1319.707031 73.457031 1310.8125 78 1310.8125 79.066406 C 1310.8125 80.804688 1302.039062 69.191406 1302.039062 74.679688 C 1302.039062 77.898438 1293.296875 73.871094 1293.296875 72.875 C 1293.296875 68.796875 1282.371094 76.589844 1282.371094 77.742188 C 1282.371094 80.476562 1273.082031 66.542969 1273.082031 70.363281 C 1273.082031 75.972656 1263.398438 69.003906 1263.398438 68.003906 C 1263.398438 67.128906 1255.035156 62.757812 1255.035156 62.121094 C 1255.035156 64.855469 1245.796875 59.886719 1245.796875 59.765625 C 1245.796875 59.28125 1235.851562 54.585938 1235.851562 62.828125 C 1235.851562 62.121094 1227.0625 54.6875 1227.0625 54.757812 C 1227.0625 56.152344 1217.71875 61.054688 1217.71875 59.558594 C 1217.71875 60.195312 1208.566406 60.710938 1208.566406 61.070312 C 1208.566406 62.121094 1198.675781 61.105469 1198.675781 60.726562 C 1198.675781 60.144531 1190.554688 74.285156 1190.554688 67.9375 C 1190.554688 64.910156 1181.539062 75.609375 1181.539062 73.632812 C 1181.539062 73.082031 1171.027344 67.421875 1170.546875 68.003906 C 1169.515625 66.613281 1162.957031 68.367188 1161.839844 66.871094 C 1160.050781 70.035156 1152.414062 65.199219 1151.671875 63.859375 C 1150.726562 72.875 1143.8125 63.550781 1142.519531 59.710938 C 1140.867188 63.324219 1137.804688 63.980469 1136.292969 63.515625 L 1136.292969 -76.578125 Z M 1712.441406 -76.578125 " fill-opacity="1" fill-rule="nonzero"/></g><g clip-path="url(#f77f755d73)"><path fill="#294122" d="M 1712.441406 -85.78125 L 1712.441406 30.828125 C 1710.652344 31.6875 1709.070312 33.613281 1708.933594 37.054688 C 1709 37.332031 1700.570312 34.730469 1699.953125 34.285156 C 1701.484375 34.214844 1689.578125 32.480469 1691.230469 31.050781 C 1690.679688 31.121094 1682.695312 29.707031 1682.472656 28.144531 C 1680.082031 32.289062 1671.1875 37.089844 1673.183594 29.398438 C 1671.910156 31.824219 1665.113281 27.9375 1664.375 28.898438 C 1664.875 26.457031 1655.6875 27.558594 1655.273438 29.210938 C 1656.511719 25.027344 1646.585938 30.3125 1646.585938 25.476562 C 1646.585938 28.144531 1636.984375 33.203125 1636.984375 31.773438 C 1636.984375 28.023438 1628.710938 18.441406 1628.710938 23.515625 C 1628.710938 24.082031 1619.265625 30.929688 1619.265625 28.003906 C 1619.265625 27.109375 1611.953125 33.855469 1611.953125 23.222656 C 1611.953125 19.367188 1604.210938 21.296875 1604.210938 24.996094 C 1604.210938 26.042969 1597.398438 33.632812 1597.398438 28.867188 C 1597.398438 27.867188 1587.265625 25.132812 1587.265625 31.652344 C 1587.265625 36.746094 1577.082031 35.507812 1577.082031 35.816406 C 1577.082031 37.503906 1567.464844 38.121094 1567.464844 39.171875 C 1567.464844 37.792969 1558.085938 32.804688 1558.085938 35.800781 C 1558.085938 35.523438 1549.347656 35.539062 1549.347656 31.238281 C 1549.347656 29.3125 1540.230469 34.421875 1540.230469 30.601562 C 1540.230469 29.519531 1531.214844 29.554688 1531.214844 27.265625 C 1531.214844 30.550781 1522.097656 31.996094 1522.097656 33.183594 C 1522.097656 29.433594 1512.71875 21.226562 1512.71875 27.472656 C 1512.71875 30.378906 1504.445312 36.4375 1504.445312 36.210938 C 1504.445312 31 1495.273438 41.648438 1495.273438 35.164062 C 1495.273438 33.375 1486.449219 36.761719 1486.449219 36.847656 C 1486.449219 32.339844 1478.277344 39.53125 1478.277344 41.683594 C 1478.277344 47.980469 1468.675781 38.6875 1468.675781 39.808594 C 1468.675781 40.976562 1459.746094 34.472656 1459.746094 41.269531 C 1459.746094 44.488281 1452.210938 54.257812 1452.210938 48.167969 C 1452.210938 52.230469 1443.335938 49.148438 1443.335938 49.769531 C 1443.335938 47.667969 1433.082031 51.042969 1433.082031 46.226562 C 1433.082031 48.101562 1425.167969 49.5625 1425.167969 51.609375 C 1425.167969 48.582031 1415.722656 54.964844 1415.722656 51.042969 C 1415.722656 52.78125 1406.742188 51.386719 1406.742188 52.125 C 1406.742188 51.625 1398.5 52.984375 1398.5 56.460938 C 1398.5 54.277344 1389.863281 57.734375 1389.863281 58.25 C 1389.863281 58.40625 1381.640625 60.503906 1381.640625 62.570312 C 1381.640625 59.402344 1372.902344 66.421875 1372.902344 64.203125 C 1372.902344 62.226562 1364.09375 61.847656 1364.09375 65.371094 C 1364.09375 64.839844 1354.90625 65.082031 1354.90625 62.894531 C 1354.90625 64.738281 1346.148438 62.980469 1346.148438 64.066406 C 1346.148438 66.355469 1337.53125 65.441406 1337.53125 68.125 C 1337.53125 68.898438 1328.667969 69.3125 1328.667969 69.691406 C 1328.667969 74.355469 1319.707031 62.136719 1319.707031 65.921875 C 1319.707031 64.253906 1310.8125 68.796875 1310.8125 69.863281 C 1310.8125 71.601562 1302.039062 59.988281 1302.039062 65.476562 C 1302.039062 68.695312 1293.296875 64.667969 1293.296875 63.667969 C 1293.296875 59.59375 1282.371094 67.386719 1282.371094 68.539062 C 1282.371094 71.273438 1273.082031 57.339844 1273.082031 61.15625 C 1273.082031 66.765625 1263.398438 59.796875 1263.398438 58.800781 C 1263.398438 57.921875 1255.035156 53.554688 1255.035156 52.917969 C 1255.035156 55.652344 1245.796875 50.679688 1245.796875 50.558594 C 1245.796875 50.078125 1235.851562 45.382812 1235.851562 53.621094 C 1235.851562 52.917969 1227.0625 45.484375 1227.0625 45.554688 C 1227.0625 46.949219 1217.71875 51.851562 1217.71875 50.355469 C 1217.71875 50.992188 1208.566406 51.507812 1208.566406 51.867188 C 1208.566406 52.917969 1198.675781 51.902344 1198.675781 51.523438 C 1198.675781 50.9375 1190.554688 65.082031 1190.554688 58.730469 C 1190.554688 55.703125 1181.539062 66.40625 1181.539062 64.425781 C 1181.539062 63.875 1171.027344 58.214844 1170.546875 58.800781 C 1169.515625 57.40625 1162.957031 59.164062 1161.839844 57.664062 C 1160.050781 60.832031 1152.414062 55.996094 1151.671875 54.65625 C 1150.726562 63.667969 1143.8125 54.34375 1142.519531 50.507812 C 1140.867188 54.121094 1137.804688 54.773438 1136.292969 54.3125 L 1136.292969 -85.78125 Z M 1712.441406 -85.78125 " fill-opacity="1" fill-rule="nonzero"/></g><g clip-path="url(#92934334eb)"><path fill="#294122" d="M 1439.996094 844.65625 L -0.390625 844.65625 L -0.390625 763.632812 L 1439.996094 763.632812 Z M 1439.996094 844.65625 " fill-opacity="1" fill-rule="nonzero"/></g><g clip-path="url(#3a25baa8c8)"><path fill="#294122" d="M 1439.996094 869.164062 L 1439.996094 752.550781 C 1438.207031 751.691406 1436.621094 749.765625 1436.484375 746.324219 C 1436.554688 746.050781 1428.125 748.648438 1427.503906 749.09375 C 1429.035156 749.164062 1417.128906 750.902344 1418.78125 752.328125 C 1418.230469 752.261719 1410.25 753.671875 1410.023438 755.234375 C 1407.632812 751.089844 1398.738281 746.289062 1400.734375 753.980469 C 1399.460938 751.554688 1392.664062 755.441406 1391.925781 754.480469 C 1392.425781 756.921875 1383.238281 755.820312 1382.824219 754.167969 C 1384.0625 758.351562 1374.136719 753.070312 1374.136719 757.902344 C 1374.136719 755.234375 1364.535156 750.179688 1364.535156 751.605469 C 1364.535156 755.355469 1356.261719 764.9375 1356.261719 759.863281 C 1356.261719 759.296875 1346.816406 752.449219 1346.816406 755.375 C 1346.816406 756.269531 1339.503906 749.523438 1339.503906 760.15625 C 1339.503906 764.011719 1331.761719 762.082031 1331.761719 758.382812 C 1331.761719 757.335938 1324.949219 749.746094 1324.949219 754.511719 C 1324.949219 755.511719 1314.816406 758.246094 1314.816406 751.726562 C 1314.816406 746.632812 1304.632812 747.871094 1304.632812 747.5625 C 1304.632812 745.878906 1295.015625 745.257812 1295.015625 744.207031 C 1295.015625 745.585938 1285.636719 750.574219 1285.636719 747.582031 C 1285.636719 747.855469 1276.898438 747.839844 1276.898438 752.140625 C 1276.898438 754.066406 1267.78125 748.957031 1267.78125 752.777344 C 1267.78125 753.859375 1258.765625 753.824219 1258.765625 756.113281 C 1258.765625 752.828125 1249.648438 751.382812 1249.648438 750.195312 C 1249.648438 753.945312 1240.269531 762.152344 1240.269531 755.90625 C 1240.269531 753 1231.996094 746.945312 1231.996094 747.167969 C 1231.996094 752.378906 1222.824219 741.730469 1222.824219 748.21875 C 1222.824219 750.007812 1214 746.617188 1214 746.53125 C 1214 751.039062 1205.828125 743.847656 1205.828125 741.695312 C 1205.828125 735.398438 1196.226562 744.691406 1196.226562 743.570312 C 1196.226562 742.402344 1187.300781 748.90625 1187.300781 742.109375 C 1187.300781 738.890625 1179.765625 729.121094 1179.765625 735.210938 C 1179.765625 731.148438 1170.886719 734.230469 1170.886719 733.609375 C 1170.886719 735.710938 1160.632812 732.335938 1160.632812 737.15625 C 1160.632812 735.28125 1152.71875 733.816406 1152.71875 731.769531 C 1152.71875 734.796875 1143.273438 728.414062 1143.273438 732.335938 C 1143.273438 730.601562 1134.292969 731.992188 1134.292969 731.253906 C 1134.292969 731.753906 1126.050781 730.394531 1126.050781 726.917969 C 1126.050781 729.101562 1117.417969 725.644531 1117.417969 725.128906 C 1117.417969 724.972656 1109.191406 722.875 1109.191406 720.8125 C 1109.191406 723.976562 1100.453125 716.957031 1100.453125 719.175781 C 1100.453125 721.15625 1091.644531 721.53125 1091.644531 718.007812 C 1091.644531 718.539062 1082.457031 718.296875 1082.457031 720.484375 C 1082.457031 718.644531 1073.699219 720.398438 1073.699219 719.3125 C 1073.699219 717.027344 1065.082031 717.9375 1065.082031 715.253906 C 1065.082031 714.480469 1056.222656 714.066406 1056.222656 713.6875 C 1056.222656 709.027344 1047.257812 721.242188 1047.257812 717.457031 C 1047.257812 719.125 1038.363281 714.582031 1038.363281 713.515625 C 1038.363281 711.777344 1029.589844 723.390625 1029.589844 717.902344 C 1029.589844 714.6875 1020.847656 718.710938 1020.847656 719.710938 C 1020.847656 723.785156 1009.925781 715.992188 1009.925781 714.839844 C 1009.925781 712.105469 1000.632812 726.039062 1000.632812 722.222656 C 1000.632812 716.613281 990.949219 723.582031 990.949219 724.578125 C 990.949219 725.457031 982.585938 729.824219 982.585938 730.460938 C 982.585938 727.726562 973.347656 732.699219 973.347656 732.820312 C 973.347656 733.300781 963.40625 737.996094 963.40625 729.757812 C 963.40625 730.460938 954.613281 737.894531 954.613281 737.824219 C 954.613281 736.433594 945.269531 731.527344 945.269531 733.027344 C 945.269531 732.390625 936.117188 731.871094 936.117188 731.511719 C 936.117188 730.460938 926.226562 731.476562 926.226562 731.855469 C 926.226562 732.441406 918.105469 718.300781 918.105469 724.648438 C 918.105469 727.675781 909.089844 716.972656 909.089844 718.953125 C 909.089844 719.503906 898.578125 725.164062 898.097656 724.578125 C 897.066406 725.972656 890.511719 724.21875 889.390625 725.714844 C 887.601562 722.546875 879.964844 727.382812 879.226562 728.722656 C 878.277344 719.710938 871.363281 729.035156 870.070312 732.871094 C 868.421875 729.257812 865.359375 728.605469 863.84375 729.070312 L 863.84375 869.164062 Z M 1439.996094 869.164062 " fill-opacity="1" fill-rule="nonzero"/></g><g clip-path="url(#d35bc45278)"><path fill="#294122" d="M 1439.996094 878.367188 L 1439.996094 761.757812 C 1438.207031 760.894531 1436.621094 758.96875 1436.484375 755.527344 C 1436.554688 755.253906 1428.125 757.851562 1427.503906 758.296875 C 1429.035156 758.367188 1417.128906 760.105469 1418.78125 761.53125 C 1418.230469 761.464844 1410.25 762.875 1410.023438 764.441406 C 1407.632812 760.292969 1398.738281 755.496094 1400.734375 763.183594 C 1399.460938 760.757812 1392.664062 764.648438 1391.925781 763.683594 C 1392.425781 766.125 1383.238281 765.023438 1382.824219 763.375 C 1384.0625 767.554688 1374.136719 762.273438 1374.136719 767.105469 C 1374.136719 764.441406 1364.535156 759.382812 1364.535156 760.808594 C 1364.535156 764.5625 1356.261719 774.144531 1356.261719 769.066406 C 1356.261719 768.5 1346.816406 761.652344 1346.816406 764.578125 C 1346.816406 765.472656 1339.503906 758.730469 1339.503906 769.359375 C 1339.503906 773.214844 1331.761719 771.289062 1331.761719 767.589844 C 1331.761719 766.539062 1324.949219 758.953125 1324.949219 763.71875 C 1324.949219 764.714844 1314.816406 767.449219 1314.816406 760.929688 C 1314.816406 755.839844 1304.632812 757.078125 1304.632812 756.765625 C 1304.632812 755.082031 1295.015625 754.460938 1295.015625 753.414062 C 1295.015625 754.789062 1285.636719 759.777344 1285.636719 756.785156 C 1285.636719 757.058594 1276.898438 757.042969 1276.898438 761.34375 C 1276.898438 763.269531 1267.78125 758.160156 1267.78125 761.980469 C 1267.78125 763.0625 1258.765625 763.03125 1258.765625 765.316406 C 1258.765625 762.03125 1249.648438 760.585938 1249.648438 759.398438 C 1249.648438 763.148438 1240.269531 771.355469 1240.269531 765.113281 C 1240.269531 762.203125 1231.996094 756.148438 1231.996094 756.371094 C 1231.996094 761.585938 1222.824219 750.933594 1222.824219 757.421875 C 1222.824219 759.210938 1214 755.820312 1214 755.734375 C 1214 760.242188 1205.828125 753.050781 1205.828125 750.902344 C 1205.828125 744.605469 1196.226562 753.894531 1196.226562 752.777344 C 1196.226562 751.605469 1187.300781 758.109375 1187.300781 751.3125 C 1187.300781 748.097656 1179.765625 738.324219 1179.765625 744.414062 C 1179.765625 740.355469 1170.886719 743.433594 1170.886719 742.816406 C 1170.886719 744.914062 1160.632812 741.542969 1160.632812 746.359375 C 1160.632812 744.484375 1152.71875 743.019531 1152.71875 740.972656 C 1152.71875 744 1143.273438 737.617188 1143.273438 741.542969 C 1143.273438 739.804688 1134.292969 741.199219 1134.292969 740.457031 C 1134.292969 740.957031 1126.050781 739.597656 1126.050781 736.121094 C 1126.050781 738.308594 1117.417969 734.847656 1117.417969 734.332031 C 1117.417969 734.179688 1109.191406 732.078125 1109.191406 730.015625 C 1109.191406 733.179688 1100.453125 726.160156 1100.453125 728.378906 C 1100.453125 730.359375 1091.644531 730.738281 1091.644531 727.210938 C 1091.644531 727.742188 1082.457031 727.503906 1082.457031 729.6875 C 1082.457031 727.847656 1073.699219 729.601562 1073.699219 728.519531 C 1073.699219 726.230469 1065.082031 727.140625 1065.082031 724.457031 C 1065.082031 723.683594 1056.222656 723.269531 1056.222656 722.890625 C 1056.222656 718.230469 1047.257812 730.445312 1047.257812 726.660156 C 1047.257812 728.328125 1038.363281 723.785156 1038.363281 722.71875 C 1038.363281 720.984375 1029.589844 732.59375 1029.589844 727.105469 C 1029.589844 723.890625 1020.847656 727.914062 1020.847656 728.914062 C 1020.847656 732.992188 1009.925781 725.199219 1009.925781 724.046875 C 1009.925781 721.308594 1000.632812 735.246094 1000.632812 731.425781 C 1000.632812 725.816406 990.949219 732.785156 990.949219 733.78125 C 990.949219 734.660156 982.585938 739.03125 982.585938 739.667969 C 982.585938 736.929688 973.347656 741.902344 973.347656 742.023438 C 973.347656 742.503906 963.40625 747.203125 963.40625 738.960938 C 963.40625 739.667969 954.613281 747.097656 954.613281 747.03125 C 954.613281 745.636719 945.269531 740.734375 945.269531 742.230469 C 945.269531 741.59375 936.117188 741.078125 936.117188 740.714844 C 936.117188 739.667969 926.226562 740.679688 926.226562 741.058594 C 926.226562 741.644531 918.105469 727.503906 918.105469 733.851562 C 918.105469 736.878906 909.089844 726.179688 909.089844 728.15625 C 909.089844 728.707031 898.578125 734.367188 898.097656 733.78125 C 897.066406 735.175781 890.511719 733.421875 889.390625 734.917969 C 887.601562 731.753906 879.964844 736.585938 879.226562 737.929688 C 878.277344 728.914062 871.363281 738.238281 870.070312 742.074219 C 868.421875 738.460938 865.359375 737.808594 863.84375 738.273438 L 863.84375 878.367188 Z M 1439.996094 878.367188 " fill-opacity="1" fill-rule="nonzero"/></g><g clip-path="url(#8f0595cc01)"><path fill="#294122" d="M 290.058594 869.164062 L 290.058594 752.550781 C 291.847656 751.691406 293.429688 749.765625 293.566406 746.324219 C 293.5 746.050781 301.929688 748.648438 302.546875 749.09375 C 301.015625 749.164062 312.921875 750.902344 311.269531 752.328125 C 311.820312 752.261719 319.804688 753.671875 320.027344 755.234375 C 322.417969 751.089844 331.3125 746.289062 329.316406 753.980469 C 330.589844 751.554688 337.386719 755.441406 338.125 754.480469 C 337.628906 756.921875 346.816406 755.820312 347.226562 754.167969 C 345.988281 758.351562 355.914062 753.070312 355.914062 757.902344 C 355.914062 755.234375 365.515625 750.179688 365.515625 751.605469 C 365.515625 755.355469 373.789062 764.9375 373.789062 759.863281 C 373.789062 759.296875 383.234375 752.449219 383.234375 755.375 C 383.234375 756.269531 390.546875 749.523438 390.546875 760.15625 C 390.546875 764.011719 398.289062 762.082031 398.289062 758.382812 C 398.289062 757.335938 405.101562 749.746094 405.101562 754.511719 C 405.101562 755.511719 415.234375 758.246094 415.234375 751.726562 C 415.234375 746.632812 425.421875 747.871094 425.421875 747.5625 C 425.421875 745.878906 435.039062 745.257812 435.039062 744.207031 C 435.039062 745.585938 444.414062 750.574219 444.414062 747.582031 C 444.414062 747.855469 453.152344 747.839844 453.152344 752.140625 C 453.152344 754.066406 462.273438 748.957031 462.273438 752.777344 C 462.273438 753.859375 471.285156 753.824219 471.285156 756.113281 C 471.285156 752.828125 480.40625 751.382812 480.40625 750.195312 C 480.40625 753.945312 489.78125 762.152344 489.78125 755.90625 C 489.78125 753 498.054688 746.945312 498.054688 747.167969 C 498.054688 752.378906 507.226562 741.730469 507.226562 748.21875 C 507.226562 750.007812 516.050781 746.617188 516.050781 746.53125 C 516.050781 751.039062 524.222656 743.847656 524.222656 741.695312 C 524.222656 735.398438 533.824219 744.691406 533.824219 743.570312 C 533.824219 742.402344 542.753906 748.90625 542.753906 742.109375 C 542.753906 738.890625 550.289062 729.121094 550.289062 735.210938 C 550.289062 731.148438 559.164062 734.230469 559.164062 733.609375 C 559.164062 735.710938 569.417969 732.335938 569.417969 737.15625 C 569.417969 735.28125 577.332031 733.816406 577.332031 731.769531 C 577.332031 734.796875 586.777344 728.414062 586.777344 732.335938 C 586.777344 730.601562 595.757812 731.992188 595.757812 731.253906 C 595.757812 731.753906 604 730.394531 604 726.917969 C 604 729.101562 612.636719 725.644531 612.636719 725.128906 C 612.636719 724.972656 620.859375 722.875 620.859375 720.8125 C 620.859375 723.976562 629.601562 716.957031 629.601562 719.175781 C 629.601562 721.15625 638.40625 721.53125 638.40625 718.007812 C 638.40625 718.539062 647.59375 718.296875 647.59375 720.484375 C 647.59375 718.644531 656.351562 720.398438 656.351562 719.3125 C 656.351562 717.027344 664.972656 717.9375 664.972656 715.253906 C 664.972656 714.480469 673.832031 714.066406 673.832031 713.6875 C 673.832031 709.027344 682.792969 721.242188 682.792969 717.457031 C 682.792969 719.125 691.6875 714.582031 691.6875 713.515625 C 691.6875 711.777344 700.464844 723.390625 700.464844 717.902344 C 700.464844 714.6875 709.203125 718.710938 709.203125 719.710938 C 709.203125 723.785156 720.128906 715.992188 720.128906 714.839844 C 720.128906 712.105469 729.417969 726.039062 729.417969 722.222656 C 729.417969 716.613281 739.105469 723.582031 739.105469 724.578125 C 739.105469 725.457031 747.464844 729.824219 747.464844 730.460938 C 747.464844 727.726562 756.703125 732.699219 756.703125 732.820312 C 756.703125 733.300781 766.648438 737.996094 766.648438 729.757812 C 766.648438 730.460938 775.4375 737.894531 775.4375 737.824219 C 775.4375 736.433594 784.78125 731.527344 784.78125 733.027344 C 784.78125 732.390625 793.933594 731.871094 793.933594 731.511719 C 793.933594 730.460938 803.824219 731.476562 803.824219 731.855469 C 803.824219 732.441406 811.945312 718.300781 811.945312 724.648438 C 811.945312 727.675781 820.960938 716.972656 820.960938 718.953125 C 820.960938 719.503906 831.472656 725.164062 831.953125 724.578125 C 832.988281 725.972656 839.542969 724.21875 840.660156 725.714844 C 842.449219 722.546875 850.089844 727.382812 850.828125 728.722656 C 851.773438 719.710938 858.691406 729.035156 859.980469 732.871094 C 861.632812 729.257812 864.695312 728.605469 866.207031 729.070312 L 866.207031 869.164062 Z M 290.058594 869.164062 " fill-opacity="1" fill-rule="nonzero"/></g><g clip-path="url(#911308cfc9)"><path fill="#294122" d="M 290.058594 878.367188 L 290.058594 761.757812 C 291.847656 760.894531 293.429688 758.96875 293.566406 755.527344 C 293.5 755.253906 301.929688 757.851562 302.546875 758.296875 C 301.015625 758.367188 312.921875 760.105469 311.269531 761.53125 C 311.820312 761.464844 319.804688 762.875 320.027344 764.441406 C 322.417969 760.292969 331.3125 755.496094 329.316406 763.183594 C 330.589844 760.757812 337.386719 764.648438 338.125 763.683594 C 337.628906 766.125 346.816406 765.023438 347.226562 763.375 C 345.988281 767.554688 355.914062 762.273438 355.914062 767.105469 C 355.914062 764.441406 365.515625 759.382812 365.515625 760.808594 C 365.515625 764.5625 373.789062 774.144531 373.789062 769.066406 C 373.789062 768.5 383.234375 761.652344 383.234375 764.578125 C 383.234375 765.472656 390.546875 758.730469 390.546875 769.359375 C 390.546875 773.214844 398.289062 771.289062 398.289062 767.589844 C 398.289062 766.539062 405.101562 758.953125 405.101562 763.71875 C 405.101562 764.714844 415.234375 767.449219 415.234375 760.929688 C 415.234375 755.839844 425.421875 757.078125 425.421875 756.765625 C 425.421875 755.082031 435.039062 754.460938 435.039062 753.414062 C 435.039062 754.789062 444.414062 759.777344 444.414062 756.785156 C 444.414062 757.058594 453.152344 757.042969 453.152344 761.34375 C 453.152344 763.269531 462.273438 758.160156 462.273438 761.980469 C 462.273438 763.0625 471.285156 763.03125 471.285156 765.316406 C 471.285156 762.03125 480.40625 760.585938 480.40625 759.398438 C 480.40625 763.148438 489.78125 771.355469 489.78125 765.113281 C 489.78125 762.203125 498.054688 756.148438 498.054688 756.371094 C 498.054688 761.585938 507.226562 750.933594 507.226562 757.421875 C 507.226562 759.210938 516.050781 755.820312 516.050781 755.734375 C 516.050781 760.242188 524.222656 753.050781 524.222656 750.902344 C 524.222656 744.605469 533.824219 753.894531 533.824219 752.777344 C 533.824219 751.605469 542.753906 758.109375 542.753906 751.3125 C 542.753906 748.097656 550.289062 738.324219 550.289062 744.414062 C 550.289062 740.355469 559.164062 743.433594 559.164062 742.816406 C 559.164062 744.914062 569.417969 741.542969 569.417969 746.359375 C 569.417969 744.484375 577.332031 743.019531 577.332031 740.972656 C 577.332031 744 586.777344 737.617188 586.777344 741.542969 C 586.777344 739.804688 595.757812 741.199219 595.757812 740.457031 C 595.757812 740.957031 604 739.597656 604 736.121094 C 604 738.308594 612.636719 734.847656 612.636719 734.332031 C 612.636719 734.179688 620.859375 732.078125 620.859375 730.015625 C 620.859375 733.179688 629.601562 726.160156 629.601562 728.378906 C 629.601562 730.359375 638.40625 730.738281 638.40625 727.210938 C 638.40625 727.742188 647.59375 727.503906 647.59375 729.6875 C 647.59375 727.847656 656.351562 729.601562 656.351562 728.519531 C 656.351562 726.230469 664.972656 727.140625 664.972656 724.457031 C 664.972656 723.683594 673.832031 723.269531 673.832031 722.890625 C 673.832031 718.230469 682.792969 730.445312 682.792969 726.660156 C 682.792969 728.328125 691.6875 723.785156 691.6875 722.71875 C 691.6875 720.984375 700.464844 732.59375 700.464844 727.105469 C 700.464844 723.890625 709.203125 727.914062 709.203125 728.914062 C 709.203125 732.992188 720.128906 725.199219 720.128906 724.046875 C 720.128906 721.308594 729.417969 735.246094 729.417969 731.425781 C 729.417969 725.816406 739.105469 732.785156 739.105469 733.78125 C 739.105469 734.660156 747.464844 739.03125 747.464844 739.667969 C 747.464844 736.929688 756.703125 741.902344 756.703125 742.023438 C 756.703125 742.503906 766.648438 747.203125 766.648438 738.960938 C 766.648438 739.667969 775.4375 747.097656 775.4375 747.03125 C 775.4375 745.636719 784.78125 740.734375 784.78125 742.230469 C 784.78125 741.59375 793.933594 741.078125 793.933594 740.714844 C 793.933594 739.667969 803.824219 740.679688 803.824219 741.058594 C 803.824219 741.644531 811.945312 727.503906 811.945312 733.851562 C 811.945312 736.878906 820.960938 726.179688 820.960938 728.15625 C 820.960938 728.707031 831.472656 734.367188 831.953125 733.78125 C 832.988281 735.175781 839.542969 733.421875 840.660156 734.917969 C 842.449219 731.753906 850.089844 736.585938 850.828125 737.929688 C 851.773438 728.914062 858.691406 738.238281 859.980469 742.074219 C 861.632812 738.460938 864.695312 737.808594 866.207031 738.273438 L 866.207031 878.367188 Z M 290.058594 878.367188 " fill-opacity="1" fill-rule="nonzero"/></g><g clip-path="url(#4ac15be5a0)"><path fill="#294122" d="M -272.449219 891.09375 L -272.449219 774.484375 C -270.660156 773.625 -269.078125 771.699219 -268.9375 768.257812 C -269.007812 767.980469 -260.578125 770.578125 -259.957031 771.027344 C -261.488281 771.097656 -249.585938 772.832031 -251.234375 774.261719 C -250.683594 774.191406 -242.703125 775.601562 -242.480469 777.167969 C -240.085938 773.023438 -231.191406 768.222656 -233.1875 775.914062 C -231.914062 773.488281 -225.121094 777.375 -224.378906 776.410156 C -224.878906 778.855469 -215.691406 777.753906 -215.277344 776.101562 C -216.519531 780.28125 -206.589844 775 -206.589844 779.835938 C -206.589844 777.167969 -196.992188 772.109375 -196.992188 773.539062 C -196.992188 777.289062 -188.714844 786.871094 -188.714844 781.796875 C -188.714844 781.230469 -179.269531 774.382812 -179.269531 777.304688 C -179.269531 778.199219 -171.957031 771.457031 -171.957031 782.089844 C -171.957031 785.941406 -164.21875 784.015625 -164.21875 780.316406 C -164.21875 779.269531 -157.402344 771.679688 -157.402344 776.445312 C -157.402344 777.445312 -147.269531 780.179688 -147.269531 773.660156 C -147.269531 768.566406 -137.085938 769.804688 -137.085938 769.496094 C -137.085938 767.808594 -127.46875 767.191406 -127.46875 766.140625 C -127.46875 767.515625 -118.09375 772.507812 -118.09375 769.511719 C -118.09375 769.789062 -109.351562 769.769531 -109.351562 774.070312 C -109.351562 776 -100.234375 770.890625 -100.234375 774.707031 C -100.234375 775.792969 -91.21875 775.757812 -91.21875 778.046875 C -91.21875 774.761719 -82.101562 773.316406 -82.101562 772.128906 C -82.101562 775.878906 -72.726562 784.085938 -72.726562 777.839844 C -72.726562 774.933594 -64.449219 768.875 -64.449219 769.101562 C -64.449219 774.3125 -55.28125 763.664062 -55.28125 770.148438 C -55.28125 771.9375 -46.453125 768.550781 -46.453125 768.464844 C -46.453125 772.972656 -38.28125 765.78125 -38.28125 763.628906 C -38.28125 757.332031 -28.683594 766.621094 -28.683594 765.503906 C -28.683594 764.335938 -19.753906 770.835938 -19.753906 764.042969 C -19.753906 760.824219 -12.21875 751.054688 -12.21875 757.144531 C -12.21875 753.082031 -3.339844 756.164062 -3.339844 755.542969 C -3.339844 757.640625 6.914062 754.269531 6.914062 759.085938 C 6.914062 757.210938 14.828125 755.75 14.828125 753.703125 C 14.828125 756.730469 24.273438 750.347656 24.273438 754.269531 C 24.273438 752.53125 33.253906 753.925781 33.253906 753.1875 C 33.253906 753.683594 41.492188 752.324219 41.492188 748.851562 C 41.492188 751.035156 50.128906 747.578125 50.128906 747.0625 C 50.128906 746.90625 58.351562 744.808594 58.351562 742.742188 C 58.351562 745.910156 67.09375 738.890625 67.09375 741.109375 C 67.09375 743.085938 75.902344 743.464844 75.902344 739.9375 C 75.902344 740.472656 85.089844 740.230469 85.089844 742.417969 C 85.089844 740.574219 93.84375 742.332031 93.84375 741.246094 C 93.84375 738.957031 102.464844 739.871094 102.464844 737.1875 C 102.464844 736.414062 111.324219 736 111.324219 735.621094 C 111.324219 730.957031 120.289062 743.171875 120.289062 739.386719 C 120.289062 741.058594 129.183594 736.515625 129.183594 735.449219 C 129.183594 733.710938 137.957031 745.324219 137.957031 739.835938 C 137.957031 736.617188 146.695312 740.644531 146.695312 741.640625 C 146.695312 745.71875 157.621094 737.925781 157.621094 736.773438 C 157.621094 734.039062 166.910156 747.972656 166.910156 744.152344 C 166.910156 738.546875 176.597656 745.511719 176.597656 746.511719 C 176.597656 747.386719 184.957031 751.757812 184.957031 752.394531 C 184.957031 749.660156 194.199219 754.632812 194.199219 754.75 C 194.199219 755.234375 204.140625 759.929688 204.140625 751.691406 C 204.140625 752.394531 212.933594 759.828125 212.933594 759.757812 C 212.933594 758.363281 222.273438 753.460938 222.273438 754.957031 C 222.273438 754.320312 231.425781 753.804688 231.425781 753.445312 C 231.425781 752.394531 241.320312 753.410156 241.320312 753.789062 C 241.320312 754.375 249.441406 740.230469 249.441406 746.578125 C 249.441406 749.609375 258.453125 738.90625 258.453125 740.886719 C 258.453125 741.4375 268.964844 747.097656 269.449219 746.511719 C 270.480469 747.90625 277.035156 746.148438 278.152344 747.648438 C 279.941406 744.480469 287.582031 749.316406 288.320312 750.65625 C 289.265625 741.640625 296.183594 750.96875 297.472656 754.804688 C 299.125 751.191406 302.1875 750.535156 303.703125 751 L 303.703125 891.09375 Z M -272.449219 891.09375 " fill-opacity="1" fill-rule="nonzero"/></g><g clip-path="url(#b9e03d29f7)"><path fill="#294122" d="M -272.449219 900.300781 L -272.449219 783.6875 C -270.660156 782.828125 -269.078125 780.902344 -268.9375 777.460938 C -269.007812 777.1875 -260.578125 779.785156 -259.957031 780.230469 C -261.488281 780.300781 -249.585938 782.039062 -251.234375 783.464844 C -250.683594 783.398438 -242.703125 784.808594 -242.480469 786.375 C -240.085938 782.226562 -231.191406 777.425781 -233.1875 785.117188 C -231.914062 782.691406 -225.121094 786.578125 -224.378906 785.617188 C -224.878906 788.058594 -215.691406 786.957031 -215.277344 785.304688 C -216.519531 789.488281 -206.589844 784.207031 -206.589844 789.039062 C -206.589844 786.375 -196.992188 781.316406 -196.992188 782.742188 C -196.992188 786.492188 -188.714844 796.078125 -188.714844 791 C -188.714844 790.433594 -179.269531 783.585938 -179.269531 786.511719 C -179.269531 787.40625 -171.957031 780.660156 -171.957031 791.292969 C -171.957031 795.148438 -164.21875 793.21875 -164.21875 789.519531 C -164.21875 788.472656 -157.402344 780.886719 -157.402344 785.652344 C -157.402344 786.648438 -147.269531 789.382812 -147.269531 782.863281 C -147.269531 777.769531 -137.085938 779.007812 -137.085938 778.699219 C -137.085938 777.015625 -127.46875 776.394531 -127.46875 775.34375 C -127.46875 776.722656 -118.09375 781.710938 -118.09375 778.71875 C -118.09375 778.992188 -109.351562 778.976562 -109.351562 783.277344 C -109.351562 785.203125 -100.234375 780.09375 -100.234375 783.914062 C -100.234375 784.996094 -91.21875 784.960938 -91.21875 787.25 C -91.21875 783.964844 -82.101562 782.519531 -82.101562 781.332031 C -82.101562 785.082031 -72.726562 793.289062 -72.726562 787.042969 C -72.726562 784.136719 -64.449219 778.082031 -64.449219 778.304688 C -64.449219 783.515625 -55.28125 772.867188 -55.28125 779.355469 C -55.28125 781.144531 -46.453125 777.753906 -46.453125 777.667969 C -46.453125 782.175781 -38.28125 774.984375 -38.28125 772.832031 C -38.28125 766.535156 -28.683594 775.828125 -28.683594 774.707031 C -28.683594 773.539062 -19.753906 780.042969 -19.753906 773.246094 C -19.753906 770.027344 -12.21875 760.257812 -12.21875 766.347656 C -12.21875 762.289062 -3.339844 765.367188 -3.339844 764.746094 C -3.339844 766.847656 6.914062 763.472656 6.914062 768.292969 C 6.914062 766.417969 14.828125 764.953125 14.828125 762.90625 C 14.828125 765.933594 24.273438 759.550781 24.273438 763.472656 C 24.273438 761.738281 33.253906 763.128906 33.253906 762.390625 C 33.253906 762.890625 41.492188 761.53125 41.492188 758.054688 C 41.492188 760.238281 50.128906 756.78125 50.128906 756.265625 C 50.128906 756.109375 58.351562 754.011719 58.351562 751.949219 C 58.351562 755.113281 67.09375 748.09375 67.09375 750.3125 C 67.09375 752.292969 75.902344 752.671875 75.902344 749.144531 C 75.902344 749.675781 85.089844 749.4375 85.089844 751.621094 C 85.089844 749.78125 93.84375 751.535156 93.84375 750.449219 C 93.84375 748.164062 102.464844 749.074219 102.464844 746.390625 C 102.464844 745.617188 111.324219 745.203125 111.324219 744.824219 C 111.324219 740.164062 120.289062 752.378906 120.289062 748.59375 C 120.289062 750.261719 129.183594 745.71875 129.183594 744.652344 C 129.183594 742.914062 137.957031 754.527344 137.957031 749.039062 C 137.957031 745.824219 146.695312 749.847656 146.695312 750.847656 C 146.695312 754.925781 157.621094 747.128906 157.621094 745.976562 C 157.621094 743.242188 166.910156 757.175781 166.910156 753.359375 C 166.910156 747.75 176.597656 754.71875 176.597656 755.714844 C 176.597656 756.59375 184.957031 760.960938 184.957031 761.597656 C 184.957031 758.863281 194.199219 763.835938 194.199219 763.957031 C 194.199219 764.4375 204.140625 769.132812 204.140625 760.894531 C 204.140625 761.597656 212.933594 769.03125 212.933594 768.960938 C 212.933594 767.570312 222.273438 762.664062 222.273438 764.164062 C 222.273438 763.527344 231.425781 763.011719 231.425781 762.648438 C 231.425781 761.597656 241.320312 762.613281 241.320312 762.992188 C 241.320312 763.578125 249.441406 749.4375 249.441406 755.785156 C 249.441406 758.8125 258.453125 748.109375 258.453125 750.089844 C 258.453125 750.640625 268.964844 756.300781 269.449219 755.714844 C 270.480469 757.109375 277.035156 755.355469 278.152344 756.851562 C 279.941406 753.683594 287.582031 758.519531 288.320312 759.863281 C 289.265625 750.847656 296.183594 760.171875 297.472656 764.007812 C 299.125 760.394531 302.1875 759.742188 303.703125 760.207031 L 303.703125 900.300781 Z M -272.449219 900.300781 " fill-opacity="1" fill-rule="nonzero"/></g></svg>